<svg width="1440" height="900" viewBox="0 0 1440 900" xmlns="http://www.w3.org/2000/svg" style="background:#FFFFFF;font-family:Arial,sans-serif">
<rect x="0" y="0" width="1440" height="44" rx="0" fill="#F0F0F0" stroke="#D0D0D0" stroke-width="1" />
<rect x="14" y="11" width="22" height="22" rx="4" fill="#CCCCCC" stroke="#D0D0D0" stroke-width="1" />
<text x="42" y="28" font-size="13" fill="#111111" font-weight="bold" text-anchor="start">Insighta</text>
<rect x="100" y="14" width="28" height="16" rx="3" fill="#EBEBEB" stroke="#D0D0D0" stroke-width="1" />
<text x="103" y="26" font-size="9" fill="#555555" font-weight="normal" text-anchor="start">DEV</text>
<rect x="132" y="14" width="34" height="16" rx="3" fill="#EBEBEB" stroke="#D0D0D0" stroke-width="1" />
<text x="135" y="26" font-size="9" fill="#555555" font-weight="normal" text-anchor="start">BETA</text>
<rect x="480" y="9" width="480" height="26" rx="13" fill="#FFFFFF" stroke="#D0D0D0" stroke-width="1" />
<text x="498" y="27" font-size="11" fill="#999999" font-weight="normal" text-anchor="start">Search cards...  (⌘K)</text>
<text x="1230" y="28" font-size="11" fill="#555555" font-weight="normal" text-anchor="start">KO</text>
<circle cx="1278" cy="22" r="10" fill="#EBEBEB" stroke="#D0D0D0" stroke-width="1"/>
<circle cx="1416" cy="22" r="16" fill="#CCCCCC" stroke="#D0D0D0" stroke-width="1"/>
<text x="1410" y="26" font-size="10" fill="#111111" font-weight="bold" text-anchor="middle">JK</text>
<rect x="0" y="44" width="1440" height="52" rx="0" fill="#F7F7F7" stroke="#D0D0D0" stroke-width="1" />
<text x="14" y="57" font-size="9" fill="#999999" font-weight="normal" text-anchor="start">← 2025.03 포트폴리오</text>
<line x1="14" y1="82" x2="1426" y2="82" stroke="#BBBBBB" stroke-width="1" />
<rect x="274" y="66" width="8" height="5" rx="1" fill="#EBEBEB" stroke="#D0D0D0" stroke-width="1" />
<rect x="284" y="66" width="8" height="5" rx="1" fill="#D0D0D0" stroke="#D0D0D0" stroke-width="1" />
<circle cx="280" cy="82" r="4" fill="#EBEBEB" stroke="#BBBBBB" stroke-width="1"/>
<text x="280" y="62" font-size="7" fill="#999999" font-weight="normal" text-anchor="middle">AI관심</text>
<rect x="534" y="66" width="8" height="5" rx="1" fill="#EBEBEB" stroke="#D0D0D0" stroke-width="1" />
<rect x="544" y="66" width="8" height="5" rx="1" fill="#D0D0D0" stroke="#D0D0D0" stroke-width="1" />
<circle cx="540" cy="82" r="4" fill="#EBEBEB" stroke="#BBBBBB" stroke-width="1"/>
<text x="540" y="62" font-size="7" fill="#999999" font-weight="normal" text-anchor="middle">ETF집중</text>
<rect x="814" y="66" width="8" height="5" rx="1" fill="#EBEBEB" stroke="#D0D0D0" stroke-width="1" />
<rect x="824" y="66" width="8" height="5" rx="1" fill="#D0D0D0" stroke="#D0D0D0" stroke-width="1" />
<circle cx="820" cy="82" r="4" fill="#EBEBEB" stroke="#BBBBBB" stroke-width="1"/>
<text x="820" y="62" font-size="7" fill="#999999" font-weight="normal" text-anchor="middle">영어추가</text>
<rect x="1054" y="66" width="8" height="5" rx="1" fill="#EBEBEB" stroke="#D0D0D0" stroke-width="1" />
<rect x="1064" y="66" width="8" height="5" rx="1" fill="#D0D0D0" stroke="#D0D0D0" stroke-width="1" />
<circle cx="1060" cy="82" r="4" fill="#EBEBEB" stroke="#BBBBBB" stroke-width="1"/>
<text x="1060" y="62" font-size="7" fill="#999999" font-weight="normal" text-anchor="middle">포트폴리오</text>
<line x1="1420" y1="48" x2="1420" y2="94" stroke="#111111" stroke-width="2" />
<circle cx="1420" cy="92" r="5" fill="#111111" stroke="#FFFFFF" stroke-width="2"/>
<text x="1414" y="57" font-size="8" fill="#111111" font-weight="bold" text-anchor="end">현재</text>
<rect x="0" y="96" width="220" height="804" rx="0" fill="#F5F5F5" stroke="#D0D0D0" stroke-width="1" />
<rect x="0" y="96" width="220" height="46" rx="0" fill="#EBEBEB" stroke="#D0D0D0" stroke-width="1" />
<text x="12" y="114" font-size="12" fill="#111111" font-weight="bold" text-anchor="start">Ideation</text>
<rect x="78" y="108" width="30" height="16" rx="8" fill="#DDDDDD" stroke="#D0D0D0" stroke-width="1" />
<text x="83" y="120" font-size="9" fill="#555555" font-weight="normal" text-anchor="start">586</text>
<rect x="112" y="108" width="26" height="16" rx="4" fill="#FFFFFF" stroke="#D0D0D0" stroke-width="1" />
<text x="116" y="120" font-size="9" fill="#555555" font-weight="normal" text-anchor="start">AI</text>
<text x="200" y="114" font-size="11" fill="#999999" font-weight="normal" text-anchor="start">⤢</text>
<text x="12" y="130" font-size="9" fill="#999999" font-weight="normal" text-anchor="start">∞ 시간 초월 카드</text>
<rect x="0" y="142" width="220" height="26" rx="0" fill="#EBEBEB" stroke="#D0D0D0" stroke-width="1" />
<rect x="6" y="146" width="30" height="18" rx="9" fill="#CCCCCC" stroke="#D0D0D0" stroke-width="1" />
<text x="14" y="158" font-size="8" fill="#111111" font-weight="normal" text-anchor="start">전체</text>
<rect x="40" y="146" width="37" height="18" rx="9" fill="#FFFFFF" stroke="#D0D0D0" stroke-width="1" />
<circle cx="48" cy="155" r="3" fill="#4488CC" stroke="#4488CC" stroke-width="1"/>
<text x="54" y="158" font-size="8" fill="#555555" font-weight="normal" text-anchor="start">#테크</text>
<rect x="81" y="146" width="37" height="18" rx="9" fill="#FFFFFF" stroke="#D0D0D0" stroke-width="1" />
<circle cx="89" cy="155" r="3" fill="#CC8800" stroke="#CC8800" stroke-width="1"/>
<text x="95" y="158" font-size="8" fill="#555555" font-weight="normal" text-anchor="start">#투자</text>
<rect x="122" y="146" width="37" height="18" rx="9" fill="#FFFFFF" stroke="#D0D0D0" stroke-width="1" />
<circle cx="130" cy="155" r="3" fill="#338866" stroke="#338866" stroke-width="1"/>
<text x="136" y="158" font-size="8" fill="#555555" font-weight="normal" text-anchor="start">#경제</text>
<rect x="6" y="174" width="101" height="76" rx="6" fill="#FFFFFF" stroke="#D0D0D0" stroke-width="1" />
<rect x="6" y="174" width="101" height="42" rx="6" fill="#1a2a3a" stroke="#D0D0D0" stroke-width="1" />
<rect x="6" y="174" width="101" height="36" rx="0" fill="#1a2a3a" stroke="none" stroke-width="1" />
<rect x="89" y="177" width="16" height="10" rx="2" fill="#00000066" stroke="none" stroke-width="1" />
<text x="91" y="185" font-size="6" fill="#FFFFFF" font-weight="normal" text-anchor="start">YT</text>
<text x="10" y="222" font-size="8" fill="#111111" font-weight="normal" text-anchor="start">테슬라 차세대</text>
<circle cx="12" cy="242" r="3" fill="#4488CC" stroke="#4488CC" stroke-width="1"/>
<rect x="113" y="174" width="101" height="76" rx="6" fill="#FFFFFF" stroke="#D0D0D0" stroke-width="1" />
<rect x="113" y="174" width="101" height="42" rx="6" fill="#2a1a3a" stroke="#D0D0D0" stroke-width="1" />
<rect x="113" y="174" width="101" height="36" rx="0" fill="#2a1a3a" stroke="none" stroke-width="1" />
<rect x="196" y="177" width="16" height="10" rx="2" fill="#00000066" stroke="none" stroke-width="1" />
<text x="198" y="185" font-size="6" fill="#FFFFFF" font-weight="normal" text-anchor="start">YT</text>
<text x="117" y="222" font-size="8" fill="#111111" font-weight="normal" text-anchor="start">엔비디아 양자</text>
<circle cx="119" cy="242" r="3" fill="#4488CC" stroke="#4488CC" stroke-width="1"/>
<rect x="6" y="254" width="101" height="76" rx="6" fill="#FFFFFF" stroke="#D0D0D0" stroke-width="1" />
<rect x="6" y="254" width="101" height="42" rx="6" fill="#3a2a1a" stroke="#D0D0D0" stroke-width="1" />
<rect x="6" y="254" width="101" height="36" rx="0" fill="#3a2a1a" stroke="none" stroke-width="1" />
<rect x="89" y="257" width="16" height="10" rx="2" fill="#00000066" stroke="none" stroke-width="1" />
<text x="91" y="265" font-size="6" fill="#FFFFFF" font-weight="normal" text-anchor="start">YT</text>
<text x="10" y="302" font-size="8" fill="#111111" font-weight="normal" text-anchor="start">아이온큐 전망</text>
<circle cx="12" cy="322" r="3" fill="#CC8800" stroke="#CC8800" stroke-width="1"/>
<rect x="113" y="254" width="101" height="76" rx="6" fill="#FFFFFF" stroke="#D0D0D0" stroke-width="1" />
<rect x="113" y="254" width="101" height="42" rx="6" fill="#1a3a2a" stroke="#D0D0D0" stroke-width="1" />
<rect x="113" y="254" width="101" height="36" rx="0" fill="#1a3a2a" stroke="none" stroke-width="1" />
<rect x="196" y="257" width="16" height="10" rx="2" fill="#00000066" stroke="none" stroke-width="1" />
<text x="198" y="265" font-size="6" fill="#FFFFFF" font-weight="normal" text-anchor="start">YT</text>
<text x="117" y="302" font-size="8" fill="#111111" font-weight="normal" text-anchor="start">팔란티어 분석</text>
<circle cx="119" cy="322" r="3" fill="#CC8800" stroke="#CC8800" stroke-width="1"/>
<rect x="6" y="334" width="101" height="76" rx="6" fill="#FFFFFF" stroke="#D0D0D0" stroke-width="1" />
<rect x="6" y="334" width="101" height="42" rx="6" fill="#1a1a3a" stroke="#D0D0D0" stroke-width="1" />
<rect x="6" y="334" width="101" height="36" rx="0" fill="#1a1a3a" stroke="none" stroke-width="1" />
<rect x="89" y="337" width="16" height="10" rx="2" fill="#00000066" stroke="none" stroke-width="1" />
<text x="91" y="345" font-size="6" fill="#FFFFFF" font-weight="normal" text-anchor="start">YT</text>
<text x="10" y="382" font-size="8" fill="#111111" font-weight="normal" text-anchor="start">유상증자 이슈</text>
<circle cx="12" cy="402" r="3" fill="#338866" stroke="#338866" stroke-width="1"/>
<rect x="113" y="334" width="101" height="76" rx="6" fill="#FFFFFF" stroke="#D0D0D0" stroke-width="1" />
<rect x="113" y="334" width="101" height="42" rx="6" fill="#2a3a1a" stroke="#D0D0D0" stroke-width="1" />
<rect x="113" y="334" width="101" height="36" rx="0" fill="#2a3a1a" stroke="none" stroke-width="1" />
<rect x="196" y="337" width="16" height="10" rx="2" fill="#00000066" stroke="none" stroke-width="1" />
<text x="198" y="345" font-size="6" fill="#FFFFFF" font-weight="normal" text-anchor="start">YT</text>
<text x="117" y="382" font-size="8" fill="#111111" font-weight="normal" text-anchor="start">딥시크 영향</text>
<circle cx="119" cy="402" r="3" fill="#4488CC" stroke="#4488CC" stroke-width="1"/>
<rect x="6" y="414" width="101" height="76" rx="6" fill="#FFFFFF" stroke="#D0D0D0" stroke-width="1" />
<rect x="6" y="414" width="101" height="42" rx="6" fill="#3a1a2a" stroke="#D0D0D0" stroke-width="1" />
<rect x="6" y="414" width="101" height="36" rx="0" fill="#3a1a2a" stroke="none" stroke-width="1" />
<rect x="89" y="417" width="16" height="10" rx="2" fill="#00000066" stroke="none" stroke-width="1" />
<text x="91" y="425" font-size="6" fill="#FFFFFF" font-weight="normal" text-anchor="start">YT</text>
<text x="10" y="462" font-size="8" fill="#111111" font-weight="normal" text-anchor="start">2025 전망</text>
<circle cx="12" cy="482" r="3" fill="#CC8800" stroke="#CC8800" stroke-width="1"/>
<rect x="113" y="414" width="101" height="76" rx="6" fill="#FFFFFF" stroke="#D0D0D0" stroke-width="1" />
<rect x="113" y="414" width="101" height="42" rx="6" fill="#1a3a3a" stroke="#D0D0D0" stroke-width="1" />
<rect x="113" y="414" width="101" height="36" rx="0" fill="#1a3a3a" stroke="none" stroke-width="1" />
<rect x="196" y="417" width="16" height="10" rx="2" fill="#00000066" stroke="none" stroke-width="1" />
<text x="198" y="425" font-size="6" fill="#FFFFFF" font-weight="normal" text-anchor="start">ART</text>
<text x="117" y="462" font-size="8" fill="#111111" font-weight="normal" text-anchor="start">금리 시나리오</text>
<circle cx="119" cy="482" r="3" fill="#338866" stroke="#338866" stroke-width="1"/>
<rect x="0" y="876" width="220" height="24" rx="0" fill="#EBEBEB" stroke="#D0D0D0" stroke-width="1" />
<text x="20" y="890" font-size="9" fill="#999999" font-weight="normal" text-anchor="start">드래그 → 섹터에 배치</text>
<rect x="220" y="96" width="1220" height="30" rx="0" fill="#FFFFFF" stroke="#D0D0D0" stroke-width="1" />
<text x="232" y="116" font-size="11" fill="#111111" font-weight="bold" text-anchor="start">전체 만다라</text>
<text x="1120" y="116" font-size="9" fill="#999999" font-weight="normal" text-anchor="start">Lv.0</text>
<line x1="1150" y1="111" x2="1250" y2="111" stroke="#BBBBBB" stroke-width="3" />
<circle cx="1150" cy="111" r="6" fill="#111111" stroke="#FFFFFF" stroke-width="2"/>
<text x="1260" y="116" font-size="9" fill="#999999" font-weight="normal" text-anchor="start">전체</text>
<rect x="1300" y="101" width="24" height="22" rx="4" fill="#EBEBEB" stroke="#D0D0D0" stroke-width="1" />
<text x="1312" y="116" font-size="11" fill="#555555" font-weight="normal" text-anchor="middle">⊞</text>
<rect x="1328" y="101" width="24" height="22" rx="4" fill="#FFFFFF" stroke="#D0D0D0" stroke-width="1" />
<text x="1340" y="116" font-size="11" fill="#555555" font-weight="normal" text-anchor="middle">≡</text>
<rect x="1356" y="101" width="24" height="22" rx="4" fill="#FFFFFF" stroke="#D0D0D0" stroke-width="1" />
<text x="1368" y="116" font-size="11" fill="#555555" font-weight="normal" text-anchor="middle">◫</text>
<rect x="1384" y="101" width="24" height="22" rx="4" fill="#FFFFFF" stroke="#D0D0D0" stroke-width="1" />
<text x="1396" y="116" font-size="11" fill="#555555" font-weight="normal" text-anchor="middle">⊕</text>
<rect x="310" y="150" width="320" height="520" rx="10" fill="#FFFFFF" stroke="#222222" stroke-width="2" />
<rect x="337" y="166" width="86" height="43" rx="4" fill="#F5F5F5" stroke="#D0D0D0" stroke-width="1" />
<text x="380" y="191" font-size="8" fill="#999999" font-weight="normal" text-anchor="middle">기시</text>
<rect x="427" y="166" width="86" height="43" rx="4" fill="#F5F5F5" stroke="#D0D0D0" stroke-width="1" />
<text x="470" y="191" font-size="8" fill="#999999" font-weight="normal" text-anchor="middle">주식</text>
<rect x="517" y="166" width="86" height="43" rx="4" fill="#F5F5F5" stroke="#D0D0D0" stroke-width="1" />
<text x="560" y="191" font-size="8" fill="#999999" font-weight="normal" text-anchor="middle">자산</text>
<rect x="337" y="213" width="86" height="43" rx="4" fill="#F5F5F5" stroke="#D0D0D0" stroke-width="1" />
<text x="380" y="238" font-size="8" fill="#999999" font-weight="normal" text-anchor="middle">ETF</text>
<rect x="427" y="213" width="86" height="43" rx="4" fill="#D0D8E8" stroke="#BBBBBB" stroke-width="1" />
<text x="470" y="238" font-size="14" fill="#333" font-weight="normal" text-anchor="middle">🐱</text>
<rect x="517" y="213" width="86" height="43" rx="4" fill="#F5F5F5" stroke="#D0D0D0" stroke-width="1" />
<text x="560" y="238" font-size="8" fill="#999999" font-weight="normal" text-anchor="middle">크립토</text>
<rect x="337" y="260" width="86" height="43" rx="4" fill="#F5F5F5" stroke="#D0D0D0" stroke-width="1" />
<text x="380" y="285" font-size="8" fill="#999999" font-weight="normal" text-anchor="middle">실물</text>
<rect x="427" y="260" width="86" height="43" rx="4" fill="#F5F5F5" stroke="#D0D0D0" stroke-width="1" />
<text x="470" y="285" font-size="8" fill="#999999" font-weight="normal" text-anchor="middle">시장</text>
<rect x="517" y="260" width="86" height="43" rx="4" fill="#F5F5F5" stroke="#D0D0D0" stroke-width="1" />
<text x="560" y="285" font-size="8" fill="#999999" font-weight="normal" text-anchor="middle"></text>
<circle cx="470" cy="349" r="28" fill="#EBEBEB" stroke="#D0D0D0" stroke-width="1"/>
<text x="470" y="355" font-size="20" fill="#111111" font-weight="normal" text-anchor="middle">🐱</text>
<text x="470" y="389" font-size="14" fill="#111111" font-weight="bold" text-anchor="middle">투자</text>
<text x="470" y="407" font-size="11" fill="#999999" font-weight="normal" text-anchor="middle">31장</text>
<rect x="410" y="419" width="40" height="18" rx="9" fill="#F5F5F5" stroke="#D0D0D0" stroke-width="1" />
<text x="430" y="431" font-size="9" fill="#555555" font-weight="normal" text-anchor="middle">#테크</text>
<rect x="458" y="419" width="40" height="18" rx="9" fill="#F5F5F5" stroke="#D0D0D0" stroke-width="1" />
<text x="478" y="431" font-size="9" fill="#555555" font-weight="normal" text-anchor="middle">#투자</text>
<rect x="670" y="150" width="320" height="520" rx="10" fill="#FFFFFF" stroke="#D0D0D0" stroke-width="1" />
<rect x="697" y="166" width="86" height="43" rx="4" fill="#F5F5F5" stroke="#D0D0D0" stroke-width="1" />
<text x="740" y="191" font-size="8" fill="#999999" font-weight="normal" text-anchor="middle">LLM</text>
<rect x="787" y="166" width="86" height="43" rx="4" fill="#F5F5F5" stroke="#D0D0D0" stroke-width="1" />
<text x="830" y="191" font-size="8" fill="#999999" font-weight="normal" text-anchor="middle">ML기초</text>
<rect x="877" y="166" width="86" height="43" rx="4" fill="#F5F5F5" stroke="#D0D0D0" stroke-width="1" />
<text x="920" y="191" font-size="8" fill="#999999" font-weight="normal" text-anchor="middle">Python</text>
<rect x="697" y="213" width="86" height="43" rx="4" fill="#F5F5F5" stroke="#D0D0D0" stroke-width="1" />
<text x="740" y="238" font-size="8" fill="#999999" font-weight="normal" text-anchor="middle">논문</text>
<rect x="787" y="213" width="86" height="43" rx="4" fill="#D0D8E8" stroke="#BBBBBB" stroke-width="1" />
<text x="830" y="238" font-size="14" fill="#333" font-weight="normal" text-anchor="middle">🦊</text>
<rect x="877" y="213" width="86" height="43" rx="4" fill="#F5F5F5" stroke="#D0D0D0" stroke-width="1" />
<text x="920" y="238" font-size="8" fill="#999999" font-weight="normal" text-anchor="middle">프로젝트</text>
<rect x="697" y="260" width="86" height="43" rx="4" fill="#F5F5F5" stroke="#D0D0D0" stroke-width="1" />
<text x="740" y="285" font-size="8" fill="#999999" font-weight="normal" text-anchor="middle">커리어</text>
<rect x="787" y="260" width="86" height="43" rx="4" fill="#F5F5F5" stroke="#D0D0D0" stroke-width="1" />
<text x="830" y="285" font-size="8" fill="#999999" font-weight="normal" text-anchor="middle">Kaggle</text>
<rect x="877" y="260" width="86" height="43" rx="4" fill="#F5F5F5" stroke="#D0D0D0" stroke-width="1" />
<text x="920" y="285" font-size="8" fill="#999999" font-weight="normal" text-anchor="middle"></text>
<circle cx="830" cy="349" r="28" fill="#EBEBEB" stroke="#D0D0D0" stroke-width="1"/>
<text x="830" y="355" font-size="20" fill="#111111" font-weight="normal" text-anchor="middle">🦊</text>
<text x="830" y="389" font-size="14" fill="#111111" font-weight="bold" text-anchor="middle">AI/ML 전문가</text>
<text x="830" y="407" font-size="11" fill="#999999" font-weight="normal" text-anchor="middle">47장</text>
<rect x="770" y="419" width="40" height="18" rx="9" fill="#F5F5F5" stroke="#D0D0D0" stroke-width="1" />
<text x="790" y="431" font-size="9" fill="#555555" font-weight="normal" text-anchor="middle">#AI</text>
<rect x="818" y="419" width="40" height="18" rx="9" fill="#F5F5F5" stroke="#D0D0D0" stroke-width="1" />
<text x="838" y="431" font-size="9" fill="#555555" font-weight="normal" text-anchor="middle">#테크</text>
<rect x="1030" y="150" width="320" height="520" rx="10" fill="#FFFFFF" stroke="#D0D0D0" stroke-width="1" />
<rect x="1057" y="166" width="86" height="43" rx="4" fill="#F5F5F5" stroke="#D0D0D0" stroke-width="1" />
<text x="1100" y="191" font-size="8" fill="#999999" font-weight="normal" text-anchor="middle">비즈니스</text>
<rect x="1147" y="166" width="86" height="43" rx="4" fill="#F5F5F5" stroke="#D0D0D0" stroke-width="1" />
<text x="1190" y="191" font-size="8" fill="#999999" font-weight="normal" text-anchor="middle">발음</text>
<rect x="1237" y="166" width="86" height="43" rx="4" fill="#F5F5F5" stroke="#D0D0D0" stroke-width="1" />
<text x="1280" y="191" font-size="8" fill="#999999" font-weight="normal" text-anchor="middle">TED</text>
<rect x="1057" y="213" width="86" height="43" rx="4" fill="#F5F5F5" stroke="#D0D0D0" stroke-width="1" />
<text x="1100" y="238" font-size="8" fill="#999999" font-weight="normal" text-anchor="middle">스피킹</text>
<rect x="1147" y="213" width="86" height="43" rx="4" fill="#D0D8E8" stroke="#BBBBBB" stroke-width="1" />
<text x="1190" y="238" font-size="14" fill="#333" font-weight="normal" text-anchor="middle">🐢</text>
<rect x="1237" y="213" width="86" height="43" rx="4" fill="#F5F5F5" stroke="#D0D0D0" stroke-width="1" />
<text x="1280" y="238" font-size="8" fill="#999999" font-weight="normal" text-anchor="middle">리스닝</text>
<rect x="1057" y="260" width="86" height="43" rx="4" fill="#F5F5F5" stroke="#D0D0D0" stroke-width="1" />
<text x="1100" y="285" font-size="8" fill="#999999" font-weight="normal" text-anchor="middle">뉴스</text>
<rect x="1147" y="260" width="86" height="43" rx="4" fill="#F5F5F5" stroke="#D0D0D0" stroke-width="1" />
<text x="1190" y="285" font-size="8" fill="#999999" font-weight="normal" text-anchor="middle"></text>
<rect x="1237" y="260" width="86" height="43" rx="4" fill="#F5F5F5" stroke="#D0D0D0" stroke-width="1" />
<text x="1280" y="285" font-size="8" fill="#999999" font-weight="normal" text-anchor="middle"></text>
<circle cx="1190" cy="349" r="28" fill="#EBEBEB" stroke="#D0D0D0" stroke-width="1"/>
<text x="1190" y="355" font-size="20" fill="#111111" font-weight="normal" text-anchor="middle">🐢</text>
<text x="1190" y="389" font-size="14" fill="#111111" font-weight="bold" text-anchor="middle">영어</text>
<text x="1190" y="407" font-size="11" fill="#999999" font-weight="normal" text-anchor="middle">22장</text>
<rect x="1130" y="419" width="40" height="18" rx="9" fill="#F5F5F5" stroke="#D0D0D0" stroke-width="1" />
<text x="1150" y="431" font-size="9" fill="#555555" font-weight="normal" text-anchor="middle">#영어</text>
<rect x="1178" y="419" width="48" height="18" rx="9" fill="#F5F5F5" stroke="#D0D0D0" stroke-width="1" />
<text x="1202" y="431" font-size="9" fill="#555555" font-weight="normal" text-anchor="middle">#스피킹</text>
<rect x="1390" y="150" width="160" height="180" rx="10" fill="#FFFFFF" stroke="#D0D0D0" stroke-width="1" stroke-dasharray='5,3'/>
<text x="1470" y="240" font-size="11" fill="#999999" font-weight="normal" text-anchor="middle">+ 만다라 추가</text>
<text x="12" y="888" font-size="9" fill="#999999">[ WF-02 ] Lv.0 전체 만다라 · 아바타 카드 3개 · 미니 9×9 · Label 배지 · + 추가 버튼</text>
</svg>