<svg width="1440" height="900" viewBox="0 0 1440 900" xmlns="http://www.w3.org/2000/svg" style="background:#FFFFFF;font-family:Arial,sans-serif">
<rect x="0" y="0" width="1440" height="44" rx="0" fill="#F0F0F0" stroke="#D0D0D0" stroke-width="1" />
<rect x="14" y="11" width="22" height="22" rx="4" fill="#CCCCCC" stroke="#D0D0D0" stroke-width="1" />
<text x="42" y="28" font-size="13" fill="#111111" font-weight="bold" text-anchor="start">Insighta</text>
<rect x="100" y="14" width="28" height="16" rx="3" fill="#EBEBEB" stroke="#D0D0D0" stroke-width="1" />
<text x="103" y="26" font-size="9" fill="#555555" font-weight="normal" text-anchor="start">DEV</text>
<rect x="132" y="14" width="34" height="16" rx="3" fill="#EBEBEB" stroke="#D0D0D0" stroke-width="1" />
<text x="135" y="26" font-size="9" fill="#555555" font-weight="normal" text-anchor="start">BETA</text>
<rect x="480" y="9" width="480" height="26" rx="13" fill="#FFFFFF" stroke="#D0D0D0" stroke-width="1" />
<text x="498" y="27" font-size="11" fill="#999999" font-weight="normal" text-anchor="start">Search cards...  (⌘K)</text>
<text x="1230" y="28" font-size="11" fill="#555555" font-weight="normal" text-anchor="start">KO</text>
<circle cx="1278" cy="22" r="10" fill="#EBEBEB" stroke="#D0D0D0" stroke-width="1"/>
<circle cx="1416" cy="22" r="16" fill="#CCCCCC" stroke="#D0D0D0" stroke-width="1"/>
<text x="1410" y="26" font-size="10" fill="#111111" font-weight="bold" text-anchor="middle">JK</text>
<rect x="0" y="44" width="1440" height="52" rx="0" fill="#F7F7F7" stroke="#D0D0D0" stroke-width="1" />
<text x="14" y="57" font-size="9" fill="#999999" font-weight="normal" text-anchor="start">← 2025.03 포트폴리오</text>
<line x1="14" y1="82" x2="1426" y2="82" stroke="#BBBBBB" stroke-width="1" />
<rect x="274" y="66" width="8" height="5" rx="1" fill="#EBEBEB" stroke="#D0D0D0" stroke-width="1" />
<rect x="284" y="66" width="8" height="5" rx="1" fill="#D0D0D0" stroke="#D0D0D0" stroke-width="1" />
<circle cx="280" cy="82" r="4" fill="#EBEBEB" stroke="#BBBBBB" stroke-width="1"/>
<text x="280" y="62" font-size="7" fill="#999999" font-weight="normal" text-anchor="middle">AI관심</text>
<rect x="534" y="66" width="8" height="5" rx="1" fill="#EBEBEB" stroke="#D0D0D0" stroke-width="1" />
<rect x="544" y="66" width="8" height="5" rx="1" fill="#D0D0D0" stroke="#D0D0D0" stroke-width="1" />
<circle cx="540" cy="82" r="4" fill="#EBEBEB" stroke="#BBBBBB" stroke-width="1"/>
<text x="540" y="62" font-size="7" fill="#999999" font-weight="normal" text-anchor="middle">ETF집중</text>
<rect x="814" y="66" width="8" height="5" rx="1" fill="#EBEBEB" stroke="#D0D0D0" stroke-width="1" />
<rect x="824" y="66" width="8" height="5" rx="1" fill="#D0D0D0" stroke="#D0D0D0" stroke-width="1" />
<circle cx="820" cy="82" r="4" fill="#EBEBEB" stroke="#BBBBBB" stroke-width="1"/>
<text x="820" y="62" font-size="7" fill="#999999" font-weight="normal" text-anchor="middle">영어추가</text>
<rect x="1054" y="66" width="8" height="5" rx="1" fill="#EBEBEB" stroke="#D0D0D0" stroke-width="1" />
<rect x="1064" y="66" width="8" height="5" rx="1" fill="#D0D0D0" stroke="#D0D0D0" stroke-width="1" />
<circle cx="1060" cy="82" r="4" fill="#EBEBEB" stroke="#BBBBBB" stroke-width="1"/>
<text x="1060" y="62" font-size="7" fill="#999999" font-weight="normal" text-anchor="middle">포트폴리오</text>
<line x1="1420" y1="48" x2="1420" y2="94" stroke="#111111" stroke-width="2" />
<circle cx="1420" cy="92" r="5" fill="#111111" stroke="#FFFFFF" stroke-width="2"/>
<text x="1414" y="57" font-size="8" fill="#111111" font-weight="bold" text-anchor="end">현재</text>
<rect x="0" y="96" width="220" height="804" rx="0" fill="#F5F5F5" stroke="#D0D0D0" stroke-width="1" />
<rect x="0" y="96" width="220" height="46" rx="0" fill="#EBEBEB" stroke="#D0D0D0" stroke-width="1" />
<text x="12" y="114" font-size="12" fill="#111111" font-weight="bold" text-anchor="start">Ideation</text>
<rect x="78" y="108" width="30" height="16" rx="8" fill="#DDDDDD" stroke="#D0D0D0" stroke-width="1" />
<text x="83" y="120" font-size="9" fill="#555555" font-weight="normal" text-anchor="start">586</text>
<rect x="112" y="108" width="26" height="16" rx="4" fill="#FFFFFF" stroke="#D0D0D0" stroke-width="1" />
<text x="116" y="120" font-size="9" fill="#555555" font-weight="normal" text-anchor="start">AI</text>
<text x="200" y="114" font-size="11" fill="#999999" font-weight="normal" text-anchor="start">⤢</text>
<text x="12" y="130" font-size="9" fill="#999999" font-weight="normal" text-anchor="start">∞ 시간 초월 카드</text>
<rect x="0" y="142" width="220" height="26" rx="0" fill="#EBEBEB" stroke="#D0D0D0" stroke-width="1" />
<rect x="6" y="146" width="30" height="18" rx="9" fill="#CCCCCC" stroke="#D0D0D0" stroke-width="1" />
<text x="14" y="158" font-size="8" fill="#111111" font-weight="normal" text-anchor="start">전체</text>
<rect x="40" y="146" width="37" height="18" rx="9" fill="#FFFFFF" stroke="#D0D0D0" stroke-width="1" />
<circle cx="48" cy="155" r="3" fill="#4488CC" stroke="#4488CC" stroke-width="1"/>
<text x="54" y="158" font-size="8" fill="#555555" font-weight="normal" text-anchor="start">#테크</text>
<rect x="81" y="146" width="37" height="18" rx="9" fill="#FFFFFF" stroke="#D0D0D0" stroke-width="1" />
<circle cx="89" cy="155" r="3" fill="#CC8800" stroke="#CC8800" stroke-width="1"/>
<text x="95" y="158" font-size="8" fill="#555555" font-weight="normal" text-anchor="start">#투자</text>
<rect x="122" y="146" width="37" height="18" rx="9" fill="#FFFFFF" stroke="#D0D0D0" stroke-width="1" />
<circle cx="130" cy="155" r="3" fill="#338866" stroke="#338866" stroke-width="1"/>
<text x="136" y="158" font-size="8" fill="#555555" font-weight="normal" text-anchor="start">#경제</text>
<rect x="6" y="174" width="101" height="76" rx="6" fill="#FFFFFF" stroke="#D0D0D0" stroke-width="1" />
<rect x="6" y="174" width="101" height="42" rx="6" fill="#1a2a3a" stroke="#D0D0D0" stroke-width="1" />
<rect x="6" y="174" width="101" height="36" rx="0" fill="#1a2a3a" stroke="none" stroke-width="1" />
<rect x="89" y="177" width="16" height="10" rx="2" fill="#00000066" stroke="none" stroke-width="1" />
<text x="91" y="185" font-size="6" fill="#FFFFFF" font-weight="normal" text-anchor="start">YT</text>
<text x="10" y="222" font-size="8" fill="#111111" font-weight="normal" text-anchor="start">테슬라 차세대</text>
<circle cx="12" cy="242" r="3" fill="#4488CC" stroke="#4488CC" stroke-width="1"/>
<rect x="113" y="174" width="101" height="76" rx="6" fill="#FFFFFF" stroke="#D0D0D0" stroke-width="1" />
<rect x="113" y="174" width="101" height="42" rx="6" fill="#2a1a3a" stroke="#D0D0D0" stroke-width="1" />
<rect x="113" y="174" width="101" height="36" rx="0" fill="#2a1a3a" stroke="none" stroke-width="1" />
<rect x="196" y="177" width="16" height="10" rx="2" fill="#00000066" stroke="none" stroke-width="1" />
<text x="198" y="185" font-size="6" fill="#FFFFFF" font-weight="normal" text-anchor="start">YT</text>
<text x="117" y="222" font-size="8" fill="#111111" font-weight="normal" text-anchor="start">엔비디아 양자</text>
<circle cx="119" cy="242" r="3" fill="#4488CC" stroke="#4488CC" stroke-width="1"/>
<rect x="6" y="254" width="101" height="76" rx="6" fill="#FFFFFF" stroke="#D0D0D0" stroke-width="1" />
<rect x="6" y="254" width="101" height="42" rx="6" fill="#3a2a1a" stroke="#D0D0D0" stroke-width="1" />
<rect x="6" y="254" width="101" height="36" rx="0" fill="#3a2a1a" stroke="none" stroke-width="1" />
<rect x="89" y="257" width="16" height="10" rx="2" fill="#00000066" stroke="none" stroke-width="1" />
<text x="91" y="265" font-size="6" fill="#FFFFFF" font-weight="normal" text-anchor="start">YT</text>
<text x="10" y="302" font-size="8" fill="#111111" font-weight="normal" text-anchor="start">아이온큐 전망</text>
<circle cx="12" cy="322" r="3" fill="#CC8800" stroke="#CC8800" stroke-width="1"/>
<rect x="113" y="254" width="101" height="76" rx="6" fill="#FFFFFF" stroke="#D0D0D0" stroke-width="1" />
<rect x="113" y="254" width="101" height="42" rx="6" fill="#1a3a2a" stroke="#D0D0D0" stroke-width="1" />
<rect x="113" y="254" width="101" height="36" rx="0" fill="#1a3a2a" stroke="none" stroke-width="1" />
<rect x="196" y="257" width="16" height="10" rx="2" fill="#00000066" stroke="none" stroke-width="1" />
<text x="198" y="265" font-size="6" fill="#FFFFFF" font-weight="normal" text-anchor="start">YT</text>
<text x="117" y="302" font-size="8" fill="#111111" font-weight="normal" text-anchor="start">팔란티어 분석</text>
<circle cx="119" cy="322" r="3" fill="#CC8800" stroke="#CC8800" stroke-width="1"/>
<rect x="6" y="334" width="101" height="76" rx="6" fill="#FFFFFF" stroke="#D0D0D0" stroke-width="1" />
<rect x="6" y="334" width="101" height="42" rx="6" fill="#1a1a3a" stroke="#D0D0D0" stroke-width="1" />
<rect x="6" y="334" width="101" height="36" rx="0" fill="#1a1a3a" stroke="none" stroke-width="1" />
<rect x="89" y="337" width="16" height="10" rx="2" fill="#00000066" stroke="none" stroke-width="1" />
<text x="91" y="345" font-size="6" fill="#FFFFFF" font-weight="normal" text-anchor="start">YT</text>
<text x="10" y="382" font-size="8" fill="#111111" font-weight="normal" text-anchor="start">유상증자 이슈</text>
<circle cx="12" cy="402" r="3" fill="#338866" stroke="#338866" stroke-width="1"/>
<rect x="113" y="334" width="101" height="76" rx="6" fill="#FFFFFF" stroke="#D0D0D0" stroke-width="1" />
<rect x="113" y="334" width="101" height="42" rx="6" fill="#2a3a1a" stroke="#D0D0D0" stroke-width="1" />
<rect x="113" y="334" width="101" height="36" rx="0" fill="#2a3a1a" stroke="none" stroke-width="1" />
<rect x="196" y="337" width="16" height="10" rx="2" fill="#00000066" stroke="none" stroke-width="1" />
<text x="198" y="345" font-size="6" fill="#FFFFFF" font-weight="normal" text-anchor="start">YT</text>
<text x="117" y="382" font-size="8" fill="#111111" font-weight="normal" text-anchor="start">딥시크 영향</text>
<circle cx="119" cy="402" r="3" fill="#4488CC" stroke="#4488CC" stroke-width="1"/>
<rect x="6" y="414" width="101" height="76" rx="6" fill="#FFFFFF" stroke="#D0D0D0" stroke-width="1" />
<rect x="6" y="414" width="101" height="42" rx="6" fill="#3a1a2a" stroke="#D0D0D0" stroke-width="1" />
<rect x="6" y="414" width="101" height="36" rx="0" fill="#3a1a2a" stroke="none" stroke-width="1" />
<rect x="89" y="417" width="16" height="10" rx="2" fill="#00000066" stroke="none" stroke-width="1" />
<text x="91" y="425" font-size="6" fill="#FFFFFF" font-weight="normal" text-anchor="start">YT</text>
<text x="10" y="462" font-size="8" fill="#111111" font-weight="normal" text-anchor="start">2025 전망</text>
<circle cx="12" cy="482" r="3" fill="#CC8800" stroke="#CC8800" stroke-width="1"/>
<rect x="113" y="414" width="101" height="76" rx="6" fill="#FFFFFF" stroke="#D0D0D0" stroke-width="1" />
<rect x="113" y="414" width="101" height="42" rx="6" fill="#1a3a3a" stroke="#D0D0D0" stroke-width="1" />
<rect x="113" y="414" width="101" height="36" rx="0" fill="#1a3a3a" stroke="none" stroke-width="1" />
<rect x="196" y="417" width="16" height="10" rx="2" fill="#00000066" stroke="none" stroke-width="1" />
<text x="198" y="425" font-size="6" fill="#FFFFFF" font-weight="normal" text-anchor="start">ART</text>
<text x="117" y="462" font-size="8" fill="#111111" font-weight="normal" text-anchor="start">금리 시나리오</text>
<circle cx="119" cy="482" r="3" fill="#338866" stroke="#338866" stroke-width="1"/>
<rect x="0" y="876" width="220" height="24" rx="0" fill="#EBEBEB" stroke="#D0D0D0" stroke-width="1" />
<text x="20" y="890" font-size="9" fill="#999999" font-weight="normal" text-anchor="start">드래그 → 섹터에 배치</text>
<rect x="220" y="96" width="1220" height="30" rx="0" fill="#FFFFFF" stroke="#D0D0D0" stroke-width="1" />
<text x="232" y="116" font-size="11" fill="#999999" font-weight="normal" text-anchor="start">전체 만다라</text>
<text x="280" y="116" font-size="11" fill="#BBBBBB" font-weight="normal" text-anchor="start">/</text>
<text x="292" y="116" font-size="11" fill="#111111" font-weight="bold" text-anchor="start">투자</text>
<text x="1120" y="116" font-size="9" fill="#999999" font-weight="normal" text-anchor="start">Lv.1</text>
<line x1="1150" y1="111" x2="1250" y2="111" stroke="#BBBBBB" stroke-width="3" />
<circle cx="1200" cy="111" r="6" fill="#111111" stroke="#FFFFFF" stroke-width="2"/>
<text x="1260" y="116" font-size="9" fill="#999999" font-weight="normal" text-anchor="start">섹터</text>
<rect x="1300" y="101" width="24" height="22" rx="4" fill="#EBEBEB" stroke="#D0D0D0" stroke-width="1" />
<text x="1312" y="116" font-size="11" fill="#555555" font-weight="normal" text-anchor="middle">⊞</text>
<rect x="1328" y="101" width="24" height="22" rx="4" fill="#FFFFFF" stroke="#D0D0D0" stroke-width="1" />
<text x="1340" y="116" font-size="11" fill="#555555" font-weight="normal" text-anchor="middle">≡</text>
<rect x="1356" y="101" width="24" height="22" rx="4" fill="#FFFFFF" stroke="#D0D0D0" stroke-width="1" />
<text x="1368" y="116" font-size="11" fill="#555555" font-weight="normal" text-anchor="middle">◫</text>
<rect x="1384" y="101" width="24" height="22" rx="4" fill="#FFFFFF" stroke="#D0D0D0" stroke-width="1" />
<text x="1396" y="116" font-size="11" fill="#555555" font-weight="normal" text-anchor="middle">⊕</text>
<rect x="228" y="134" width="406" height="216" rx="8" fill="#F5F5F5" stroke="#D0D0D0" stroke-width="1" />
<text x="238" y="152" font-size="11" fill="#111111" font-weight="bold" text-anchor="start">기시경제</text>
<text x="624" y="152" font-size="10" fill="#999999" font-weight="normal" text-anchor="end">3장</text>
<text x="626" y="150" font-size="9" fill="#999999" font-weight="normal" text-anchor="end">⤢</text>
<rect x="238" y="162" width="191" height="78" rx="4" fill="#EBEBEB" stroke="#D0D0D0" stroke-width="1" />
<text x="333" y="205" font-size="9" fill="#555555" font-weight="normal" text-anchor="middle">연준 금리</text>
<rect x="433" y="162" width="191" height="78" rx="4" fill="#EBEBEB" stroke="#D0D0D0" stroke-width="1" />
<text x="528" y="205" font-size="9" fill="#555555" font-weight="normal" text-anchor="middle">인플레</text>
<rect x="238" y="244" width="191" height="78" rx="4" fill="#EBEBEB" stroke="#D0D0D0" stroke-width="1" />
<text x="333" y="287" font-size="9" fill="#555555" font-weight="normal" text-anchor="middle">GDP</text>
<rect x="433" y="244" width="191" height="78" rx="4" fill="#FFFFFF" stroke="#D0D0D0" stroke-width="1" stroke-dasharray='5,3'/>
<circle cx="238" cy="340" r="4" fill="#4488CC" stroke="#4488CC" stroke-width="1"/>
<circle cx="248" cy="340" r="4" fill="#EBEBEB" stroke="#D0D0D0" stroke-width="1"/>
<rect x="642" y="134" width="406" height="216" rx="8" fill="#F5F5F5" stroke="#D0D0D0" stroke-width="1" />
<text x="652" y="152" font-size="11" fill="#111111" font-weight="bold" text-anchor="start">주식투자</text>
<text x="1038" y="152" font-size="10" fill="#999999" font-weight="normal" text-anchor="end">12장</text>
<text x="1040" y="150" font-size="9" fill="#999999" font-weight="normal" text-anchor="end">⤢</text>
<rect x="652" y="162" width="191" height="78" rx="4" fill="#EBEBEB" stroke="#D0D0D0" stroke-width="1" />
<text x="747" y="205" font-size="9" fill="#555555" font-weight="normal" text-anchor="middle">테슬라</text>
<rect x="847" y="162" width="191" height="78" rx="4" fill="#EBEBEB" stroke="#D0D0D0" stroke-width="1" />
<text x="942" y="205" font-size="9" fill="#555555" font-weight="normal" text-anchor="middle">엔비디아</text>
<rect x="652" y="244" width="191" height="78" rx="4" fill="#EBEBEB" stroke="#D0D0D0" stroke-width="1" />
<text x="747" y="287" font-size="9" fill="#555555" font-weight="normal" text-anchor="middle">팔란티어</text>
<rect x="847" y="244" width="191" height="78" rx="4" fill="#DDDDDD" stroke="#D0D0D0" stroke-width="1" />
<text x="942" y="287" font-size="11" fill="#555555" font-weight="bold" text-anchor="middle">+9</text>
<circle cx="652" cy="340" r="4" fill="#4488CC" stroke="#4488CC" stroke-width="1"/>
<circle cx="662" cy="340" r="4" fill="#EBEBEB" stroke="#D0D0D0" stroke-width="1"/>
<rect x="1056" y="134" width="406" height="216" rx="8" fill="#F5F5F5" stroke="#D0D0D0" stroke-width="1" />
<text x="1066" y="152" font-size="11" fill="#111111" font-weight="bold" text-anchor="start">자산분배</text>
<rect x="1410" y="140" width="46" height="16" rx="3" fill="#EBEBEB" stroke="#D0D0D0" stroke-width="1" />
<text x="1414" y="151" font-size="8" fill="#555555" font-weight="normal" text-anchor="start">9×9↓</text>
<text x="1454" y="150" font-size="9" fill="#999999" font-weight="normal" text-anchor="end">⤢</text>
<rect x="1066" y="162" width="191" height="78" rx="4" fill="#EBEBEB" stroke="#D0D0D0" stroke-width="1" />
<text x="1161" y="205" font-size="9" fill="#555555" font-weight="normal" text-anchor="middle">주식60%</text>
<rect x="1261" y="162" width="191" height="78" rx="4" fill="#EBEBEB" stroke="#D0D0D0" stroke-width="1" />
<text x="1356" y="205" font-size="9" fill="#555555" font-weight="normal" text-anchor="middle">채권20%</text>
<rect x="1066" y="244" width="191" height="78" rx="4" fill="#EBEBEB" stroke="#D0D0D0" stroke-width="1" />
<text x="1161" y="287" font-size="9" fill="#555555" font-weight="normal" text-anchor="middle">부동산</text>
<rect x="1261" y="244" width="191" height="78" rx="4" fill="#EBEBEB" stroke="#D0D0D0" stroke-width="1" />
<text x="1356" y="287" font-size="9" fill="#555555" font-weight="normal" text-anchor="middle">원자재</text>
<circle cx="1066" cy="340" r="4" fill="#CC8800" stroke="#CC8800" stroke-width="1"/>
<circle cx="1076" cy="340" r="4" fill="#EBEBEB" stroke="#D0D0D0" stroke-width="1"/>
<rect x="228" y="358" width="406" height="216" rx="8" fill="#F5F5F5" stroke="#D0D0D0" stroke-width="1" />
<text x="238" y="376" font-size="11" fill="#111111" font-weight="bold" text-anchor="start">ETF</text>
<text x="624" y="376" font-size="10" fill="#999999" font-weight="normal" text-anchor="end">8장</text>
<text x="626" y="374" font-size="9" fill="#999999" font-weight="normal" text-anchor="end">⤢</text>
<rect x="238" y="386" width="191" height="78" rx="4" fill="#EBEBEB" stroke="#D0D0D0" stroke-width="1" />
<text x="333" y="429" font-size="9" fill="#555555" font-weight="normal" text-anchor="middle">SPY</text>
<rect x="433" y="386" width="191" height="78" rx="4" fill="#EBEBEB" stroke="#D0D0D0" stroke-width="1" />
<text x="528" y="429" font-size="9" fill="#555555" font-weight="normal" text-anchor="middle">QQQ</text>
<rect x="238" y="468" width="191" height="78" rx="4" fill="#EBEBEB" stroke="#D0D0D0" stroke-width="1" />
<text x="333" y="511" font-size="9" fill="#555555" font-weight="normal" text-anchor="middle">VTI</text>
<rect x="433" y="468" width="191" height="78" rx="4" fill="#DDDDDD" stroke="#D0D0D0" stroke-width="1" />
<text x="528" y="511" font-size="11" fill="#555555" font-weight="bold" text-anchor="middle">+5</text>
<circle cx="238" cy="564" r="4" fill="#338866" stroke="#338866" stroke-width="1"/>
<circle cx="248" cy="564" r="4" fill="#EBEBEB" stroke="#D0D0D0" stroke-width="1"/>
<rect x="642" y="358" width="406" height="216" rx="8" fill="#D0D8E8" stroke="#BBBBBB" stroke-width="1.5" />
<text x="845" y="456" font-size="28" fill="#111111" font-weight="normal" text-anchor="middle">🐱</text>
<rect x="1056" y="358" width="406" height="216" rx="8" fill="#F5F5F5" stroke="#D0D0D0" stroke-width="1" />
<text x="1066" y="376" font-size="11" fill="#111111" font-weight="bold" text-anchor="start">크립토</text>
<text x="1452" y="376" font-size="10" fill="#999999" font-weight="normal" text-anchor="end">2장</text>
<text x="1454" y="374" font-size="9" fill="#999999" font-weight="normal" text-anchor="end">⤢</text>
<rect x="1066" y="386" width="191" height="78" rx="4" fill="#EBEBEB" stroke="#D0D0D0" stroke-width="1" />
<text x="1161" y="429" font-size="9" fill="#555555" font-weight="normal" text-anchor="middle">BTC</text>
<rect x="1261" y="386" width="191" height="78" rx="4" fill="#EBEBEB" stroke="#D0D0D0" stroke-width="1" />
<text x="1356" y="429" font-size="9" fill="#555555" font-weight="normal" text-anchor="middle">ETH</text>
<rect x="1066" y="468" width="191" height="78" rx="4" fill="#FFFFFF" stroke="#D0D0D0" stroke-width="1" stroke-dasharray='5,3'/>
<rect x="1261" y="468" width="191" height="78" rx="4" fill="#FFFFFF" stroke="#D0D0D0" stroke-width="1" stroke-dasharray='5,3'/>
<circle cx="1066" cy="564" r="4" fill="#EBEBEB" stroke="#D0D0D0" stroke-width="1"/>
<rect x="228" y="582" width="406" height="216" rx="8" fill="#FFFFFF" stroke="#D0D0D0" stroke-width="1" stroke-dasharray='5,3'/>
<text x="238" y="600" font-size="11" fill="#111111" font-weight="bold" text-anchor="start">은퇴설계</text>
<text x="624" y="600" font-size="10" fill="#999999" font-weight="normal" text-anchor="end">0장</text>
<text x="626" y="598" font-size="9" fill="#999999" font-weight="normal" text-anchor="end">⤢</text>
<rect x="642" y="582" width="406" height="216" rx="8" fill="#F5F5F5" stroke="#D0D0D0" stroke-width="1" />
<text x="652" y="600" font-size="11" fill="#111111" font-weight="bold" text-anchor="start">실물자산</text>
<text x="1038" y="600" font-size="10" fill="#999999" font-weight="normal" text-anchor="end">1장</text>
<text x="1040" y="598" font-size="9" fill="#999999" font-weight="normal" text-anchor="end">⤢</text>
<rect x="652" y="610" width="191" height="78" rx="4" fill="#EBEBEB" stroke="#D0D0D0" stroke-width="1" />
<text x="747" y="653" font-size="9" fill="#555555" font-weight="normal" text-anchor="middle">금 ETF</text>
<rect x="847" y="610" width="191" height="78" rx="4" fill="#FFFFFF" stroke="#D0D0D0" stroke-width="1" stroke-dasharray='5,3'/>
<rect x="652" y="692" width="191" height="78" rx="4" fill="#FFFFFF" stroke="#D0D0D0" stroke-width="1" stroke-dasharray='5,3'/>
<rect x="847" y="692" width="191" height="78" rx="4" fill="#FFFFFF" stroke="#D0D0D0" stroke-width="1" stroke-dasharray='5,3'/>
<circle cx="652" cy="788" r="4" fill="#EBEBEB" stroke="#D0D0D0" stroke-width="1"/>
<rect x="1056" y="582" width="406" height="216" rx="8" fill="#F5F5F5" stroke="#D0D0D0" stroke-width="1" />
<text x="1066" y="600" font-size="11" fill="#111111" font-weight="bold" text-anchor="start">시장전망</text>
<text x="1452" y="600" font-size="10" fill="#999999" font-weight="normal" text-anchor="end">4장</text>
<text x="1454" y="598" font-size="9" fill="#999999" font-weight="normal" text-anchor="end">⤢</text>
<rect x="1066" y="610" width="191" height="78" rx="4" fill="#EBEBEB" stroke="#D0D0D0" stroke-width="1" />
<text x="1161" y="653" font-size="9" fill="#555555" font-weight="normal" text-anchor="middle">2025</text>
<rect x="1261" y="610" width="191" height="78" rx="4" fill="#EBEBEB" stroke="#D0D0D0" stroke-width="1" />
<text x="1356" y="653" font-size="9" fill="#555555" font-weight="normal" text-anchor="middle">금리</text>
<rect x="1066" y="692" width="191" height="78" rx="4" fill="#EBEBEB" stroke="#D0D0D0" stroke-width="1" />
<text x="1161" y="735" font-size="9" fill="#555555" font-weight="normal" text-anchor="middle">달러</text>
<rect x="1261" y="692" width="191" height="78" rx="4" fill="#DDDDDD" stroke="#D0D0D0" stroke-width="1" />
<text x="1356" y="735" font-size="11" fill="#555555" font-weight="bold" text-anchor="middle">+1</text>
<circle cx="1066" cy="788" r="4" fill="#CC8800" stroke="#CC8800" stroke-width="1"/>
<circle cx="1076" cy="788" r="4" fill="#EBEBEB" stroke="#D0D0D0" stroke-width="1"/>
<rect x="350" y="200" width="740" height="460" rx="12" fill="#FFFFFF" stroke="#BBBBBB" stroke-width="1.5" />
<rect x="350" y="200" width="740" height="52" rx="12" fill="#EBEBEB" stroke="#D0D0D0" stroke-width="1" />
<rect x="350" y="244" width="740" height="8" rx="0" fill="#EBEBEB" stroke="none" stroke-width="1" />
<text x="366" y="224" font-size="14" fill="#111111" font-weight="bold" text-anchor="start">AI 분류 제안</text>
<text x="510" y="224" font-size="11" fill="#999999" font-weight="normal" text-anchor="start">12개 카드 분류됨</text>
<rect x="1000" y="214" width="80" height="26" rx="6" fill="#111111" stroke="none" stroke-width="1" />
<text x="1040" y="230" font-size="10" fill="#FFFFFF" font-weight="bold" text-anchor="middle">전체 수락</text>
<rect x="362" y="260" width="716" height="80" rx="8" fill="#F0FFF0" stroke="#44AA44" stroke-width="1" />
<rect x="370" y="268" width="48" height="32" rx="4" fill="#1a2a3a" stroke="none" stroke-width="1" />
<text x="428" y="280" font-size="10" fill="#111111" font-weight="bold" text-anchor="start">테슬라 차세대 문명의 시작</text>
<text x="428" y="294" font-size="9" fill="#999999" font-weight="normal" text-anchor="start">YouTube</text>
<text x="690" y="284" font-size="14" fill="#555555" font-weight="bold" text-anchor="middle">→</text>
<rect x="710" y="272" width="100" height="28" rx="6" fill="#EBEBEB" stroke="#D0D0D0" stroke-width="1" />
<circle cx="722" cy="286" r="4" fill="#4488CC" stroke="#4488CC" stroke-width="1"/>
<text x="732" y="290" font-size="10" fill="#111111" font-weight="normal" text-anchor="start">주식투자</text>
<circle cx="1054" cy="286" r="12" fill="#44AA44" stroke="#44AA44" stroke-width="1"/>
<text x="1054" y="290" font-size="10" fill="#FFFFFF" font-weight="bold" text-anchor="middle">✓</text>
<rect x="362" y="348" width="716" height="80" rx="8" fill="#F5F5F5" stroke="#D0D0D0" stroke-width="1" />
<rect x="370" y="356" width="48" height="32" rx="4" fill="#2a1a3a" stroke="none" stroke-width="1" />
<text x="428" y="368" font-size="10" fill="#111111" font-weight="bold" text-anchor="start">엔비디아 양자컴퓨팅 전략</text>
<text x="428" y="382" font-size="9" fill="#999999" font-weight="normal" text-anchor="start">YouTube</text>
<text x="690" y="372" font-size="14" fill="#555555" font-weight="bold" text-anchor="middle">→</text>
<rect x="710" y="360" width="100" height="28" rx="6" fill="#EBEBEB" stroke="#D0D0D0" stroke-width="1" />
<circle cx="722" cy="374" r="4" fill="#4488CC" stroke="#4488CC" stroke-width="1"/>
<text x="732" y="378" font-size="10" fill="#111111" font-weight="normal" text-anchor="start">기시경제</text>
<circle cx="1034" cy="374" r="12" fill="#FFFFFF" stroke="#D0D0D0" stroke-width="1"/>
<text x="1034" y="378" font-size="10" fill="#999999" font-weight="normal" text-anchor="middle">✓</text>
<circle cx="1060" cy="374" r="12" fill="#FFFFFF" stroke="#D0D0D0" stroke-width="1"/>
<text x="1060" y="378" font-size="10" fill="#999999" font-weight="normal" text-anchor="middle">✕</text>
<rect x="362" y="436" width="716" height="80" rx="8" fill="#F5F5F5" stroke="#D0D0D0" stroke-width="1" />
<rect x="370" y="444" width="48" height="32" rx="4" fill="#3a2a1a" stroke="none" stroke-width="1" />
<text x="428" y="456" font-size="10" fill="#111111" font-weight="bold" text-anchor="start">아이온큐 10년 전망 분석</text>
<text x="428" y="470" font-size="9" fill="#999999" font-weight="normal" text-anchor="start">YouTube</text>
<text x="690" y="460" font-size="14" fill="#555555" font-weight="bold" text-anchor="middle">→</text>
<rect x="710" y="448" width="100" height="28" rx="6" fill="#EBEBEB" stroke="#D0D0D0" stroke-width="1" />
<circle cx="722" cy="462" r="4" fill="#338866" stroke="#338866" stroke-width="1"/>
<text x="732" y="466" font-size="10" fill="#111111" font-weight="normal" text-anchor="start">ETF</text>
<circle cx="1034" cy="462" r="12" fill="#FFFFFF" stroke="#D0D0D0" stroke-width="1"/>
<text x="1034" y="466" font-size="10" fill="#999999" font-weight="normal" text-anchor="middle">✓</text>
<circle cx="1060" cy="462" r="12" fill="#FFFFFF" stroke="#D0D0D0" stroke-width="1"/>
<text x="1060" y="466" font-size="10" fill="#999999" font-weight="normal" text-anchor="middle">✕</text>
<rect x="362" y="524" width="716" height="80" rx="8" fill="#F0FFF0" stroke="#44AA44" stroke-width="1" />
<rect x="370" y="532" width="48" height="32" rx="4" fill="#1a1a3a" stroke="none" stroke-width="1" />
<text x="428" y="544" font-size="10" fill="#111111" font-weight="bold" text-anchor="start">팔란티어 경쟁자가 없나요?</text>
<text x="428" y="558" font-size="9" fill="#999999" font-weight="normal" text-anchor="start">YouTube</text>
<text x="690" y="548" font-size="14" fill="#555555" font-weight="bold" text-anchor="middle">→</text>
<rect x="710" y="536" width="100" height="28" rx="6" fill="#EBEBEB" stroke="#D0D0D0" stroke-width="1" />
<circle cx="722" cy="550" r="4" fill="#4488CC" stroke="#4488CC" stroke-width="1"/>
<text x="732" y="554" font-size="10" fill="#111111" font-weight="normal" text-anchor="start">주식투자</text>
<circle cx="1054" cy="550" r="12" fill="#44AA44" stroke="#44AA44" stroke-width="1"/>
<text x="1054" y="554" font-size="10" fill="#FFFFFF" font-weight="bold" text-anchor="middle">✓</text>
<text x="12" y="888" font-size="9" fill="#999999">[ WF-14 ] AI 자동 분류 리뷰 · 카드 목록 제안 → 섹터 · 수락/거부 · 전체 수락 버튼</text>
</svg>