<svg width="1440" height="900" viewBox="0 0 1440 900" xmlns="http://www.w3.org/2000/svg" style="background:#FFFFFF;font-family:Arial,sans-serif">
<rect x="0" y="0" width="1440" height="44" rx="0" fill="#F0F0F0" stroke="#D0D0D0" stroke-width="1" />
<rect x="14" y="11" width="22" height="22" rx="4" fill="#CCCCCC" stroke="#D0D0D0" stroke-width="1" />
<text x="42" y="28" font-size="13" fill="#111111" font-weight="bold" text-anchor="start">Insighta</text>
<rect x="100" y="14" width="28" height="16" rx="3" fill="#EBEBEB" stroke="#D0D0D0" stroke-width="1" />
<text x="103" y="26" font-size="9" fill="#555555" font-weight="normal" text-anchor="start">DEV</text>
<rect x="132" y="14" width="34" height="16" rx="3" fill="#EBEBEB" stroke="#D0D0D0" stroke-width="1" />
<text x="135" y="26" font-size="9" fill="#555555" font-weight="normal" text-anchor="start">BETA</text>
<rect x="480" y="9" width="480" height="26" rx="13" fill="#FFFFFF" stroke="#D0D0D0" stroke-width="1" />
<text x="498" y="27" font-size="11" fill="#999999" font-weight="normal" text-anchor="start">Search cards...  (⌘K)</text>
<text x="1230" y="28" font-size="11" fill="#555555" font-weight="normal" text-anchor="start">KO</text>
<circle cx="1278" cy="22" r="10" fill="#EBEBEB" stroke="#D0D0D0" stroke-width="1"/>
<circle cx="1416" cy="22" r="16" fill="#CCCCCC" stroke="#D0D0D0" stroke-width="1"/>
<text x="1410" y="26" font-size="10" fill="#111111" font-weight="bold" text-anchor="middle">JK</text>
<rect x="0" y="44" width="1440" height="52" rx="0" fill="#F0F0F0" stroke="#D0D0D0" stroke-width="1" />
<text x="14" y="57" font-size="9" fill="#999999" font-weight="normal" text-anchor="start">← 2024.04 AI관심</text>
<line x1="14" y1="82" x2="1426" y2="82" stroke="#BBBBBB" stroke-width="1" />
<circle cx="280" cy="82" r="4" fill="#EBEBEB" stroke="#BBBBBB" stroke-width="1"/>
<text x="280" y="62" font-size="7" fill="#999999" font-weight="normal" text-anchor="middle">AI관심</text>
<circle cx="540" cy="82" r="4" fill="#EBEBEB" stroke="#BBBBBB" stroke-width="1"/>
<text x="540" y="62" font-size="7" fill="#999999" font-weight="normal" text-anchor="middle">ETF집중</text>
<circle cx="820" cy="82" r="4" fill="#EBEBEB" stroke="#BBBBBB" stroke-width="1"/>
<text x="820" y="62" font-size="7" fill="#999999" font-weight="normal" text-anchor="middle">영어추가</text>
<circle cx="1060" cy="82" r="4" fill="#EBEBEB" stroke="#BBBBBB" stroke-width="1"/>
<text x="1060" y="62" font-size="7" fill="#999999" font-weight="normal" text-anchor="middle">포트폴리오</text>
<circle cx="280" cy="82" r="6" fill="#111111" stroke="#FFFFFF" stroke-width="2"/>
<text x="280" y="57" font-size="8" fill="#111111" font-weight="bold" text-anchor="middle">2024.04</text>
<line x1="280" y1="48" x2="280" y2="94" stroke="#111111" stroke-width="2" />
<rect x="0" y="96" width="1440" height="28" rx="0" fill="#FFF3D0" stroke="#DDAA00" stroke-width="1" />
<text x="12" y="114" font-size="11" fill="#886600" font-weight="bold" text-anchor="start">READ ONLY — 2024.04 시점  |  과거 상태를 보는 중  |</text>
<rect x="1280" y="101" width="150" height="20" rx="10" fill="#111111" stroke="none" stroke-width="1" />
<text x="1355" y="114" font-size="9" fill="#FFFFFF" font-weight="bold" text-anchor="middle">현재로 돌아가기 →</text>
<rect x="0" y="124" width="220" height="776" rx="0" fill="#F5F5F5" stroke="#D0D0D0" stroke-width="1" />
<rect x="0" y="124" width="220" height="46" rx="0" fill="#EBEBEB" stroke="#D0D0D0" stroke-width="1" />
<text x="12" y="142" font-size="12" fill="#111111" font-weight="bold" text-anchor="start">Ideation</text>
<rect x="78" y="136" width="30" height="16" rx="8" fill="#DDDDDD" stroke="#D0D0D0" stroke-width="1" />
<text x="83" y="148" font-size="9" fill="#555555" font-weight="normal" text-anchor="start">586</text>
<rect x="112" y="136" width="26" height="16" rx="4" fill="#FFFFFF" stroke="#D0D0D0" stroke-width="1" />
<text x="116" y="148" font-size="9" fill="#555555" font-weight="normal" text-anchor="start">AI</text>
<text x="200" y="142" font-size="11" fill="#999999" font-weight="normal" text-anchor="start">⤢</text>
<text x="12" y="158" font-size="9" fill="#999999" font-weight="normal" text-anchor="start">∞ 시간 초월 카드</text>
<rect x="0" y="170" width="220" height="26" rx="0" fill="#EBEBEB" stroke="#D0D0D0" stroke-width="1" />
<rect x="6" y="174" width="30" height="18" rx="9" fill="#CCCCCC" stroke="#D0D0D0" stroke-width="1" />
<text x="14" y="186" font-size="8" fill="#111111" font-weight="normal" text-anchor="start">전체</text>
<rect x="40" y="174" width="37" height="18" rx="9" fill="#FFFFFF" stroke="#D0D0D0" stroke-width="1" />
<circle cx="48" cy="183" r="3" fill="#4488CC" stroke="#4488CC" stroke-width="1"/>
<text x="54" y="186" font-size="8" fill="#555555" font-weight="normal" text-anchor="start">#테크</text>
<rect x="81" y="174" width="37" height="18" rx="9" fill="#FFFFFF" stroke="#D0D0D0" stroke-width="1" />
<circle cx="89" cy="183" r="3" fill="#CC8800" stroke="#CC8800" stroke-width="1"/>
<text x="95" y="186" font-size="8" fill="#555555" font-weight="normal" text-anchor="start">#투자</text>
<rect x="122" y="174" width="37" height="18" rx="9" fill="#FFFFFF" stroke="#D0D0D0" stroke-width="1" />
<circle cx="130" cy="183" r="3" fill="#338866" stroke="#338866" stroke-width="1"/>
<text x="136" y="186" font-size="8" fill="#555555" font-weight="normal" text-anchor="start">#경제</text>
<rect x="6" y="202" width="101" height="76" rx="6" fill="#FFFFFF" stroke="#D0D0D0" stroke-width="1" />
<rect x="6" y="202" width="101" height="42" rx="6" fill="#1a2a3a" stroke="#D0D0D0" stroke-width="1" />
<rect x="6" y="202" width="101" height="36" rx="0" fill="#1a2a3a" stroke="none" stroke-width="1" />
<rect x="89" y="205" width="16" height="10" rx="2" fill="#00000066" stroke="none" stroke-width="1" />
<text x="91" y="213" font-size="6" fill="#FFFFFF" font-weight="normal" text-anchor="start">YT</text>
<text x="10" y="250" font-size="8" fill="#111111" font-weight="normal" text-anchor="start">테슬라 차세대</text>
<circle cx="12" cy="270" r="3" fill="#4488CC" stroke="#4488CC" stroke-width="1"/>
<rect x="113" y="202" width="101" height="76" rx="6" fill="#FFFFFF" stroke="#D0D0D0" stroke-width="1" />
<rect x="113" y="202" width="101" height="42" rx="6" fill="#2a1a3a" stroke="#D0D0D0" stroke-width="1" />
<rect x="113" y="202" width="101" height="36" rx="0" fill="#2a1a3a" stroke="none" stroke-width="1" />
<rect x="196" y="205" width="16" height="10" rx="2" fill="#00000066" stroke="none" stroke-width="1" />
<text x="198" y="213" font-size="6" fill="#FFFFFF" font-weight="normal" text-anchor="start">YT</text>
<text x="117" y="250" font-size="8" fill="#111111" font-weight="normal" text-anchor="start">엔비디아 양자</text>
<circle cx="119" cy="270" r="3" fill="#4488CC" stroke="#4488CC" stroke-width="1"/>
<rect x="6" y="282" width="101" height="76" rx="6" fill="#FFFFFF" stroke="#D0D0D0" stroke-width="1" />
<rect x="6" y="282" width="101" height="42" rx="6" fill="#3a2a1a" stroke="#D0D0D0" stroke-width="1" />
<rect x="6" y="282" width="101" height="36" rx="0" fill="#3a2a1a" stroke="none" stroke-width="1" />
<rect x="89" y="285" width="16" height="10" rx="2" fill="#00000066" stroke="none" stroke-width="1" />
<text x="91" y="293" font-size="6" fill="#FFFFFF" font-weight="normal" text-anchor="start">YT</text>
<text x="10" y="330" font-size="8" fill="#111111" font-weight="normal" text-anchor="start">아이온큐 전망</text>
<circle cx="12" cy="350" r="3" fill="#CC8800" stroke="#CC8800" stroke-width="1"/>
<rect x="113" y="282" width="101" height="76" rx="6" fill="#FFFFFF" stroke="#D0D0D0" stroke-width="1" />
<rect x="113" y="282" width="101" height="42" rx="6" fill="#1a3a2a" stroke="#D0D0D0" stroke-width="1" />
<rect x="113" y="282" width="101" height="36" rx="0" fill="#1a3a2a" stroke="none" stroke-width="1" />
<rect x="196" y="285" width="16" height="10" rx="2" fill="#00000066" stroke="none" stroke-width="1" />
<text x="198" y="293" font-size="6" fill="#FFFFFF" font-weight="normal" text-anchor="start">YT</text>
<text x="117" y="330" font-size="8" fill="#111111" font-weight="normal" text-anchor="start">팔란티어 분석</text>
<circle cx="119" cy="350" r="3" fill="#CC8800" stroke="#CC8800" stroke-width="1"/>
<rect x="6" y="362" width="101" height="76" rx="6" fill="#FFFFFF" stroke="#D0D0D0" stroke-width="1" />
<rect x="6" y="362" width="101" height="42" rx="6" fill="#1a1a3a" stroke="#D0D0D0" stroke-width="1" />
<rect x="6" y="362" width="101" height="36" rx="0" fill="#1a1a3a" stroke="none" stroke-width="1" />
<rect x="89" y="365" width="16" height="10" rx="2" fill="#00000066" stroke="none" stroke-width="1" />
<text x="91" y="373" font-size="6" fill="#FFFFFF" font-weight="normal" text-anchor="start">YT</text>
<text x="10" y="410" font-size="8" fill="#111111" font-weight="normal" text-anchor="start">유상증자 이슈</text>
<circle cx="12" cy="430" r="3" fill="#338866" stroke="#338866" stroke-width="1"/>
<rect x="113" y="362" width="101" height="76" rx="6" fill="#FFFFFF" stroke="#D0D0D0" stroke-width="1" />
<rect x="113" y="362" width="101" height="42" rx="6" fill="#2a3a1a" stroke="#D0D0D0" stroke-width="1" />
<rect x="113" y="362" width="101" height="36" rx="0" fill="#2a3a1a" stroke="none" stroke-width="1" />
<rect x="196" y="365" width="16" height="10" rx="2" fill="#00000066" stroke="none" stroke-width="1" />
<text x="198" y="373" font-size="6" fill="#FFFFFF" font-weight="normal" text-anchor="start">YT</text>
<text x="117" y="410" font-size="8" fill="#111111" font-weight="normal" text-anchor="start">딥시크 영향</text>
<circle cx="119" cy="430" r="3" fill="#4488CC" stroke="#4488CC" stroke-width="1"/>
<rect x="6" y="442" width="101" height="76" rx="6" fill="#FFFFFF" stroke="#D0D0D0" stroke-width="1" />
<rect x="6" y="442" width="101" height="42" rx="6" fill="#3a1a2a" stroke="#D0D0D0" stroke-width="1" />
<rect x="6" y="442" width="101" height="36" rx="0" fill="#3a1a2a" stroke="none" stroke-width="1" />
<rect x="89" y="445" width="16" height="10" rx="2" fill="#00000066" stroke="none" stroke-width="1" />
<text x="91" y="453" font-size="6" fill="#FFFFFF" font-weight="normal" text-anchor="start">YT</text>
<text x="10" y="490" font-size="8" fill="#111111" font-weight="normal" text-anchor="start">2025 전망</text>
<circle cx="12" cy="510" r="3" fill="#CC8800" stroke="#CC8800" stroke-width="1"/>
<rect x="113" y="442" width="101" height="76" rx="6" fill="#FFFFFF" stroke="#D0D0D0" stroke-width="1" />
<rect x="113" y="442" width="101" height="42" rx="6" fill="#1a3a3a" stroke="#D0D0D0" stroke-width="1" />
<rect x="113" y="442" width="101" height="36" rx="0" fill="#1a3a3a" stroke="none" stroke-width="1" />
<rect x="196" y="445" width="16" height="10" rx="2" fill="#00000066" stroke="none" stroke-width="1" />
<text x="198" y="453" font-size="6" fill="#FFFFFF" font-weight="normal" text-anchor="start">ART</text>
<text x="117" y="490" font-size="8" fill="#111111" font-weight="normal" text-anchor="start">금리 시나리오</text>
<circle cx="119" cy="510" r="3" fill="#338866" stroke="#338866" stroke-width="1"/>
<rect x="0" y="876" width="220" height="24" rx="0" fill="#EBEBEB" stroke="#D0D0D0" stroke-width="1" />
<text x="20" y="890" font-size="9" fill="#999999" font-weight="normal" text-anchor="start">드래그 → 섹터에 배치</text>
<rect x="220" y="124" width="1220" height="30" rx="0" fill="#FFFFFF" stroke="#D0D0D0" stroke-width="1" />
<text x="232" y="144" font-size="11" fill="#999999" font-weight="normal" text-anchor="start">전체 만다라</text>
<text x="1120" y="144" font-size="9" fill="#999999" font-weight="normal" text-anchor="start">Lv.0</text>
<line x1="1150" y1="139" x2="1250" y2="139" stroke="#BBBBBB" stroke-width="3" />
<circle cx="1200" cy="139" r="6" fill="#111111" stroke="#FFFFFF" stroke-width="2"/>
<text x="1260" y="144" font-size="9" fill="#999999" font-weight="normal" text-anchor="start">전체</text>
<rect x="1300" y="129" width="24" height="22" rx="4" fill="#EBEBEB" stroke="#D0D0D0" stroke-width="1" />
<text x="1312" y="144" font-size="11" fill="#555555" font-weight="normal" text-anchor="middle">⊞</text>
<rect x="1328" y="129" width="24" height="22" rx="4" fill="#FFFFFF" stroke="#D0D0D0" stroke-width="1" />
<text x="1340" y="144" font-size="11" fill="#555555" font-weight="normal" text-anchor="middle">≡</text>
<rect x="1356" y="129" width="24" height="22" rx="4" fill="#FFFFFF" stroke="#D0D0D0" stroke-width="1" />
<text x="1368" y="144" font-size="11" fill="#555555" font-weight="normal" text-anchor="middle">◫</text>
<rect x="1384" y="129" width="24" height="22" rx="4" fill="#FFFFFF" stroke="#D0D0D0" stroke-width="1" />
<text x="1396" y="144" font-size="11" fill="#555555" font-weight="normal" text-anchor="middle">⊕</text>
<rect x="300" y="170" width="340" height="420" rx="10" fill="#FFFFFF" stroke="#D0D0D0" stroke-width="1" />
<rect x="314" y="186" width="86" height="43" rx="4" fill="#EBEBEB" stroke="#D0D0D0" stroke-width="1" />
<rect x="404" y="186" width="86" height="43" rx="4" fill="#EBEBEB" stroke="#D0D0D0" stroke-width="1" />
<rect x="494" y="186" width="86" height="43" rx="4" fill="#EBEBEB" stroke="#D0D0D0" stroke-width="1" />
<rect x="314" y="233" width="86" height="43" rx="4" fill="#FFFFFF" stroke="#D0D0D0" stroke-width="1" stroke-dasharray='5,3'/>
<rect x="404" y="233" width="86" height="43" rx="4" fill="#D0D8E8" stroke="#BBBBBB" stroke-width="1" />
<text x="447" y="258" font-size="12" fill="#111111" font-weight="normal" text-anchor="middle">🐱</text>
<rect x="494" y="233" width="86" height="43" rx="4" fill="#FFFFFF" stroke="#D0D0D0" stroke-width="1" stroke-dasharray='5,3'/>
<rect x="314" y="280" width="86" height="43" rx="4" fill="#FFFFFF" stroke="#D0D0D0" stroke-width="1" stroke-dasharray='5,3'/>
<rect x="404" y="280" width="86" height="43" rx="4" fill="#FFFFFF" stroke="#D0D0D0" stroke-width="1" stroke-dasharray='5,3'/>
<rect x="494" y="280" width="86" height="43" rx="4" fill="#FFFFFF" stroke="#D0D0D0" stroke-width="1" stroke-dasharray='5,3'/>
<circle cx="470" cy="369" r="28" fill="#EBEBEB" stroke="#D0D0D0" stroke-width="1"/>
<text x="470" y="375" font-size="18" fill="#111111" font-weight="normal" text-anchor="middle">🐱</text>
<text x="470" y="409" font-size="13" fill="#111111" font-weight="bold" text-anchor="middle">투자</text>
<text x="470" y="425" font-size="10" fill="#999999" font-weight="normal" text-anchor="middle">8장</text>
<rect x="680" y="170" width="340" height="420" rx="10" fill="#FFFFFF" stroke="#D0D0D0" stroke-width="1" />
<rect x="694" y="186" width="86" height="43" rx="4" fill="#EBEBEB" stroke="#D0D0D0" stroke-width="1" />
<rect x="784" y="186" width="86" height="43" rx="4" fill="#EBEBEB" stroke="#D0D0D0" stroke-width="1" />
<rect x="874" y="186" width="86" height="43" rx="4" fill="#EBEBEB" stroke="#D0D0D0" stroke-width="1" />
<rect x="694" y="233" width="86" height="43" rx="4" fill="#FFFFFF" stroke="#D0D0D0" stroke-width="1" stroke-dasharray='5,3'/>
<rect x="784" y="233" width="86" height="43" rx="4" fill="#D0D8E8" stroke="#BBBBBB" stroke-width="1" />
<text x="827" y="258" font-size="12" fill="#111111" font-weight="normal" text-anchor="middle">🦊</text>
<rect x="874" y="233" width="86" height="43" rx="4" fill="#FFFFFF" stroke="#D0D0D0" stroke-width="1" stroke-dasharray='5,3'/>
<rect x="694" y="280" width="86" height="43" rx="4" fill="#FFFFFF" stroke="#D0D0D0" stroke-width="1" stroke-dasharray='5,3'/>
<rect x="784" y="280" width="86" height="43" rx="4" fill="#FFFFFF" stroke="#D0D0D0" stroke-width="1" stroke-dasharray='5,3'/>
<rect x="874" y="280" width="86" height="43" rx="4" fill="#FFFFFF" stroke="#D0D0D0" stroke-width="1" stroke-dasharray='5,3'/>
<circle cx="850" cy="369" r="28" fill="#EBEBEB" stroke="#D0D0D0" stroke-width="1"/>
<text x="850" y="375" font-size="18" fill="#111111" font-weight="normal" text-anchor="middle">🦊</text>
<text x="850" y="409" font-size="13" fill="#111111" font-weight="bold" text-anchor="middle">AI/ML</text>
<text x="850" y="425" font-size="10" fill="#999999" font-weight="normal" text-anchor="middle">15장</text>
<text x="12" y="888" font-size="9" fill="#999999">[ WF-15 ] 과거 시점 선택 · READ ONLY 배너 · 2024.04 needle · 과거 만다라 상태 (카드 적음)</text>
</svg>