<svg width="1440" height="900" viewBox="0 0 1440 900" xmlns="http://www.w3.org/2000/svg" style="background:#FFFFFF;font-family:Arial,sans-serif">
<rect x="0" y="0" width="1440" height="44" rx="0" fill="#F0F0F0" stroke="#D0D0D0" stroke-width="1" />
<rect x="14" y="11" width="22" height="22" rx="4" fill="#CCCCCC" stroke="#D0D0D0" stroke-width="1" />
<text x="42" y="28" font-size="13" fill="#111111" font-weight="bold" text-anchor="start">Insighta</text>
<rect x="100" y="14" width="28" height="16" rx="3" fill="#EBEBEB" stroke="#D0D0D0" stroke-width="1" />
<text x="103" y="26" font-size="9" fill="#555555" font-weight="normal" text-anchor="start">DEV</text>
<rect x="132" y="14" width="34" height="16" rx="3" fill="#EBEBEB" stroke="#D0D0D0" stroke-width="1" />
<text x="135" y="26" font-size="9" fill="#555555" font-weight="normal" text-anchor="start">BETA</text>
<rect x="480" y="9" width="480" height="26" rx="13" fill="#FFFFFF" stroke="#D0D0D0" stroke-width="1" />
<text x="498" y="27" font-size="11" fill="#999999" font-weight="normal" text-anchor="start">Search cards...  (⌘K)</text>
<text x="1230" y="28" font-size="11" fill="#555555" font-weight="normal" text-anchor="start">KO</text>
<circle cx="1278" cy="22" r="10" fill="#EBEBEB" stroke="#D0D0D0" stroke-width="1"/>
<circle cx="1416" cy="22" r="16" fill="#CCCCCC" stroke="#D0D0D0" stroke-width="1"/>
<text x="1410" y="26" font-size="10" fill="#111111" font-weight="bold" text-anchor="middle">JK</text>
<rect x="420" y="210" width="600" height="500" rx="16" fill="#FFFFFF" stroke="#D0D0D0" stroke-width="1.5" />
<circle cx="700" cy="232" r="5" fill="#EBEBEB" stroke="#D0D0D0" stroke-width="1"/>
<circle cx="720" cy="232" r="5" fill="#111111" stroke="#D0D0D0" stroke-width="1"/>
<circle cx="740" cy="232" r="5" fill="#D0D0D0" stroke="#D0D0D0" stroke-width="1"/>
<text x="720" y="254" font-size="10" fill="#999999" font-weight="normal" text-anchor="middle">2 / 3</text>
<text x="720" y="284" font-size="16" fill="#111111" font-weight="bold" text-anchor="middle">당신의 아바타를 선택하세요</text>
<circle cx="600" cy="330" r="36" fill="#EBEBEB" stroke="#111111" stroke-width="2.5"/>
<text x="600" y="338" font-size="22" fill="#111111" font-weight="normal" text-anchor="middle">🐱</text>
<circle cx="700" cy="330" r="36" fill="#FFFFFF" stroke="#D0D0D0" stroke-width="1"/>
<text x="700" y="338" font-size="22" fill="#111111" font-weight="normal" text-anchor="middle">🦊</text>
<circle cx="800" cy="330" r="36" fill="#FFFFFF" stroke="#D0D0D0" stroke-width="1"/>
<text x="800" y="338" font-size="22" fill="#111111" font-weight="normal" text-anchor="middle">🐢</text>
<circle cx="600" cy="430" r="36" fill="#FFFFFF" stroke="#D0D0D0" stroke-width="1"/>
<text x="600" y="438" font-size="22" fill="#111111" font-weight="normal" text-anchor="middle">🤖</text>
<circle cx="700" cy="430" r="36" fill="#FFFFFF" stroke="#D0D0D0" stroke-width="1"/>
<text x="700" y="438" font-size="22" fill="#111111" font-weight="normal" text-anchor="middle">🐱</text>
<circle cx="800" cy="430" r="36" fill="#FFFFFF" stroke="#D0D0D0" stroke-width="1"/>
<text x="800" y="438" font-size="22" fill="#111111" font-weight="normal" text-anchor="middle">🦊</text>
<rect x="640" y="540" width="160" height="30" rx="15" fill="#F5F5F5" stroke="#D0D0D0" stroke-width="1" />
<text x="720" y="559" font-size="10" fill="#555555" font-weight="normal" text-anchor="middle">↻ 다른 아바타 보기</text>
<rect x="640" y="580" width="160" height="40" rx="8" fill="#111111" stroke="none" stroke-width="1" />
<text x="720" y="605" font-size="13" fill="#FFFFFF" font-weight="bold" text-anchor="middle">다음 →</text>
<text x="12" y="888" font-size="9" fill="#999999">[ WF-11 ] 온보딩 Step 2 · 아바타 선택 6개 · 첫번째 선택됨 · 셔플 버튼</text>
</svg>