<svg width="1440" height="900" viewBox="0 0 1440 900" xmlns="http://www.w3.org/2000/svg" style="background:#FFFFFF;font-family:Arial,sans-serif">
<rect x="0" y="0" width="1440" height="900" rx="0" fill="#FFFFFF" stroke="none" stroke-width="1" />
<rect x="0" y="0" width="1440" height="50" rx="0" fill="#F0F0F0" stroke="#D0D0D0" stroke-width="1" />
<text x="16" y="31" font-size="14" fill="#111111" font-weight="bold" text-anchor="start">Ideation</text>
<rect x="100" y="12" width="32" height="28" rx="14" fill="#EBEBEB" stroke="#D0D0D0" stroke-width="1" />
<text x="116" y="30" font-size="9" fill="#555555" font-weight="normal" text-anchor="middle">586</text>
<text x="16" y="48" font-size="9" fill="#999999" font-weight="normal" text-anchor="start">∞ 시간 초월 카드</text>
<rect x="200" y="12" width="360" height="28" rx="6" fill="#F5F5F5" stroke="#D0D0D0" stroke-width="1" />
<text x="214" y="30" font-size="11" fill="#999999" font-weight="normal" text-anchor="start">검색...</text>
<rect x="580" y="12" width="80" height="28" rx="6" fill="#EBEBEB" stroke="#D0D0D0" stroke-width="1" />
<text x="608" y="30" font-size="11" fill="#555555" font-weight="normal" text-anchor="middle">AI 분류</text>
<rect x="1340" y="12" width="88" height="28" rx="6" fill="#F5F5F5" stroke="#D0D0D0" stroke-width="1" />
<text x="1384" y="30" font-size="11" fill="#555555" font-weight="normal" text-anchor="middle">✕ 닫기</text>
<rect x="0" y="50" width="1440" height="28" rx="0" fill="#EBEBEB" stroke="#D0D0D0" stroke-width="1" />
<rect x="12" y="55" width="36" height="18" rx="9" fill="#CCCCCC" stroke="#D0D0D0" stroke-width="1" />
<text x="30" y="68" font-size="9" fill="#111111" font-weight="normal" text-anchor="middle">전체</text>
<rect x="102" y="55" width="44" height="18" rx="9" fill="#FFFFFF" stroke="#D0D0D0" stroke-width="1" />
<text x="124" y="68" font-size="9" fill="#555555" font-weight="normal" text-anchor="middle">#테크</text>
<rect x="192" y="55" width="44" height="18" rx="9" fill="#FFFFFF" stroke="#D0D0D0" stroke-width="1" />
<text x="214" y="68" font-size="9" fill="#555555" font-weight="normal" text-anchor="middle">#투자</text>
<rect x="282" y="55" width="44" height="18" rx="9" fill="#FFFFFF" stroke="#D0D0D0" stroke-width="1" />
<text x="304" y="68" font-size="9" fill="#555555" font-weight="normal" text-anchor="middle">#경제</text>
<rect x="372" y="55" width="44" height="18" rx="9" fill="#FFFFFF" stroke="#D0D0D0" stroke-width="1" />
<text x="394" y="68" font-size="9" fill="#555555" font-weight="normal" text-anchor="middle">#AI</text>
<rect x="462" y="55" width="52" height="18" rx="9" fill="#FFFFFF" stroke="#D0D0D0" stroke-width="1" />
<text x="488" y="68" font-size="9" fill="#555555" font-weight="normal" text-anchor="middle">#글로벌</text>
<rect x="16" y="84" width="340" height="180" rx="8" fill="#F5F5F5" stroke="#D0D0D0" stroke-width="1" />
<rect x="16" y="84" width="340" height="99" rx="8" fill="#1a2a3a" stroke="none" stroke-width="1" />
<rect x="16" y="175" width="340" height="8" rx="0" fill="#1a2a3a" stroke="none" stroke-width="1" />
<rect x="324" y="90" width="28" height="12" rx="3" fill="#00000066" stroke="none" stroke-width="1" />
<text x="328" y="99" font-size="7" fill="#FFFFFF" font-weight="normal" text-anchor="start">YouTube</text>
<text x="24" y="197" font-size="9" fill="#111111" font-weight="bold" text-anchor="start">테슬라 차세대 문명의 시작</text>
<rect x="24" y="211" width="38" height="14" rx="7" fill="#EBEBEB" stroke="#D0D0D0" stroke-width="1" />
<circle cx="30" cy="218" r="3" fill="#4488CC" stroke="#4488CC" stroke-width="1"/>
<rect x="372" y="84" width="340" height="180" rx="8" fill="#F5F5F5" stroke="#D0D0D0" stroke-width="1" />
<rect x="372" y="84" width="340" height="99" rx="8" fill="#2a1a3a" stroke="none" stroke-width="1" />
<rect x="372" y="175" width="340" height="8" rx="0" fill="#2a1a3a" stroke="none" stroke-width="1" />
<rect x="680" y="90" width="28" height="12" rx="3" fill="#00000066" stroke="none" stroke-width="1" />
<text x="684" y="99" font-size="7" fill="#FFFFFF" font-weight="normal" text-anchor="start">YouTube</text>
<text x="380" y="197" font-size="9" fill="#111111" font-weight="bold" text-anchor="start">엔비디아 양자컴퓨팅 전략</text>
<rect x="380" y="211" width="38" height="14" rx="7" fill="#EBEBEB" stroke="#D0D0D0" stroke-width="1" />
<circle cx="386" cy="218" r="3" fill="#4488CC" stroke="#4488CC" stroke-width="1"/>
<rect x="728" y="84" width="340" height="180" rx="8" fill="#F5F5F5" stroke="#D0D0D0" stroke-width="1" />
<rect x="728" y="84" width="340" height="99" rx="8" fill="#1a3a2a" stroke="none" stroke-width="1" />
<rect x="728" y="175" width="340" height="8" rx="0" fill="#1a3a2a" stroke="none" stroke-width="1" />
<rect x="1036" y="90" width="28" height="12" rx="3" fill="#00000066" stroke="none" stroke-width="1" />
<text x="1040" y="99" font-size="7" fill="#FFFFFF" font-weight="normal" text-anchor="start">YouTube</text>
<text x="736" y="197" font-size="9" fill="#111111" font-weight="bold" text-anchor="start">팔란티어 경쟁자가 없나요?</text>
<rect x="736" y="211" width="38" height="14" rx="7" fill="#EBEBEB" stroke="#D0D0D0" stroke-width="1" />
<circle cx="742" cy="218" r="3" fill="#CC8800" stroke="#CC8800" stroke-width="1"/>
<rect x="1084" y="84" width="340" height="180" rx="8" fill="#F5F5F5" stroke="#D0D0D0" stroke-width="1" />
<rect x="1084" y="84" width="340" height="99" rx="8" fill="#3a2a1a" stroke="none" stroke-width="1" />
<rect x="1084" y="175" width="340" height="8" rx="0" fill="#3a2a1a" stroke="none" stroke-width="1" />
<rect x="1392" y="90" width="28" height="12" rx="3" fill="#00000066" stroke="none" stroke-width="1" />
<text x="1396" y="99" font-size="7" fill="#FFFFFF" font-weight="normal" text-anchor="start">YouTube</text>
<text x="1092" y="197" font-size="9" fill="#111111" font-weight="bold" text-anchor="start">아이온큐 10년 전망 분석</text>
<rect x="1092" y="211" width="38" height="14" rx="7" fill="#EBEBEB" stroke="#D0D0D0" stroke-width="1" />
<circle cx="1098" cy="218" r="3" fill="#CC8800" stroke="#CC8800" stroke-width="1"/>
<rect x="16" y="280" width="340" height="180" rx="8" fill="#F5F5F5" stroke="#D0D0D0" stroke-width="1" />
<rect x="16" y="280" width="340" height="99" rx="8" fill="#1a1a3a" stroke="none" stroke-width="1" />
<rect x="16" y="371" width="340" height="8" rx="0" fill="#1a1a3a" stroke="none" stroke-width="1" />
<rect x="324" y="286" width="28" height="12" rx="3" fill="#00000066" stroke="none" stroke-width="1" />
<text x="328" y="295" font-size="7" fill="#FFFFFF" font-weight="normal" text-anchor="start">YouTube</text>
<text x="24" y="393" font-size="9" fill="#111111" font-weight="bold" text-anchor="start">유상증자 CEO 고백</text>
<rect x="24" y="407" width="38" height="14" rx="7" fill="#EBEBEB" stroke="#D0D0D0" stroke-width="1" />
<circle cx="30" cy="414" r="3" fill="#338866" stroke="#338866" stroke-width="1"/>
<rect x="372" y="280" width="340" height="180" rx="8" fill="#F5F5F5" stroke="#D0D0D0" stroke-width="1" />
<rect x="372" y="280" width="340" height="99" rx="8" fill="#2a3a1a" stroke="none" stroke-width="1" />
<rect x="372" y="371" width="340" height="8" rx="0" fill="#2a3a1a" stroke="none" stroke-width="1" />
<rect x="680" y="286" width="28" height="12" rx="3" fill="#00000066" stroke="none" stroke-width="1" />
<text x="684" y="295" font-size="7" fill="#FFFFFF" font-weight="normal" text-anchor="start">YouTube</text>
<text x="380" y="393" font-size="9" fill="#111111" font-weight="bold" text-anchor="start">엔비디아 실적 발표 분석</text>
<rect x="380" y="407" width="38" height="14" rx="7" fill="#EBEBEB" stroke="#D0D0D0" stroke-width="1" />
<circle cx="386" cy="414" r="3" fill="#4488CC" stroke="#4488CC" stroke-width="1"/>
<rect x="728" y="280" width="340" height="180" rx="8" fill="#F5F5F5" stroke="#D0D0D0" stroke-width="1" />
<rect x="728" y="280" width="340" height="99" rx="8" fill="#3a1a1a" stroke="none" stroke-width="1" />
<rect x="728" y="371" width="340" height="8" rx="0" fill="#3a1a1a" stroke="none" stroke-width="1" />
<rect x="1036" y="286" width="28" height="12" rx="3" fill="#00000066" stroke="none" stroke-width="1" />
<text x="1040" y="295" font-size="7" fill="#FFFFFF" font-weight="normal" text-anchor="start">YouTube</text>
<text x="736" y="393" font-size="9" fill="#111111" font-weight="bold" text-anchor="start">팔란티어 CEO 단독 인터뷰</text>
<rect x="736" y="407" width="38" height="14" rx="7" fill="#EBEBEB" stroke="#D0D0D0" stroke-width="1" />
<circle cx="742" cy="414" r="3" fill="#CC8800" stroke="#CC8800" stroke-width="1"/>
<rect x="1084" y="280" width="340" height="180" rx="8" fill="#F5F5F5" stroke="#D0D0D0" stroke-width="1" />
<rect x="1084" y="280" width="340" height="99" rx="8" fill="#1a2a3a" stroke="none" stroke-width="1" />
<rect x="1084" y="371" width="340" height="8" rx="0" fill="#1a2a3a" stroke="none" stroke-width="1" />
<rect x="1392" y="286" width="28" height="12" rx="3" fill="#00000066" stroke="none" stroke-width="1" />
<text x="1396" y="295" font-size="7" fill="#FFFFFF" font-weight="normal" text-anchor="start">YouTube</text>
<text x="1092" y="393" font-size="9" fill="#111111" font-weight="bold" text-anchor="start">테슬라 로봇 택시 전략</text>
<rect x="1092" y="407" width="38" height="14" rx="7" fill="#EBEBEB" stroke="#D0D0D0" stroke-width="1" />
<circle cx="1098" cy="414" r="3" fill="#4488CC" stroke="#4488CC" stroke-width="1"/>
<rect x="0" y="870" width="1440" height="30" rx="0" fill="#EBEBEB" stroke="#D0D0D0" stroke-width="1" />
<text x="720" y="889" font-size="11" fill="#999999" font-weight="normal" text-anchor="middle">드래그 → 만다라 셀에 배치</text>
<text x="12" y="888" font-size="9" fill="#999999">[ WF-19 ] Ideation 전체화면 · 4열 그리드 · Label 탭 · AI분류 · ✕ 닫기</text>
</svg>