<svg width="390" height="844" viewBox="0 0 390 844" xmlns="http://www.w3.org/2000/svg" style="background:#FFFFFF;font-family:Arial,sans-serif">
<rect x="0" y="0" width="390" height="44" rx="0" fill="#F0F0F0" stroke="#D0D0D0" stroke-width="1" />
<rect x="10" y="11" width="22" height="22" rx="4" fill="#CCCCCC" stroke="#D0D0D0" stroke-width="1" />
<text x="38" y="28" font-size="12" fill="#111111" font-weight="bold" text-anchor="start">Insighta</text>
<text x="350" y="28" font-size="10" fill="#555555" font-weight="bold" text-anchor="end">JK</text>
<rect x="0" y="44" width="390" height="38" rx="0" fill="#F7F7F7" stroke="#D0D0D0" stroke-width="1" />
<line x1="8" y1="72" x2="382" y2="72" stroke="#BBBBBB" stroke-width="1" />
<circle cx="80" cy="72" r="3" fill="#EBEBEB" stroke="#BBBBBB" stroke-width="1"/>
<circle cx="180" cy="72" r="3" fill="#EBEBEB" stroke="#BBBBBB" stroke-width="1"/>
<circle cx="270" cy="72" r="3" fill="#EBEBEB" stroke="#BBBBBB" stroke-width="1"/>
<circle cx="330" cy="72" r="3" fill="#EBEBEB" stroke="#BBBBBB" stroke-width="1"/>
<circle cx="330" cy="72" r="5" fill="#111111" stroke="#FFFFFF" stroke-width="1.5"/>
<text x="8" y="58" font-size="8" fill="#999999" font-weight="normal" text-anchor="start">← 과거</text>
<rect x="0" y="82" width="390" height="26" rx="0" fill="#FFFFFF" stroke="#D0D0D0" stroke-width="1" />
<text x="10" y="99" font-size="11" fill="#111111" font-weight="bold" text-anchor="start">투자</text>
<text x="310" y="99" font-size="9" fill="#999999" font-weight="normal" text-anchor="end">Lv.1 섹터</text>
<rect x="6" y="112" width="124" height="110" rx="6" fill="#F5F5F5" stroke="#D0D0D0" stroke-width="1" />
<text x="14" y="126" font-size="8" fill="#111111" font-weight="bold" text-anchor="start">기시경제</text>
<text x="124" y="126" font-size="7" fill="#999999" font-weight="normal" text-anchor="end">3장</text>
<rect x="12" y="134" width="112" height="38" rx="3" fill="#EBEBEB" stroke="#D0D0D0" stroke-width="1" />
<rect x="134" y="112" width="124" height="110" rx="6" fill="#F5F5F5" stroke="#D0D0D0" stroke-width="1" />
<text x="142" y="126" font-size="8" fill="#111111" font-weight="bold" text-anchor="start">주식투자</text>
<text x="252" y="126" font-size="7" fill="#999999" font-weight="normal" text-anchor="end">12장</text>
<rect x="140" y="134" width="112" height="38" rx="3" fill="#EBEBEB" stroke="#D0D0D0" stroke-width="1" />
<rect x="262" y="112" width="124" height="110" rx="6" fill="#F5F5F5" stroke="#D0D0D0" stroke-width="1" />
<text x="270" y="126" font-size="8" fill="#111111" font-weight="bold" text-anchor="start">자산분배</text>
<text x="380" y="126" font-size="7" fill="#999999" font-weight="normal" text-anchor="end">5장</text>
<rect x="268" y="134" width="112" height="38" rx="3" fill="#EBEBEB" stroke="#D0D0D0" stroke-width="1" />
<rect x="6" y="226" width="124" height="110" rx="6" fill="#F5F5F5" stroke="#D0D0D0" stroke-width="1" />
<text x="14" y="240" font-size="8" fill="#111111" font-weight="bold" text-anchor="start">ETF</text>
<text x="124" y="240" font-size="7" fill="#999999" font-weight="normal" text-anchor="end">8장</text>
<rect x="12" y="248" width="112" height="38" rx="3" fill="#EBEBEB" stroke="#D0D0D0" stroke-width="1" />
<rect x="134" y="226" width="124" height="110" rx="6" fill="#D0D8E8" stroke="#BBBBBB" stroke-width="1" />
<text x="196" y="287" font-size="20" fill="#111111" font-weight="normal" text-anchor="middle">🐱</text>
<rect x="262" y="226" width="124" height="110" rx="6" fill="#F5F5F5" stroke="#D0D0D0" stroke-width="1" />
<text x="270" y="240" font-size="8" fill="#111111" font-weight="bold" text-anchor="start">크립토</text>
<text x="380" y="240" font-size="7" fill="#999999" font-weight="normal" text-anchor="end">2장</text>
<rect x="268" y="248" width="112" height="38" rx="3" fill="#EBEBEB" stroke="#D0D0D0" stroke-width="1" />
<rect x="6" y="340" width="124" height="110" rx="6" fill="#FFFFFF" stroke="#D0D0D0" stroke-width="1" stroke-dasharray='5,3'/>
<text x="68" y="399" font-size="8" fill="#BBBBBB" font-weight="normal" text-anchor="middle">은퇴설계</text>
<rect x="134" y="340" width="124" height="110" rx="6" fill="#F5F5F5" stroke="#D0D0D0" stroke-width="1" />
<text x="142" y="354" font-size="8" fill="#111111" font-weight="bold" text-anchor="start">실물자산</text>
<text x="252" y="354" font-size="7" fill="#999999" font-weight="normal" text-anchor="end">1장</text>
<rect x="140" y="362" width="112" height="38" rx="3" fill="#EBEBEB" stroke="#D0D0D0" stroke-width="1" />
<rect x="262" y="340" width="124" height="110" rx="6" fill="#F5F5F5" stroke="#D0D0D0" stroke-width="1" />
<text x="270" y="354" font-size="8" fill="#111111" font-weight="bold" text-anchor="start">시장전망</text>
<text x="380" y="354" font-size="7" fill="#999999" font-weight="normal" text-anchor="end">4장</text>
<rect x="268" y="362" width="112" height="38" rx="3" fill="#EBEBEB" stroke="#D0D0D0" stroke-width="1" />
<rect x="0" y="788" width="390" height="56" rx="0" fill="#F0F0F0" stroke="#D0D0D0" stroke-width="1" />
<text x="48" y="812" font-size="16" fill="#111111" font-weight="normal" text-anchor="middle">⊞</text>
<text x="48" y="830" font-size="8" fill="#111111" font-weight="normal" text-anchor="middle">홈</text>
<text x="145" y="812" font-size="16" fill="#999999" font-weight="normal" text-anchor="middle">🔍</text>
<text x="145" y="830" font-size="8" fill="#999999" font-weight="normal" text-anchor="middle">탐색</text>
<text x="242" y="812" font-size="16" fill="#999999" font-weight="normal" text-anchor="middle">◈</text>
<text x="242" y="830" font-size="8" fill="#999999" font-weight="normal" text-anchor="middle">Ideation</text>
<text x="339" y="812" font-size="16" fill="#999999" font-weight="normal" text-anchor="middle">⚙</text>
<text x="339" y="830" font-size="8" fill="#999999" font-weight="normal" text-anchor="middle">설정</text>
<text x="12" y="888" font-size="9" fill="#999999">[ WF-16 ] 모바일 홈 Lv.1 · 390×844 · 컴팩트 Time Shuttle · 3×3 그리드 · 하단 네비게이션</text>
</svg>