<svg width="1440" height="900" viewBox="0 0 1440 900" xmlns="http://www.w3.org/2000/svg" style="background:#FFFFFF;font-family:Arial,sans-serif">
<rect x="0" y="0" width="1440" height="44" rx="0" fill="#F0F0F0" stroke="#D0D0D0" stroke-width="1" />
<rect x="14" y="11" width="22" height="22" rx="4" fill="#CCCCCC" stroke="#D0D0D0" stroke-width="1" />
<text x="42" y="28" font-size="13" fill="#111111" font-weight="bold" text-anchor="start">Insighta</text>
<rect x="100" y="14" width="28" height="16" rx="3" fill="#EBEBEB" stroke="#D0D0D0" stroke-width="1" />
<text x="103" y="26" font-size="9" fill="#555555" font-weight="normal" text-anchor="start">DEV</text>
<rect x="132" y="14" width="34" height="16" rx="3" fill="#EBEBEB" stroke="#D0D0D0" stroke-width="1" />
<text x="135" y="26" font-size="9" fill="#555555" font-weight="normal" text-anchor="start">BETA</text>
<rect x="480" y="9" width="480" height="26" rx="13" fill="#FFFFFF" stroke="#D0D0D0" stroke-width="1" />
<text x="498" y="27" font-size="11" fill="#999999" font-weight="normal" text-anchor="start">Search cards...  (⌘K)</text>
<text x="1230" y="28" font-size="11" fill="#555555" font-weight="normal" text-anchor="start">KO</text>
<circle cx="1278" cy="22" r="10" fill="#EBEBEB" stroke="#D0D0D0" stroke-width="1"/>
<circle cx="1416" cy="22" r="16" fill="#CCCCCC" stroke="#D0D0D0" stroke-width="1"/>
<text x="1410" y="26" font-size="10" fill="#111111" font-weight="bold" text-anchor="middle">JK</text>
<rect x="0" y="44" width="1440" height="52" rx="0" fill="#F7F7F7" stroke="#D0D0D0" stroke-width="1" />
<text x="14" y="57" font-size="9" fill="#999999" font-weight="normal" text-anchor="start">← 2025.03 포트폴리오</text>
<line x1="14" y1="82" x2="1426" y2="82" stroke="#BBBBBB" stroke-width="1" />
<rect x="274" y="66" width="8" height="5" rx="1" fill="#EBEBEB" stroke="#D0D0D0" stroke-width="1" />
<rect x="284" y="66" width="8" height="5" rx="1" fill="#D0D0D0" stroke="#D0D0D0" stroke-width="1" />
<circle cx="280" cy="82" r="4" fill="#EBEBEB" stroke="#BBBBBB" stroke-width="1"/>
<text x="280" y="62" font-size="7" fill="#999999" font-weight="normal" text-anchor="middle">AI관심</text>
<rect x="534" y="66" width="8" height="5" rx="1" fill="#EBEBEB" stroke="#D0D0D0" stroke-width="1" />
<rect x="544" y="66" width="8" height="5" rx="1" fill="#D0D0D0" stroke="#D0D0D0" stroke-width="1" />
<circle cx="540" cy="82" r="4" fill="#EBEBEB" stroke="#BBBBBB" stroke-width="1"/>
<text x="540" y="62" font-size="7" fill="#999999" font-weight="normal" text-anchor="middle">ETF집중</text>
<rect x="814" y="66" width="8" height="5" rx="1" fill="#EBEBEB" stroke="#D0D0D0" stroke-width="1" />
<rect x="824" y="66" width="8" height="5" rx="1" fill="#D0D0D0" stroke="#D0D0D0" stroke-width="1" />
<circle cx="820" cy="82" r="4" fill="#EBEBEB" stroke="#BBBBBB" stroke-width="1"/>
<text x="820" y="62" font-size="7" fill="#999999" font-weight="normal" text-anchor="middle">영어추가</text>
<rect x="1054" y="66" width="8" height="5" rx="1" fill="#EBEBEB" stroke="#D0D0D0" stroke-width="1" />
<rect x="1064" y="66" width="8" height="5" rx="1" fill="#D0D0D0" stroke="#D0D0D0" stroke-width="1" />
<circle cx="1060" cy="82" r="4" fill="#EBEBEB" stroke="#BBBBBB" stroke-width="1"/>
<text x="1060" y="62" font-size="7" fill="#999999" font-weight="normal" text-anchor="middle">포트폴리오</text>
<line x1="1420" y1="48" x2="1420" y2="94" stroke="#111111" stroke-width="2" />
<circle cx="1420" cy="92" r="5" fill="#111111" stroke="#FFFFFF" stroke-width="2"/>
<text x="1414" y="57" font-size="8" fill="#111111" font-weight="bold" text-anchor="end">현재</text>
<rect x="1220" y="96" width="220" height="804" rx="0" fill="#F5F5F5" stroke="#D0D0D0" stroke-width="1" />
<rect x="1220" y="96" width="220" height="46" rx="0" fill="#EBEBEB" stroke="#D0D0D0" stroke-width="1" />
<text x="1232" y="114" font-size="12" fill="#111111" font-weight="bold" text-anchor="start">Ideation</text>
<rect x="1298" y="108" width="30" height="16" rx="8" fill="#DDDDDD" stroke="#D0D0D0" stroke-width="1" />
<text x="1303" y="120" font-size="9" fill="#555555" font-weight="normal" text-anchor="start">586</text>
<rect x="1332" y="108" width="26" height="16" rx="4" fill="#FFFFFF" stroke="#D0D0D0" stroke-width="1" />
<text x="1336" y="120" font-size="9" fill="#555555" font-weight="normal" text-anchor="start">AI</text>
<text x="1420" y="114" font-size="11" fill="#999999" font-weight="normal" text-anchor="start">⤢</text>
<text x="1232" y="130" font-size="9" fill="#999999" font-weight="normal" text-anchor="start">∞ 시간 초월 카드</text>
<rect x="1220" y="142" width="220" height="26" rx="0" fill="#EBEBEB" stroke="#D0D0D0" stroke-width="1" />
<rect x="1226" y="146" width="30" height="18" rx="9" fill="#CCCCCC" stroke="#D0D0D0" stroke-width="1" />
<text x="1234" y="158" font-size="8" fill="#111111" font-weight="normal" text-anchor="start">전체</text>
<rect x="1260" y="146" width="37" height="18" rx="9" fill="#FFFFFF" stroke="#D0D0D0" stroke-width="1" />
<circle cx="1268" cy="155" r="3" fill="#4488CC" stroke="#4488CC" stroke-width="1"/>
<text x="1274" y="158" font-size="8" fill="#555555" font-weight="normal" text-anchor="start">#테크</text>
<rect x="1301" y="146" width="37" height="18" rx="9" fill="#FFFFFF" stroke="#D0D0D0" stroke-width="1" />
<circle cx="1309" cy="155" r="3" fill="#CC8800" stroke="#CC8800" stroke-width="1"/>
<text x="1315" y="158" font-size="8" fill="#555555" font-weight="normal" text-anchor="start">#투자</text>
<rect x="1342" y="146" width="37" height="18" rx="9" fill="#FFFFFF" stroke="#D0D0D0" stroke-width="1" />
<circle cx="1350" cy="155" r="3" fill="#338866" stroke="#338866" stroke-width="1"/>
<text x="1356" y="158" font-size="8" fill="#555555" font-weight="normal" text-anchor="start">#경제</text>
<rect x="1226" y="174" width="101" height="76" rx="6" fill="#FFFFFF" stroke="#D0D0D0" stroke-width="1" />
<rect x="1226" y="174" width="101" height="42" rx="6" fill="#1a2a3a" stroke="#D0D0D0" stroke-width="1" />
<rect x="1226" y="174" width="101" height="36" rx="0" fill="#1a2a3a" stroke="none" stroke-width="1" />
<rect x="1309" y="177" width="16" height="10" rx="2" fill="#00000066" stroke="none" stroke-width="1" />
<text x="1311" y="185" font-size="6" fill="#FFFFFF" font-weight="normal" text-anchor="start">YT</text>
<text x="1230" y="222" font-size="8" fill="#111111" font-weight="normal" text-anchor="start">테슬라 차세대</text>
<circle cx="1232" cy="242" r="3" fill="#4488CC" stroke="#4488CC" stroke-width="1"/>
<rect x="1333" y="174" width="101" height="76" rx="6" fill="#FFFFFF" stroke="#D0D0D0" stroke-width="1" />
<rect x="1333" y="174" width="101" height="42" rx="6" fill="#2a1a3a" stroke="#D0D0D0" stroke-width="1" />
<rect x="1333" y="174" width="101" height="36" rx="0" fill="#2a1a3a" stroke="none" stroke-width="1" />
<rect x="1416" y="177" width="16" height="10" rx="2" fill="#00000066" stroke="none" stroke-width="1" />
<text x="1418" y="185" font-size="6" fill="#FFFFFF" font-weight="normal" text-anchor="start">YT</text>
<text x="1337" y="222" font-size="8" fill="#111111" font-weight="normal" text-anchor="start">엔비디아 양자</text>
<circle cx="1339" cy="242" r="3" fill="#4488CC" stroke="#4488CC" stroke-width="1"/>
<rect x="1226" y="254" width="101" height="76" rx="6" fill="#FFFFFF" stroke="#D0D0D0" stroke-width="1" />
<rect x="1226" y="254" width="101" height="42" rx="6" fill="#3a2a1a" stroke="#D0D0D0" stroke-width="1" />
<rect x="1226" y="254" width="101" height="36" rx="0" fill="#3a2a1a" stroke="none" stroke-width="1" />
<rect x="1309" y="257" width="16" height="10" rx="2" fill="#00000066" stroke="none" stroke-width="1" />
<text x="1311" y="265" font-size="6" fill="#FFFFFF" font-weight="normal" text-anchor="start">YT</text>
<text x="1230" y="302" font-size="8" fill="#111111" font-weight="normal" text-anchor="start">아이온큐 전망</text>
<circle cx="1232" cy="322" r="3" fill="#CC8800" stroke="#CC8800" stroke-width="1"/>
<rect x="1333" y="254" width="101" height="76" rx="6" fill="#FFFFFF" stroke="#D0D0D0" stroke-width="1" />
<rect x="1333" y="254" width="101" height="42" rx="6" fill="#1a3a2a" stroke="#D0D0D0" stroke-width="1" />
<rect x="1333" y="254" width="101" height="36" rx="0" fill="#1a3a2a" stroke="none" stroke-width="1" />
<rect x="1416" y="257" width="16" height="10" rx="2" fill="#00000066" stroke="none" stroke-width="1" />
<text x="1418" y="265" font-size="6" fill="#FFFFFF" font-weight="normal" text-anchor="start">YT</text>
<text x="1337" y="302" font-size="8" fill="#111111" font-weight="normal" text-anchor="start">팔란티어 분석</text>
<circle cx="1339" cy="322" r="3" fill="#CC8800" stroke="#CC8800" stroke-width="1"/>
<rect x="1226" y="334" width="101" height="76" rx="6" fill="#FFFFFF" stroke="#D0D0D0" stroke-width="1" />
<rect x="1226" y="334" width="101" height="42" rx="6" fill="#1a1a3a" stroke="#D0D0D0" stroke-width="1" />
<rect x="1226" y="334" width="101" height="36" rx="0" fill="#1a1a3a" stroke="none" stroke-width="1" />
<rect x="1309" y="337" width="16" height="10" rx="2" fill="#00000066" stroke="none" stroke-width="1" />
<text x="1311" y="345" font-size="6" fill="#FFFFFF" font-weight="normal" text-anchor="start">YT</text>
<text x="1230" y="382" font-size="8" fill="#111111" font-weight="normal" text-anchor="start">유상증자 이슈</text>
<circle cx="1232" cy="402" r="3" fill="#338866" stroke="#338866" stroke-width="1"/>
<rect x="1333" y="334" width="101" height="76" rx="6" fill="#FFFFFF" stroke="#D0D0D0" stroke-width="1" />
<rect x="1333" y="334" width="101" height="42" rx="6" fill="#2a3a1a" stroke="#D0D0D0" stroke-width="1" />
<rect x="1333" y="334" width="101" height="36" rx="0" fill="#2a3a1a" stroke="none" stroke-width="1" />
<rect x="1416" y="337" width="16" height="10" rx="2" fill="#00000066" stroke="none" stroke-width="1" />
<text x="1418" y="345" font-size="6" fill="#FFFFFF" font-weight="normal" text-anchor="start">YT</text>
<text x="1337" y="382" font-size="8" fill="#111111" font-weight="normal" text-anchor="start">딥시크 영향</text>
<circle cx="1339" cy="402" r="3" fill="#4488CC" stroke="#4488CC" stroke-width="1"/>
<rect x="1226" y="414" width="101" height="76" rx="6" fill="#FFFFFF" stroke="#D0D0D0" stroke-width="1" />
<rect x="1226" y="414" width="101" height="42" rx="6" fill="#3a1a2a" stroke="#D0D0D0" stroke-width="1" />
<rect x="1226" y="414" width="101" height="36" rx="0" fill="#3a1a2a" stroke="none" stroke-width="1" />
<rect x="1309" y="417" width="16" height="10" rx="2" fill="#00000066" stroke="none" stroke-width="1" />
<text x="1311" y="425" font-size="6" fill="#FFFFFF" font-weight="normal" text-anchor="start">YT</text>
<text x="1230" y="462" font-size="8" fill="#111111" font-weight="normal" text-anchor="start">2025 전망</text>
<circle cx="1232" cy="482" r="3" fill="#CC8800" stroke="#CC8800" stroke-width="1"/>
<rect x="1333" y="414" width="101" height="76" rx="6" fill="#FFFFFF" stroke="#D0D0D0" stroke-width="1" />
<rect x="1333" y="414" width="101" height="42" rx="6" fill="#1a3a3a" stroke="#D0D0D0" stroke-width="1" />
<rect x="1333" y="414" width="101" height="36" rx="0" fill="#1a3a3a" stroke="none" stroke-width="1" />
<rect x="1416" y="417" width="16" height="10" rx="2" fill="#00000066" stroke="none" stroke-width="1" />
<text x="1418" y="425" font-size="6" fill="#FFFFFF" font-weight="normal" text-anchor="start">ART</text>
<text x="1337" y="462" font-size="8" fill="#111111" font-weight="normal" text-anchor="start">금리 시나리오</text>
<circle cx="1339" cy="482" r="3" fill="#338866" stroke="#338866" stroke-width="1"/>
<rect x="1220" y="876" width="220" height="24" rx="0" fill="#EBEBEB" stroke="#D0D0D0" stroke-width="1" />
<text x="1240" y="890" font-size="9" fill="#999999" font-weight="normal" text-anchor="start">드래그 → 섹터에 배치</text>
<rect x="0" y="96" width="1440" height="30" rx="0" fill="#FFFFFF" stroke="#D0D0D0" stroke-width="1" />
<text x="12" y="116" font-size="11" fill="#999999" font-weight="normal" text-anchor="start">전체 만다라</text>
<text x="60" y="116" font-size="11" fill="#BBBBBB" font-weight="normal" text-anchor="start">/</text>
<text x="72" y="116" font-size="11" fill="#111111" font-weight="bold" text-anchor="start">투자</text>
<text x="1120" y="116" font-size="9" fill="#999999" font-weight="normal" text-anchor="start">Lv.1</text>
<line x1="1150" y1="111" x2="1250" y2="111" stroke="#BBBBBB" stroke-width="3" />
<circle cx="1200" cy="111" r="6" fill="#111111" stroke="#FFFFFF" stroke-width="2"/>
<text x="1260" y="116" font-size="9" fill="#999999" font-weight="normal" text-anchor="start">섹터</text>
<rect x="1300" y="101" width="24" height="22" rx="4" fill="#EBEBEB" stroke="#D0D0D0" stroke-width="1" />
<text x="1312" y="116" font-size="11" fill="#555555" font-weight="normal" text-anchor="middle">⊞</text>
<rect x="1328" y="101" width="24" height="22" rx="4" fill="#FFFFFF" stroke="#D0D0D0" stroke-width="1" />
<text x="1340" y="116" font-size="11" fill="#555555" font-weight="normal" text-anchor="middle">≡</text>
<rect x="1356" y="101" width="24" height="22" rx="4" fill="#FFFFFF" stroke="#D0D0D0" stroke-width="1" />
<text x="1368" y="116" font-size="11" fill="#555555" font-weight="normal" text-anchor="middle">◫</text>
<rect x="1384" y="101" width="24" height="22" rx="4" fill="#FFFFFF" stroke="#D0D0D0" stroke-width="1" />
<text x="1396" y="116" font-size="11" fill="#555555" font-weight="normal" text-anchor="middle">⊕</text>
<rect x="8" y="134" width="398" height="216" rx="8" fill="#F5F5F5" stroke="#D0D0D0" stroke-width="1" />
<text x="18" y="152" font-size="11" fill="#111111" font-weight="bold" text-anchor="start">기시경제</text>
<text x="396" y="152" font-size="10" fill="#999999" font-weight="normal" text-anchor="end">3장</text>
<text x="398" y="150" font-size="9" fill="#999999" font-weight="normal" text-anchor="end">⤢</text>
<rect x="18" y="162" width="187" height="78" rx="4" fill="#EBEBEB" stroke="#D0D0D0" stroke-width="1" />
<text x="111" y="205" font-size="9" fill="#555555" font-weight="normal" text-anchor="middle">연준 금리</text>
<rect x="209" y="162" width="187" height="78" rx="4" fill="#EBEBEB" stroke="#D0D0D0" stroke-width="1" />
<text x="302" y="205" font-size="9" fill="#555555" font-weight="normal" text-anchor="middle">인플레</text>
<rect x="18" y="244" width="187" height="78" rx="4" fill="#EBEBEB" stroke="#D0D0D0" stroke-width="1" />
<text x="111" y="287" font-size="9" fill="#555555" font-weight="normal" text-anchor="middle">GDP</text>
<rect x="209" y="244" width="187" height="78" rx="4" fill="#FFFFFF" stroke="#D0D0D0" stroke-width="1" stroke-dasharray='5,3'/>
<circle cx="18" cy="340" r="4" fill="#4488CC" stroke="#4488CC" stroke-width="1"/>
<circle cx="28" cy="340" r="4" fill="#EBEBEB" stroke="#D0D0D0" stroke-width="1"/>
<rect x="414" y="134" width="398" height="216" rx="8" fill="#F5F5F5" stroke="#D0D0D0" stroke-width="1" />
<text x="424" y="152" font-size="11" fill="#111111" font-weight="bold" text-anchor="start">주식투자</text>
<text x="802" y="152" font-size="10" fill="#999999" font-weight="normal" text-anchor="end">12장</text>
<text x="804" y="150" font-size="9" fill="#999999" font-weight="normal" text-anchor="end">⤢</text>
<rect x="424" y="162" width="187" height="78" rx="4" fill="#EBEBEB" stroke="#D0D0D0" stroke-width="1" />
<text x="517" y="205" font-size="9" fill="#555555" font-weight="normal" text-anchor="middle">테슬라</text>
<rect x="615" y="162" width="187" height="78" rx="4" fill="#EBEBEB" stroke="#D0D0D0" stroke-width="1" />
<text x="708" y="205" font-size="9" fill="#555555" font-weight="normal" text-anchor="middle">엔비디아</text>
<rect x="424" y="244" width="187" height="78" rx="4" fill="#EBEBEB" stroke="#D0D0D0" stroke-width="1" />
<text x="517" y="287" font-size="9" fill="#555555" font-weight="normal" text-anchor="middle">팔란티어</text>
<rect x="615" y="244" width="187" height="78" rx="4" fill="#DDDDDD" stroke="#D0D0D0" stroke-width="1" />
<text x="708" y="287" font-size="11" fill="#555555" font-weight="bold" text-anchor="middle">+9</text>
<circle cx="424" cy="340" r="4" fill="#4488CC" stroke="#4488CC" stroke-width="1"/>
<circle cx="434" cy="340" r="4" fill="#EBEBEB" stroke="#D0D0D0" stroke-width="1"/>
<rect x="820" y="134" width="398" height="216" rx="8" fill="#F5F5F5" stroke="#D0D0D0" stroke-width="1" />
<text x="830" y="152" font-size="11" fill="#111111" font-weight="bold" text-anchor="start">자산분배</text>
<rect x="1166" y="140" width="46" height="16" rx="3" fill="#EBEBEB" stroke="#D0D0D0" stroke-width="1" />
<text x="1170" y="151" font-size="8" fill="#555555" font-weight="normal" text-anchor="start">9×9↓</text>
<text x="1210" y="150" font-size="9" fill="#999999" font-weight="normal" text-anchor="end">⤢</text>
<rect x="830" y="162" width="187" height="78" rx="4" fill="#EBEBEB" stroke="#D0D0D0" stroke-width="1" />
<text x="923" y="205" font-size="9" fill="#555555" font-weight="normal" text-anchor="middle">주식60%</text>
<rect x="1021" y="162" width="187" height="78" rx="4" fill="#EBEBEB" stroke="#D0D0D0" stroke-width="1" />
<text x="1114" y="205" font-size="9" fill="#555555" font-weight="normal" text-anchor="middle">채권20%</text>
<rect x="830" y="244" width="187" height="78" rx="4" fill="#EBEBEB" stroke="#D0D0D0" stroke-width="1" />
<text x="923" y="287" font-size="9" fill="#555555" font-weight="normal" text-anchor="middle">부동산</text>
<rect x="1021" y="244" width="187" height="78" rx="4" fill="#EBEBEB" stroke="#D0D0D0" stroke-width="1" />
<text x="1114" y="287" font-size="9" fill="#555555" font-weight="normal" text-anchor="middle">원자재</text>
<circle cx="830" cy="340" r="4" fill="#CC8800" stroke="#CC8800" stroke-width="1"/>
<circle cx="840" cy="340" r="4" fill="#EBEBEB" stroke="#D0D0D0" stroke-width="1"/>
<rect x="8" y="358" width="398" height="216" rx="8" fill="#F5F5F5" stroke="#D0D0D0" stroke-width="1" />
<text x="18" y="376" font-size="11" fill="#111111" font-weight="bold" text-anchor="start">ETF</text>
<text x="396" y="376" font-size="10" fill="#999999" font-weight="normal" text-anchor="end">8장</text>
<text x="398" y="374" font-size="9" fill="#999999" font-weight="normal" text-anchor="end">⤢</text>
<rect x="18" y="386" width="187" height="78" rx="4" fill="#EBEBEB" stroke="#D0D0D0" stroke-width="1" />
<text x="111" y="429" font-size="9" fill="#555555" font-weight="normal" text-anchor="middle">SPY</text>
<rect x="209" y="386" width="187" height="78" rx="4" fill="#EBEBEB" stroke="#D0D0D0" stroke-width="1" />
<text x="302" y="429" font-size="9" fill="#555555" font-weight="normal" text-anchor="middle">QQQ</text>
<rect x="18" y="468" width="187" height="78" rx="4" fill="#EBEBEB" stroke="#D0D0D0" stroke-width="1" />
<text x="111" y="511" font-size="9" fill="#555555" font-weight="normal" text-anchor="middle">VTI</text>
<rect x="209" y="468" width="187" height="78" rx="4" fill="#DDDDDD" stroke="#D0D0D0" stroke-width="1" />
<text x="302" y="511" font-size="11" fill="#555555" font-weight="bold" text-anchor="middle">+5</text>
<circle cx="18" cy="564" r="4" fill="#338866" stroke="#338866" stroke-width="1"/>
<circle cx="28" cy="564" r="4" fill="#EBEBEB" stroke="#D0D0D0" stroke-width="1"/>
<rect x="414" y="358" width="398" height="216" rx="8" fill="#D0D8E8" stroke="#BBBBBB" stroke-width="1.5" />
<text x="613" y="456" font-size="28" fill="#111111" font-weight="normal" text-anchor="middle">🐱</text>
<rect x="820" y="358" width="398" height="216" rx="8" fill="#F5F5F5" stroke="#D0D0D0" stroke-width="1" />
<text x="830" y="376" font-size="11" fill="#111111" font-weight="bold" text-anchor="start">크립토</text>
<text x="1208" y="376" font-size="10" fill="#999999" font-weight="normal" text-anchor="end">2장</text>
<text x="1210" y="374" font-size="9" fill="#999999" font-weight="normal" text-anchor="end">⤢</text>
<rect x="830" y="386" width="187" height="78" rx="4" fill="#EBEBEB" stroke="#D0D0D0" stroke-width="1" />
<text x="923" y="429" font-size="9" fill="#555555" font-weight="normal" text-anchor="middle">BTC</text>
<rect x="1021" y="386" width="187" height="78" rx="4" fill="#EBEBEB" stroke="#D0D0D0" stroke-width="1" />
<text x="1114" y="429" font-size="9" fill="#555555" font-weight="normal" text-anchor="middle">ETH</text>
<rect x="830" y="468" width="187" height="78" rx="4" fill="#FFFFFF" stroke="#D0D0D0" stroke-width="1" stroke-dasharray='5,3'/>
<rect x="1021" y="468" width="187" height="78" rx="4" fill="#FFFFFF" stroke="#D0D0D0" stroke-width="1" stroke-dasharray='5,3'/>
<circle cx="830" cy="564" r="4" fill="#EBEBEB" stroke="#D0D0D0" stroke-width="1"/>
<rect x="8" y="582" width="398" height="216" rx="8" fill="#FFFFFF" stroke="#D0D0D0" stroke-width="1" stroke-dasharray='5,3'/>
<text x="18" y="600" font-size="11" fill="#111111" font-weight="bold" text-anchor="start">은퇴설계</text>
<text x="396" y="600" font-size="10" fill="#999999" font-weight="normal" text-anchor="end">0장</text>
<text x="398" y="598" font-size="9" fill="#999999" font-weight="normal" text-anchor="end">⤢</text>
<rect x="414" y="582" width="398" height="216" rx="8" fill="#F5F5F5" stroke="#D0D0D0" stroke-width="1" />
<text x="424" y="600" font-size="11" fill="#111111" font-weight="bold" text-anchor="start">실물자산</text>
<text x="802" y="600" font-size="10" fill="#999999" font-weight="normal" text-anchor="end">1장</text>
<text x="804" y="598" font-size="9" fill="#999999" font-weight="normal" text-anchor="end">⤢</text>
<rect x="424" y="610" width="187" height="78" rx="4" fill="#EBEBEB" stroke="#D0D0D0" stroke-width="1" />
<text x="517" y="653" font-size="9" fill="#555555" font-weight="normal" text-anchor="middle">금 ETF</text>
<rect x="615" y="610" width="187" height="78" rx="4" fill="#FFFFFF" stroke="#D0D0D0" stroke-width="1" stroke-dasharray='5,3'/>
<rect x="424" y="692" width="187" height="78" rx="4" fill="#FFFFFF" stroke="#D0D0D0" stroke-width="1" stroke-dasharray='5,3'/>
<rect x="615" y="692" width="187" height="78" rx="4" fill="#FFFFFF" stroke="#D0D0D0" stroke-width="1" stroke-dasharray='5,3'/>
<circle cx="424" cy="788" r="4" fill="#EBEBEB" stroke="#D0D0D0" stroke-width="1"/>
<rect x="820" y="582" width="398" height="216" rx="8" fill="#F5F5F5" stroke="#D0D0D0" stroke-width="1" />
<text x="830" y="600" font-size="11" fill="#111111" font-weight="bold" text-anchor="start">시장전망</text>
<text x="1208" y="600" font-size="10" fill="#999999" font-weight="normal" text-anchor="end">4장</text>
<text x="1210" y="598" font-size="9" fill="#999999" font-weight="normal" text-anchor="end">⤢</text>
<rect x="830" y="610" width="187" height="78" rx="4" fill="#EBEBEB" stroke="#D0D0D0" stroke-width="1" />
<text x="923" y="653" font-size="9" fill="#555555" font-weight="normal" text-anchor="middle">2025</text>
<rect x="1021" y="610" width="187" height="78" rx="4" fill="#EBEBEB" stroke="#D0D0D0" stroke-width="1" />
<text x="1114" y="653" font-size="9" fill="#555555" font-weight="normal" text-anchor="middle">금리</text>
<rect x="830" y="692" width="187" height="78" rx="4" fill="#EBEBEB" stroke="#D0D0D0" stroke-width="1" />
<text x="923" y="735" font-size="9" fill="#555555" font-weight="normal" text-anchor="middle">달러</text>
<rect x="1021" y="692" width="187" height="78" rx="4" fill="#DDDDDD" stroke="#D0D0D0" stroke-width="1" />
<text x="1114" y="735" font-size="11" fill="#555555" font-weight="bold" text-anchor="middle">+1</text>
<circle cx="830" cy="788" r="4" fill="#CC8800" stroke="#CC8800" stroke-width="1"/>
<circle cx="840" cy="788" r="4" fill="#EBEBEB" stroke="#D0D0D0" stroke-width="1"/>
<rect x="1110" y="101" width="100" height="22" rx="6" fill="#EBEBEB" stroke="#D0D0D0" stroke-width="1" />
<text x="1160" y="114" font-size="9" fill="#555555" font-weight="normal" text-anchor="middle">⇄ 좌/우 전환</text>
<text x="12" y="888" font-size="9" fill="#999999">[ WF-26 ] Ideation 패널 우측 배치 · ⇄ 좌우 전환 버튼 · 만다라 좌측 전체 너비</text>
</svg>