<svg width="1440" height="900" viewBox="0 0 1440 900" xmlns="http://www.w3.org/2000/svg" style="background:#FFFFFF;font-family:Arial,sans-serif">
<text x="720" y="30" font-size="16" fill="#111111" font-weight="bold" text-anchor="middle">Insighta — 공통 컴포넌트 시트</text>
<line x1="0" y1="40" x2="1440" y2="40" stroke="#D0D0D0" stroke-width="1" />
<text x="16" y="60" font-size="11" fill="#111111" font-weight="bold" text-anchor="start">1. 카드 컴포넌트 (썸네일형)</text>
<g opacity="1">
<rect x="16" y="70" width="180" height="120" rx="8" fill="#F5F5F5" stroke="#D0D0D0" stroke-width="1" />
<rect x="16" y="70" width="180" height="66" rx="8" fill="#1a2a3a" stroke="none" stroke-width="1" />
<rect x="16" y="128" width="180" height="8" rx="0" fill="#1a2a3a" stroke="none" stroke-width="1" />
<rect x="164" y="76" width="28" height="14" rx="3" fill="#00000066" stroke="none" stroke-width="1" />
<text x="168" y="86" font-size="7" fill="#FFFFFF" font-weight="normal" text-anchor="start">YT</text>
<circle cx="30" cy="84" r="9" fill="#FFFFFF" stroke="#BBBBBB" stroke-width="1.5"/>
<text x="24" y="146" font-size="8" fill="#111111" font-weight="bold" text-anchor="start">테슬라 차세대 문명의 시작</text>
<text x="24" y="160" font-size="8" fill="#999999" font-weight="normal" text-anchor="start">YouTube</text>
<rect x="24" y="170" width="44" height="14" rx="7" fill="#EBEBEB" stroke="#D0D0D0" stroke-width="1" />
<circle cx="30" cy="177" r="3" fill="#4488CC" stroke="#4488CC" stroke-width="1"/>
<text x="36" y="181" font-size="7" fill="#555555" font-weight="normal" text-anchor="start">#테크</text>
</g>
<text x="106" y="204" font-size="9" fill="#999999" font-weight="normal" text-anchor="middle">기본</text>
<g opacity="1">
<rect x="236" y="70" width="180" height="120" rx="8" fill="#F5F5F5" stroke="#4488CC" stroke-width="2" />
<rect x="236" y="70" width="180" height="66" rx="8" fill="#1a2a3a" stroke="none" stroke-width="1" />
<rect x="236" y="128" width="180" height="8" rx="0" fill="#1a2a3a" stroke="none" stroke-width="1" />
<rect x="384" y="76" width="28" height="14" rx="3" fill="#00000066" stroke="none" stroke-width="1" />
<text x="388" y="86" font-size="7" fill="#FFFFFF" font-weight="normal" text-anchor="start">YT</text>
<circle cx="250" cy="84" r="9" fill="#4488CC" stroke="#4488CC" stroke-width="1"/>
<text x="250" y="88" font-size="8" fill="#FFFFFF" font-weight="bold" text-anchor="middle">✓</text>
<text x="244" y="146" font-size="8" fill="#111111" font-weight="bold" text-anchor="start">테슬라 차세대 문명의 시작</text>
<text x="244" y="160" font-size="8" fill="#999999" font-weight="normal" text-anchor="start">YouTube</text>
<rect x="244" y="170" width="44" height="14" rx="7" fill="#EBEBEB" stroke="#D0D0D0" stroke-width="1" />
<circle cx="250" cy="177" r="3" fill="#4488CC" stroke="#4488CC" stroke-width="1"/>
<text x="256" y="181" font-size="7" fill="#555555" font-weight="normal" text-anchor="start">#테크</text>
</g>
<text x="326" y="204" font-size="9" fill="#999999" font-weight="normal" text-anchor="middle">선택됨</text>
<g opacity="0.4">
<rect x="456" y="70" width="180" height="120" rx="8" fill="#F5F5F5" stroke="#D0D0D0" stroke-width="1" />
<rect x="456" y="70" width="180" height="66" rx="8" fill="#1a2a3a" stroke="none" stroke-width="1" />
<rect x="456" y="128" width="180" height="8" rx="0" fill="#1a2a3a" stroke="none" stroke-width="1" />
<rect x="604" y="76" width="28" height="14" rx="3" fill="#00000066" stroke="none" stroke-width="1" />
<text x="608" y="86" font-size="7" fill="#FFFFFF" font-weight="normal" text-anchor="start">YT</text>
<circle cx="470" cy="84" r="9" fill="#FFFFFF" stroke="#BBBBBB" stroke-width="1.5"/>
<text x="464" y="146" font-size="8" fill="#111111" font-weight="bold" text-anchor="start">테슬라 차세대 문명의 시작</text>
<text x="464" y="160" font-size="8" fill="#999999" font-weight="normal" text-anchor="start">YouTube</text>
<rect x="464" y="170" width="44" height="14" rx="7" fill="#EBEBEB" stroke="#D0D0D0" stroke-width="1" />
<circle cx="470" cy="177" r="3" fill="#4488CC" stroke="#4488CC" stroke-width="1"/>
<text x="476" y="181" font-size="7" fill="#555555" font-weight="normal" text-anchor="start">#테크</text>
</g>
<text x="546" y="204" font-size="9" fill="#999999" font-weight="normal" text-anchor="middle">드래그중(40%)</text>
<text x="16" y="220" font-size="11" fill="#111111" font-weight="bold" text-anchor="start">2. Label Pill 시스템</text>
<rect x="16" y="232" width="112" height="22" rx="11" fill="#CCCCCC" stroke="#D0D0D0" stroke-width="1" />
<text x="72" y="247" font-size="9" fill="#111111" font-weight="bold" text-anchor="middle">전체 (active)</text>
<rect x="136" y="232" width="48" height="22" rx="11" fill="#FFFFFF" stroke="#BBBBBB" stroke-width="1" />
<circle cx="146" cy="243" r="4" fill="#4488CC" stroke="#4488CC" stroke-width="1"/>
<text x="154" y="247" font-size="9" fill="#555555" font-weight="normal" text-anchor="start">#테크</text>
<rect x="192" y="232" width="48" height="22" rx="11" fill="#FFFFFF" stroke="#BBBBBB" stroke-width="1" />
<circle cx="202" cy="243" r="4" fill="#CC8800" stroke="#CC8800" stroke-width="1"/>
<text x="210" y="247" font-size="9" fill="#555555" font-weight="normal" text-anchor="start">#투자</text>
<rect x="248" y="232" width="48" height="22" rx="11" fill="#FFFFFF" stroke="#BBBBBB" stroke-width="1" />
<circle cx="258" cy="243" r="4" fill="#338866" stroke="#338866" stroke-width="1"/>
<text x="266" y="247" font-size="9" fill="#555555" font-weight="normal" text-anchor="start">#경제</text>
<text x="16" y="276" font-size="11" fill="#111111" font-weight="bold" text-anchor="start">3. 아바타 세트</text>
<circle cx="36" cy="310" r="20" fill="#EBEBEB" stroke="#111111" stroke-width="2.5"/>
<text x="36" y="316" font-size="16" fill="#111111" font-weight="normal" text-anchor="middle">🐱</text>
<text x="36" y="340" font-size="8" fill="#999999" font-weight="normal" text-anchor="middle">투자</text>
<circle cx="116" cy="310" r="20" fill="#FFFFFF" stroke="#D0D0D0" stroke-width="1"/>
<text x="116" y="316" font-size="16" fill="#111111" font-weight="normal" text-anchor="middle">🦊</text>
<text x="116" y="340" font-size="8" fill="#999999" font-weight="normal" text-anchor="middle">AI/ML</text>
<circle cx="196" cy="310" r="20" fill="#FFFFFF" stroke="#D0D0D0" stroke-width="1"/>
<text x="196" y="316" font-size="16" fill="#111111" font-weight="normal" text-anchor="middle">🐢</text>
<text x="196" y="340" font-size="8" fill="#999999" font-weight="normal" text-anchor="middle">영어</text>
<circle cx="276" cy="310" r="20" fill="#FFFFFF" stroke="#D0D0D0" stroke-width="1"/>
<text x="276" y="316" font-size="16" fill="#111111" font-weight="normal" text-anchor="middle">🤖</text>
<text x="276" y="340" font-size="8" fill="#999999" font-weight="normal" text-anchor="middle">개발</text>
<circle cx="356" cy="310" r="20" fill="#FFFFFF" stroke="#D0D0D0" stroke-width="1"/>
<text x="356" y="316" font-size="16" fill="#111111" font-weight="normal" text-anchor="middle">🦁</text>
<text x="356" y="340" font-size="8" fill="#999999" font-weight="normal" text-anchor="middle">리더십</text>
<circle cx="436" cy="310" r="20" fill="#FFFFFF" stroke="#D0D0D0" stroke-width="1"/>
<text x="436" y="316" font-size="16" fill="#111111" font-weight="normal" text-anchor="middle">🐘</text>
<text x="436" y="340" font-size="8" fill="#999999" font-weight="normal" text-anchor="middle">독서</text>
<text x="16" y="360" font-size="11" fill="#111111" font-weight="bold" text-anchor="start">4. Toast / 알림</text>
<rect x="16" y="376" width="600" height="30" rx="15" fill="#E8FFE8" stroke="#44AA44" stroke-width="1.5" />
<text x="30" y="395" font-size="10" fill="#111111" font-weight="normal" text-anchor="start">✓  주식투자 섹터에 배치됨     되돌리기</text>
<rect x="16" y="416" width="600" height="30" rx="15" fill="#FFF3D0" stroke="#CC9900" stroke-width="1.5" />
<text x="30" y="435" font-size="10" fill="#111111" font-weight="normal" text-anchor="start">!  드래그 시작 — 목적지를 선택하세요</text>
<rect x="16" y="456" width="600" height="30" rx="15" fill="#FFE8E8" stroke="#CC4444" stroke-width="1.5" />
<text x="30" y="475" font-size="10" fill="#111111" font-weight="normal" text-anchor="start">✕  오류 — 다시 시도해주세요</text>
<text x="16" y="510" font-size="11" fill="#111111" font-weight="bold" text-anchor="start">5. Zoom Slider + Breadcrumb</text>
<text x="16" y="530" font-size="9" fill="#999999" font-weight="normal" text-anchor="start">Lv.0</text>
<line x1="46" y1="526" x2="246" y2="526" stroke="#BBBBBB" stroke-width="3" />
<circle cx="46" cy="526" r="5" fill="#111111" stroke="#BBBBBB" stroke-width="1"/>
<circle cx="112" cy="526" r="5" fill="#EBEBEB" stroke="#BBBBBB" stroke-width="1"/>
<circle cx="178" cy="526" r="5" fill="#EBEBEB" stroke="#BBBBBB" stroke-width="1"/>
<circle cx="244" cy="526" r="5" fill="#EBEBEB" stroke="#BBBBBB" stroke-width="1"/>
<circle cx="112" cy="526" r="6" fill="#111111" stroke="#FFFFFF" stroke-width="2"/>
<text x="256" y="530" font-size="9" fill="#999999" font-weight="normal" text-anchor="start">Lv.1</text>
<text x="290" y="530" font-size="9" fill="#999999" font-weight="normal" text-anchor="start">섹터</text>
<text x="16" y="558" font-size="11" fill="#999999" font-weight="normal" text-anchor="start">전체 만다라</text>
<text x="66" y="558" font-size="11" fill="#BBBBBB" font-weight="normal" text-anchor="start">/</text>
<text x="80" y="558" font-size="11" fill="#999999" font-weight="normal" text-anchor="start">투자</text>
<text x="102" y="558" font-size="11" fill="#BBBBBB" font-weight="normal" text-anchor="start">/</text>
<text x="116" y="558" font-size="11" fill="#999999" font-weight="normal" text-anchor="start">자산분배</text>
<text x="152" y="558" font-size="11" fill="#BBBBBB" font-weight="normal" text-anchor="start">/</text>
<text x="166" y="558" font-size="11" fill="#111111" font-weight="bold" text-anchor="start">크립토</text>
<text x="16" y="580" font-size="11" fill="#111111" font-weight="bold" text-anchor="start">6. D&D 드롭 존 상태</text>
<rect x="16" y="594" width="160" height="70" rx="8" fill="none" stroke="#D0D0D0" stroke-width="1.5" />
<text x="96" y="676" font-size="9" fill="#999999" font-weight="normal" text-anchor="middle">기본</text>
<rect x="216" y="594" width="160" height="70" rx="8" fill="#E8FFE8" stroke="#44AA44" stroke-width="1.5" stroke-dasharray='5,3'/>
<text x="296" y="629" font-size="10" fill="#44AA44" font-weight="bold" text-anchor="middle">여기에 드롭</text>
<text x="296" y="676" font-size="9" fill="#999999" font-weight="normal" text-anchor="middle">hover</text>
<rect x="416" y="594" width="160" height="70" rx="8" fill="#F8F8F8" stroke="#BBBBBB" stroke-width="1.5" stroke-dasharray='5,3'/>
<text x="496" y="629" font-size="10" fill="#999999" font-weight="normal" text-anchor="middle">드롭 불가</text>
<text x="496" y="676" font-size="9" fill="#999999" font-weight="normal" text-anchor="middle">invalid</text>
<text x="16" y="700" font-size="11" fill="#111111" font-weight="bold" text-anchor="start">7. 만다라 Center Cell (아바타only)</text>
<rect x="16" y="714" width="120" height="80" rx="8" fill="#D0D8E8" stroke="#BBBBBB" stroke-width="1.5" />
<text x="76" y="754" font-size="28" fill="#111111" font-weight="normal" text-anchor="middle">🐱</text>
<text x="160" y="754" font-size="10" fill="#999999" font-weight="normal" text-anchor="start">아바타만 표시, 제목 없음</text>
<text x="12" y="888" font-size="9" fill="#999999">[ WF-28 ] 공통 컴포넌트 시트 · 카드 3상태 · Label pill · 아바타 · Toast · Zoom slider · BC · D&D존 · Center cell</text>
</svg>