<svg width="1440" height="900" viewBox="0 0 1440 900" xmlns="http://www.w3.org/2000/svg" style="background:#FFFFFF;font-family:Arial,sans-serif">
<rect x="0" y="0" width="1440" height="44" rx="0" fill="#F0F0F0" stroke="#D0D0D0" stroke-width="1" />
<rect x="14" y="11" width="22" height="22" rx="4" fill="#CCCCCC" stroke="#D0D0D0" stroke-width="1" />
<text x="42" y="28" font-size="13" fill="#111111" font-weight="bold" text-anchor="start">Insighta</text>
<rect x="100" y="14" width="28" height="16" rx="3" fill="#EBEBEB" stroke="#D0D0D0" stroke-width="1" />
<text x="103" y="26" font-size="9" fill="#555555" font-weight="normal" text-anchor="start">DEV</text>
<rect x="132" y="14" width="34" height="16" rx="3" fill="#EBEBEB" stroke="#D0D0D0" stroke-width="1" />
<text x="135" y="26" font-size="9" fill="#555555" font-weight="normal" text-anchor="start">BETA</text>
<rect x="480" y="9" width="480" height="26" rx="13" fill="#FFFFFF" stroke="#D0D0D0" stroke-width="1" />
<text x="498" y="27" font-size="11" fill="#999999" font-weight="normal" text-anchor="start">Search cards...  (⌘K)</text>
<text x="1230" y="28" font-size="11" fill="#555555" font-weight="normal" text-anchor="start">KO</text>
<circle cx="1278" cy="22" r="10" fill="#EBEBEB" stroke="#D0D0D0" stroke-width="1"/>
<circle cx="1416" cy="22" r="16" fill="#CCCCCC" stroke="#D0D0D0" stroke-width="1"/>
<text x="1410" y="26" font-size="10" fill="#111111" font-weight="bold" text-anchor="middle">JK</text>
<rect x="0" y="44" width="1440" height="52" rx="0" fill="#F7F7F7" stroke="#D0D0D0" stroke-width="1" />
<text x="14" y="57" font-size="9" fill="#999999" font-weight="normal" text-anchor="start">← 2025.03 포트폴리오</text>
<line x1="14" y1="82" x2="1426" y2="82" stroke="#BBBBBB" stroke-width="1" />
<rect x="274" y="66" width="8" height="5" rx="1" fill="#EBEBEB" stroke="#D0D0D0" stroke-width="1" />
<rect x="284" y="66" width="8" height="5" rx="1" fill="#D0D0D0" stroke="#D0D0D0" stroke-width="1" />
<circle cx="280" cy="82" r="4" fill="#EBEBEB" stroke="#BBBBBB" stroke-width="1"/>
<text x="280" y="62" font-size="7" fill="#999999" font-weight="normal" text-anchor="middle">AI관심</text>
<rect x="534" y="66" width="8" height="5" rx="1" fill="#EBEBEB" stroke="#D0D0D0" stroke-width="1" />
<rect x="544" y="66" width="8" height="5" rx="1" fill="#D0D0D0" stroke="#D0D0D0" stroke-width="1" />
<circle cx="540" cy="82" r="4" fill="#EBEBEB" stroke="#BBBBBB" stroke-width="1"/>
<text x="540" y="62" font-size="7" fill="#999999" font-weight="normal" text-anchor="middle">ETF집중</text>
<rect x="814" y="66" width="8" height="5" rx="1" fill="#EBEBEB" stroke="#D0D0D0" stroke-width="1" />
<rect x="824" y="66" width="8" height="5" rx="1" fill="#D0D0D0" stroke="#D0D0D0" stroke-width="1" />
<circle cx="820" cy="82" r="4" fill="#EBEBEB" stroke="#BBBBBB" stroke-width="1"/>
<text x="820" y="62" font-size="7" fill="#999999" font-weight="normal" text-anchor="middle">영어추가</text>
<rect x="1054" y="66" width="8" height="5" rx="1" fill="#EBEBEB" stroke="#D0D0D0" stroke-width="1" />
<rect x="1064" y="66" width="8" height="5" rx="1" fill="#D0D0D0" stroke="#D0D0D0" stroke-width="1" />
<circle cx="1060" cy="82" r="4" fill="#EBEBEB" stroke="#BBBBBB" stroke-width="1"/>
<text x="1060" y="62" font-size="7" fill="#999999" font-weight="normal" text-anchor="middle">포트폴리오</text>
<line x1="1420" y1="48" x2="1420" y2="94" stroke="#111111" stroke-width="2" />
<circle cx="1420" cy="92" r="5" fill="#111111" stroke="#FFFFFF" stroke-width="2"/>
<text x="1414" y="57" font-size="8" fill="#111111" font-weight="bold" text-anchor="end">현재</text>
<rect x="0" y="96" width="1440" height="30" rx="0" fill="#FFFBE0" stroke="#DDBB00" stroke-width="1" />
<text x="12" y="115" font-size="11" fill="#886600" font-weight="bold" text-anchor="start">Zoom Drill-down: Lv.1 → Lv.2 → Lv.3   (슬라이더 또는 셀 클릭으로 이동)</text>
<rect x="16" y="132" width="460" height="680" rx="8" fill="#FFFFFF" stroke="#BBBBBB" stroke-width="1.5" />
<rect x="16" y="132" width="460" height="36" rx="8" fill="#EBEBEB" stroke="#D0D0D0" stroke-width="1" />
<rect x="16" y="160" width="460" height="8" rx="0" fill="#EBEBEB" stroke="none" stroke-width="1" />
<text x="246" y="148" font-size="11" fill="#111111" font-weight="bold" text-anchor="middle">Lv.1  투자 섹터</text>
<text x="246" y="160" font-size="9" fill="#999999" font-weight="normal" text-anchor="middle">전체 9×9</text>
<text x="24" y="180" font-size="10" fill="#111111" font-weight="bold" text-anchor="start">Lv.1</text>
<line x1="52" y1="176" x2="440" y2="176" stroke="#BBBBBB" stroke-width="3" />
<circle cx="52" cy="176" r="6" fill="#111111" stroke="#FFFFFF" stroke-width="2"/>
<rect x="24" y="196" width="145" height="72" rx="4" fill="#EBEBEB" stroke="#D0D0D0" stroke-width="1" />
<text x="96" y="236" font-size="7" fill="#999999" font-weight="normal" text-anchor="middle">기시경제</text>
<rect x="173" y="196" width="145" height="72" rx="4" fill="#EBEBEB" stroke="#D0D0D0" stroke-width="1" />
<text x="245" y="236" font-size="7" fill="#999999" font-weight="normal" text-anchor="middle">주식투자</text>
<rect x="322" y="196" width="145" height="72" rx="4" fill="#EBEBEB" stroke="#D0D0D0" stroke-width="1" />
<text x="394" y="236" font-size="7" fill="#999999" font-weight="normal" text-anchor="middle">자산분배</text>
<rect x="24" y="272" width="145" height="72" rx="4" fill="#EBEBEB" stroke="#D0D0D0" stroke-width="1" />
<text x="96" y="312" font-size="7" fill="#999999" font-weight="normal" text-anchor="middle">ETF</text>
<rect x="173" y="272" width="145" height="72" rx="4" fill="#D0D8E8" stroke="#BBBBBB" stroke-width="1" />
<text x="245" y="312" font-size="12" fill="#111111" font-weight="normal" text-anchor="middle">🐱</text>
<rect x="322" y="272" width="145" height="72" rx="4" fill="#EBEBEB" stroke="#D0D0D0" stroke-width="1" />
<text x="394" y="312" font-size="7" fill="#999999" font-weight="normal" text-anchor="middle">크립토</text>
<rect x="24" y="348" width="145" height="72" rx="4" fill="#EBEBEB" stroke="#D0D0D0" stroke-width="1" />
<text x="96" y="388" font-size="7" fill="#999999" font-weight="normal" text-anchor="middle">은퇴설계</text>
<rect x="173" y="348" width="145" height="72" rx="4" fill="#EBEBEB" stroke="#D0D0D0" stroke-width="1" />
<text x="245" y="388" font-size="7" fill="#999999" font-weight="normal" text-anchor="middle">실물자산</text>
<rect x="322" y="348" width="145" height="72" rx="4" fill="#EBEBEB" stroke="#D0D0D0" stroke-width="1" />
<text x="394" y="388" font-size="7" fill="#999999" font-weight="normal" text-anchor="middle">시장전망</text>
<text x="483" y="476" font-size="14" fill="#555555" font-weight="bold" text-anchor="middle">→</text>
<rect x="490" y="132" width="460" height="680" rx="8" fill="#FFFFFF" stroke="#BBBBBB" stroke-width="1.5" />
<rect x="490" y="132" width="460" height="36" rx="8" fill="#EBEBEB" stroke="#D0D0D0" stroke-width="1" />
<rect x="490" y="160" width="460" height="8" rx="0" fill="#EBEBEB" stroke="none" stroke-width="1" />
<text x="720" y="148" font-size="11" fill="#111111" font-weight="bold" text-anchor="middle">Lv.2  자산분배 하위</text>
<text x="720" y="160" font-size="9" fill="#999999" font-weight="normal" text-anchor="middle">서브 9×9</text>
<text x="498" y="180" font-size="10" fill="#111111" font-weight="bold" text-anchor="start">Lv.2</text>
<line x1="526" y1="176" x2="914" y2="176" stroke="#BBBBBB" stroke-width="3" />
<circle cx="720" cy="176" r="6" fill="#111111" stroke="#FFFFFF" stroke-width="2"/>
<rect x="498" y="196" width="145" height="72" rx="4" fill="#EBEBEB" stroke="#D0D0D0" stroke-width="1" />
<text x="570" y="236" font-size="7" fill="#999999" font-weight="normal" text-anchor="middle">국내주식</text>
<rect x="647" y="196" width="145" height="72" rx="4" fill="#EBEBEB" stroke="#D0D0D0" stroke-width="1" />
<text x="719" y="236" font-size="7" fill="#999999" font-weight="normal" text-anchor="middle">해외주식</text>
<rect x="796" y="196" width="145" height="72" rx="4" fill="#EBEBEB" stroke="#D0D0D0" stroke-width="1" />
<text x="868" y="236" font-size="7" fill="#999999" font-weight="normal" text-anchor="middle">채권</text>
<rect x="498" y="272" width="145" height="72" rx="4" fill="#EBEBEB" stroke="#D0D0D0" stroke-width="1" />
<text x="570" y="312" font-size="7" fill="#999999" font-weight="normal" text-anchor="middle">부동산</text>
<rect x="647" y="272" width="145" height="72" rx="4" fill="#D0D8E8" stroke="#BBBBBB" stroke-width="1" />
<text x="719" y="312" font-size="12" fill="#111111" font-weight="normal" text-anchor="middle">📊</text>
<rect x="796" y="272" width="145" height="72" rx="4" fill="#EBEBEB" stroke="#D0D0D0" stroke-width="1" />
<text x="868" y="312" font-size="7" fill="#999999" font-weight="normal" text-anchor="middle">원자재</text>
<rect x="498" y="348" width="145" height="72" rx="4" fill="#EBEBEB" stroke="#D0D0D0" stroke-width="1" />
<text x="570" y="388" font-size="7" fill="#999999" font-weight="normal" text-anchor="middle">현금</text>
<rect x="647" y="348" width="145" height="72" rx="4" fill="#EBEBEB" stroke="#D0D0D0" stroke-width="1" />
<text x="719" y="388" font-size="7" fill="#999999" font-weight="normal" text-anchor="middle">대안투자</text>
<rect x="796" y="348" width="145" height="72" rx="4" fill="#EBEBEB" stroke="#D0D0D0" stroke-width="1" />
<text x="868" y="388" font-size="7" fill="#999999" font-weight="normal" text-anchor="middle">리밸런싱</text>
<text x="957" y="476" font-size="14" fill="#555555" font-weight="bold" text-anchor="middle">→</text>
<rect x="964" y="132" width="460" height="680" rx="8" fill="#FFFFFF" stroke="#BBBBBB" stroke-width="1.5" />
<rect x="964" y="132" width="460" height="36" rx="8" fill="#EBEBEB" stroke="#D0D0D0" stroke-width="1" />
<rect x="964" y="160" width="460" height="8" rx="0" fill="#EBEBEB" stroke="none" stroke-width="1" />
<text x="1194" y="148" font-size="11" fill="#111111" font-weight="bold" text-anchor="middle">Lv.3  해외주식 카드</text>
<text x="1194" y="160" font-size="9" fill="#999999" font-weight="normal" text-anchor="middle">카드 집중</text>
<text x="972" y="180" font-size="10" fill="#111111" font-weight="bold" text-anchor="start">Lv.3</text>
<line x1="1000" y1="176" x2="1388" y2="176" stroke="#BBBBBB" stroke-width="3" />
<circle cx="1388" cy="176" r="6" fill="#111111" stroke="#FFFFFF" stroke-width="2"/>
<rect x="972" y="196" width="444" height="90" rx="6" fill="#F5F5F5" stroke="#D0D0D0" stroke-width="1" />
<rect x="972" y="196" width="444" height="50" rx="6" fill="#1a2a3a" stroke="none" stroke-width="1" />
<rect x="972" y="238" width="444" height="8" rx="0" fill="#1a2a3a" stroke="none" stroke-width="1" />
<text x="980" y="258" font-size="9" fill="#111111" font-weight="bold" text-anchor="start">테슬라</text>
<rect x="972" y="296" width="444" height="90" rx="6" fill="#F5F5F5" stroke="#D0D0D0" stroke-width="1" />
<rect x="972" y="296" width="444" height="50" rx="6" fill="#2a1a3a" stroke="none" stroke-width="1" />
<rect x="972" y="338" width="444" height="8" rx="0" fill="#2a1a3a" stroke="none" stroke-width="1" />
<text x="980" y="358" font-size="9" fill="#111111" font-weight="bold" text-anchor="start">엔비디아</text>
<rect x="972" y="396" width="444" height="90" rx="6" fill="#F5F5F5" stroke="#D0D0D0" stroke-width="1" />
<rect x="972" y="396" width="444" height="50" rx="6" fill="#1a3a2a" stroke="none" stroke-width="1" />
<rect x="972" y="438" width="444" height="8" rx="0" fill="#1a3a2a" stroke="none" stroke-width="1" />
<text x="980" y="458" font-size="9" fill="#111111" font-weight="bold" text-anchor="start">S&P500</text>
<rect x="972" y="496" width="444" height="90" rx="6" fill="#F5F5F5" stroke="#D0D0D0" stroke-width="1" />
<rect x="972" y="496" width="444" height="50" rx="6" fill="#3a2a1a" stroke="none" stroke-width="1" />
<rect x="972" y="538" width="444" height="8" rx="0" fill="#3a2a1a" stroke="none" stroke-width="1" />
<text x="980" y="558" font-size="9" fill="#111111" font-weight="bold" text-anchor="start">애플</text>
<rect x="972" y="596" width="444" height="30" rx="0" fill="#EBEBEB" stroke="#D0D0D0" stroke-width="1" />
<text x="1194" y="614" font-size="8" fill="#999999" font-weight="normal" text-anchor="middle">국내 | 해외 | 채권 | ...</text>
<text x="12" y="888" font-size="9" fill="#999999">[ WF-22 ] Drill-down 플로우 · Lv.1 → Lv.2 → Lv.3 · 슬라이더 + BC 연동 · 클릭으로 진입</text>
</svg>