<svg width="1440" height="900" viewBox="0 0 1440 900" xmlns="http://www.w3.org/2000/svg" style="background:#FFFFFF;font-family:Arial,sans-serif">
<rect x="0" y="0" width="1440" height="900" rx="0" fill="#FFFFFF" stroke="none" stroke-width="1" />
<rect x="0" y="0" width="1440" height="50" rx="0" fill="#F0F0F0" stroke="#D0D0D0" stroke-width="1" />
<text x="16" y="31" font-size="14" fill="#111111" font-weight="bold" text-anchor="start">주식투자 — 전체 카드</text>
<rect x="1340" y="12" width="88" height="28" rx="6" fill="#F5F5F5" stroke="#D0D0D0" stroke-width="1" />
<text x="1384" y="30" font-size="11" fill="#555555" font-weight="normal" text-anchor="middle">✕ 닫기</text>
<g opacity="0.3">
<rect x="16" y="56" width="220" height="180" rx="8" fill="#F5F5F5" stroke="#D0D0D0" stroke-width="1" />
<rect x="16" y="56" width="220" height="99" rx="8" fill="#1a2a3a" stroke="none" stroke-width="1" />
<rect x="16" y="147" width="220" height="8" rx="0" fill="#1a2a3a" stroke="none" stroke-width="1" />
</g>
<g opacity="1">
<rect x="248" y="56" width="220" height="180" rx="8" fill="#F5F5F5" stroke="#D0D0D0" stroke-width="1" />
<rect x="248" y="56" width="220" height="99" rx="8" fill="#2a1a3a" stroke="none" stroke-width="1" />
<rect x="248" y="147" width="220" height="8" rx="0" fill="#2a1a3a" stroke="none" stroke-width="1" />
</g>
<g opacity="0.3">
<rect x="480" y="56" width="220" height="180" rx="8" fill="#F5F5F5" stroke="#D0D0D0" stroke-width="1" />
<rect x="480" y="56" width="220" height="99" rx="8" fill="#1a3a2a" stroke="none" stroke-width="1" />
<rect x="480" y="147" width="220" height="8" rx="0" fill="#1a3a2a" stroke="none" stroke-width="1" />
</g>
<g opacity="1">
<rect x="712" y="56" width="220" height="180" rx="8" fill="#F5F5F5" stroke="#D0D0D0" stroke-width="1" />
<rect x="712" y="56" width="220" height="99" rx="8" fill="#3a2a1a" stroke="none" stroke-width="1" />
<rect x="712" y="147" width="220" height="8" rx="0" fill="#3a2a1a" stroke="none" stroke-width="1" />
</g>
<g opacity="0.3">
<rect x="944" y="56" width="220" height="180" rx="8" fill="#F5F5F5" stroke="#D0D0D0" stroke-width="1" />
<rect x="944" y="56" width="220" height="99" rx="8" fill="#1a1a3a" stroke="none" stroke-width="1" />
<rect x="944" y="147" width="220" height="8" rx="0" fill="#1a1a3a" stroke="none" stroke-width="1" />
</g>
<g opacity="1">
<rect x="16" y="248" width="220" height="180" rx="8" fill="#F5F5F5" stroke="#D0D0D0" stroke-width="1" />
<rect x="16" y="248" width="220" height="99" rx="8" fill="#2a3a1a" stroke="none" stroke-width="1" />
<rect x="16" y="339" width="220" height="8" rx="0" fill="#2a3a1a" stroke="none" stroke-width="1" />
</g>
<g opacity="1">
<rect x="248" y="248" width="220" height="180" rx="8" fill="#F5F5F5" stroke="#D0D0D0" stroke-width="1" />
<rect x="248" y="248" width="220" height="99" rx="8" fill="#3a1a1a" stroke="none" stroke-width="1" />
<rect x="248" y="339" width="220" height="8" rx="0" fill="#3a1a1a" stroke="none" stroke-width="1" />
</g>
<g opacity="1">
<rect x="480" y="248" width="220" height="180" rx="8" fill="#F5F5F5" stroke="#D0D0D0" stroke-width="1" />
<rect x="480" y="248" width="220" height="99" rx="8" fill="#1a2a3a" stroke="none" stroke-width="1" />
<rect x="480" y="339" width="220" height="8" rx="0" fill="#1a2a3a" stroke="none" stroke-width="1" />
</g>
<g opacity="1">
<rect x="712" y="248" width="220" height="180" rx="8" fill="#F5F5F5" stroke="#D0D0D0" stroke-width="1" />
<rect x="712" y="248" width="220" height="99" rx="8" fill="#2a1a3a" stroke="none" stroke-width="1" />
<rect x="712" y="339" width="220" height="8" rx="0" fill="#2a1a3a" stroke="none" stroke-width="1" />
</g>
<g opacity="1">
<rect x="944" y="248" width="220" height="180" rx="8" fill="#F5F5F5" stroke="#D0D0D0" stroke-width="1" />
<rect x="944" y="248" width="220" height="99" rx="8" fill="#1a3a1a" stroke="none" stroke-width="1" />
<rect x="944" y="339" width="220" height="8" rx="0" fill="#1a3a1a" stroke="none" stroke-width="1" />
</g>
<rect x="0" y="850" width="1440" height="50" rx="0" fill="#E8FFE8" stroke="#44AA44" stroke-width="1" />
<circle cx="20" cy="875" r="8" fill="#44AA44" stroke="#44AA44" stroke-width="1"/>
<text x="36" y="879" font-size="13" fill="#111111" font-weight="bold" text-anchor="start">3장을 ETF 섹터로 이동했습니다</text>
<rect x="1310" y="858" width="120" height="30" rx="15" fill="#FFFFFF" stroke="#4488CC" stroke-width="1" />
<text x="1370" y="877" font-size="10" fill="#4488CC" font-weight="bold" text-anchor="middle">되돌리기</text>
<text x="12" y="888" font-size="9" fill="#999999">[ WF-20 ] 네비게이터 드롭 완료 · 이동된 카드 faded · 결과 바 · 되돌리기 버튼</text>
</svg>