<svg width="1440" height="900" viewBox="0 0 1440 900" xmlns="http://www.w3.org/2000/svg" style="background:#FFFFFF;font-family:Arial,sans-serif">
<rect x="0" y="0" width="1440" height="44" rx="0" fill="#F0F0F0" stroke="#D0D0D0" stroke-width="1" />
<rect x="14" y="11" width="22" height="22" rx="4" fill="#CCCCCC" stroke="#D0D0D0" stroke-width="1" />
<text x="42" y="28" font-size="13" fill="#111111" font-weight="bold" text-anchor="start">Insighta</text>
<rect x="100" y="14" width="28" height="16" rx="3" fill="#EBEBEB" stroke="#D0D0D0" stroke-width="1" />
<text x="103" y="26" font-size="9" fill="#555555" font-weight="normal" text-anchor="start">DEV</text>
<rect x="132" y="14" width="34" height="16" rx="3" fill="#EBEBEB" stroke="#D0D0D0" stroke-width="1" />
<text x="135" y="26" font-size="9" fill="#555555" font-weight="normal" text-anchor="start">BETA</text>
<rect x="480" y="9" width="480" height="26" rx="13" fill="#FFFFFF" stroke="#D0D0D0" stroke-width="1" />
<text x="498" y="27" font-size="11" fill="#999999" font-weight="normal" text-anchor="start">Search cards...  (⌘K)</text>
<text x="1230" y="28" font-size="11" fill="#555555" font-weight="normal" text-anchor="start">KO</text>
<circle cx="1278" cy="22" r="10" fill="#EBEBEB" stroke="#D0D0D0" stroke-width="1"/>
<circle cx="1416" cy="22" r="16" fill="#CCCCCC" stroke="#D0D0D0" stroke-width="1"/>
<text x="1410" y="26" font-size="10" fill="#111111" font-weight="bold" text-anchor="middle">JK</text>
<rect x="0" y="44" width="1440" height="52" rx="0" fill="#F7F7F7" stroke="#D0D0D0" stroke-width="1" />
<text x="14" y="57" font-size="9" fill="#999999" font-weight="normal" text-anchor="start">← 2025.03 포트폴리오</text>
<line x1="14" y1="82" x2="1426" y2="82" stroke="#BBBBBB" stroke-width="1" />
<rect x="274" y="66" width="8" height="5" rx="1" fill="#EBEBEB" stroke="#D0D0D0" stroke-width="1" />
<rect x="284" y="66" width="8" height="5" rx="1" fill="#D0D0D0" stroke="#D0D0D0" stroke-width="1" />
<circle cx="280" cy="82" r="4" fill="#EBEBEB" stroke="#BBBBBB" stroke-width="1"/>
<text x="280" y="62" font-size="7" fill="#999999" font-weight="normal" text-anchor="middle">AI관심</text>
<rect x="534" y="66" width="8" height="5" rx="1" fill="#EBEBEB" stroke="#D0D0D0" stroke-width="1" />
<rect x="544" y="66" width="8" height="5" rx="1" fill="#D0D0D0" stroke="#D0D0D0" stroke-width="1" />
<circle cx="540" cy="82" r="4" fill="#EBEBEB" stroke="#BBBBBB" stroke-width="1"/>
<text x="540" y="62" font-size="7" fill="#999999" font-weight="normal" text-anchor="middle">ETF집중</text>
<rect x="814" y="66" width="8" height="5" rx="1" fill="#EBEBEB" stroke="#D0D0D0" stroke-width="1" />
<rect x="824" y="66" width="8" height="5" rx="1" fill="#D0D0D0" stroke="#D0D0D0" stroke-width="1" />
<circle cx="820" cy="82" r="4" fill="#EBEBEB" stroke="#BBBBBB" stroke-width="1"/>
<text x="820" y="62" font-size="7" fill="#999999" font-weight="normal" text-anchor="middle">영어추가</text>
<rect x="1054" y="66" width="8" height="5" rx="1" fill="#EBEBEB" stroke="#D0D0D0" stroke-width="1" />
<rect x="1064" y="66" width="8" height="5" rx="1" fill="#D0D0D0" stroke="#D0D0D0" stroke-width="1" />
<circle cx="1060" cy="82" r="4" fill="#EBEBEB" stroke="#BBBBBB" stroke-width="1"/>
<text x="1060" y="62" font-size="7" fill="#999999" font-weight="normal" text-anchor="middle">포트폴리오</text>
<line x1="1420" y1="48" x2="1420" y2="94" stroke="#111111" stroke-width="2" />
<circle cx="1420" cy="92" r="5" fill="#111111" stroke="#FFFFFF" stroke-width="2"/>
<text x="1414" y="57" font-size="8" fill="#111111" font-weight="bold" text-anchor="end">현재</text>
<rect x="0" y="96" width="36" height="804" rx="0" fill="#EBEBEB" stroke="#D0D0D0" stroke-width="1" />
<rect x="6" y="100" width="24" height="24" rx="6" fill="#CCCCCC" stroke="#D0D0D0" stroke-width="1" />
<text x="14" y="116" font-size="10" fill="#555555" font-weight="normal" text-anchor="middle">◈</text>
<text x="18" y="300" font-size="9" fill="#999999" text-anchor="middle" transform="rotate(-90,18,300)">Ideation</text>
<rect x="36" y="96" width="1404" height="30" rx="0" fill="#FFFFFF" stroke="#D0D0D0" stroke-width="1" />
<text x="48" y="116" font-size="11" fill="#999999" font-weight="normal" text-anchor="start">전체 만다라</text>
<text x="96" y="116" font-size="11" fill="#BBBBBB" font-weight="normal" text-anchor="start">/</text>
<text x="108" y="116" font-size="11" fill="#111111" font-weight="bold" text-anchor="start">투자</text>
<text x="1120" y="116" font-size="9" fill="#999999" font-weight="normal" text-anchor="start">Lv.1</text>
<line x1="1150" y1="111" x2="1250" y2="111" stroke="#BBBBBB" stroke-width="3" />
<circle cx="1200" cy="111" r="6" fill="#111111" stroke="#FFFFFF" stroke-width="2"/>
<text x="1260" y="116" font-size="9" fill="#999999" font-weight="normal" text-anchor="start">섹터</text>
<rect x="1300" y="101" width="24" height="22" rx="4" fill="#EBEBEB" stroke="#D0D0D0" stroke-width="1" />
<text x="1312" y="116" font-size="11" fill="#555555" font-weight="normal" text-anchor="middle">⊞</text>
<rect x="1328" y="101" width="24" height="22" rx="4" fill="#FFFFFF" stroke="#D0D0D0" stroke-width="1" />
<text x="1340" y="116" font-size="11" fill="#555555" font-weight="normal" text-anchor="middle">≡</text>
<rect x="1356" y="101" width="24" height="22" rx="4" fill="#FFFFFF" stroke="#D0D0D0" stroke-width="1" />
<text x="1368" y="116" font-size="11" fill="#555555" font-weight="normal" text-anchor="middle">◫</text>
<rect x="1384" y="101" width="24" height="22" rx="4" fill="#FFFFFF" stroke="#D0D0D0" stroke-width="1" />
<text x="1396" y="116" font-size="11" fill="#555555" font-weight="normal" text-anchor="middle">⊕</text>
<rect x="44" y="134" width="460" height="226" rx="8" fill="#F5F5F5" stroke="#D0D0D0" stroke-width="1" />
<text x="54" y="152" font-size="11" fill="#111111" font-weight="bold" text-anchor="start">기시경제</text>
<text x="494" y="152" font-size="10" fill="#999999" font-weight="normal" text-anchor="end">3장</text>
<text x="496" y="150" font-size="9" fill="#999999" font-weight="normal" text-anchor="end">⤢</text>
<rect x="54" y="162" width="218" height="83" rx="4" fill="#EBEBEB" stroke="#D0D0D0" stroke-width="1" />
<text x="163" y="207" font-size="9" fill="#555555" font-weight="normal" text-anchor="middle">연준 금리</text>
<rect x="276" y="162" width="218" height="83" rx="4" fill="#EBEBEB" stroke="#D0D0D0" stroke-width="1" />
<text x="385" y="207" font-size="9" fill="#555555" font-weight="normal" text-anchor="middle">인플레</text>
<rect x="54" y="249" width="218" height="83" rx="4" fill="#EBEBEB" stroke="#D0D0D0" stroke-width="1" />
<text x="163" y="294" font-size="9" fill="#555555" font-weight="normal" text-anchor="middle">GDP</text>
<rect x="276" y="249" width="218" height="83" rx="4" fill="#FFFFFF" stroke="#D0D0D0" stroke-width="1" stroke-dasharray='5,3'/>
<circle cx="54" cy="350" r="4" fill="#4488CC" stroke="#4488CC" stroke-width="1"/>
<circle cx="64" cy="350" r="4" fill="#EBEBEB" stroke="#D0D0D0" stroke-width="1"/>
<rect x="512" y="134" width="460" height="226" rx="8" fill="#F5F5F5" stroke="#D0D0D0" stroke-width="1" />
<text x="522" y="152" font-size="11" fill="#111111" font-weight="bold" text-anchor="start">주식투자</text>
<text x="962" y="152" font-size="10" fill="#999999" font-weight="normal" text-anchor="end">12장</text>
<text x="964" y="150" font-size="9" fill="#999999" font-weight="normal" text-anchor="end">⤢</text>
<rect x="522" y="162" width="218" height="83" rx="4" fill="#EBEBEB" stroke="#D0D0D0" stroke-width="1" />
<text x="631" y="207" font-size="9" fill="#555555" font-weight="normal" text-anchor="middle">테슬라</text>
<rect x="744" y="162" width="218" height="83" rx="4" fill="#EBEBEB" stroke="#D0D0D0" stroke-width="1" />
<text x="853" y="207" font-size="9" fill="#555555" font-weight="normal" text-anchor="middle">엔비디아</text>
<rect x="522" y="249" width="218" height="83" rx="4" fill="#EBEBEB" stroke="#D0D0D0" stroke-width="1" />
<text x="631" y="294" font-size="9" fill="#555555" font-weight="normal" text-anchor="middle">팔란티어</text>
<rect x="744" y="249" width="218" height="83" rx="4" fill="#DDDDDD" stroke="#D0D0D0" stroke-width="1" />
<text x="853" y="294" font-size="11" fill="#555555" font-weight="bold" text-anchor="middle">+9</text>
<circle cx="522" cy="350" r="4" fill="#4488CC" stroke="#4488CC" stroke-width="1"/>
<circle cx="532" cy="350" r="4" fill="#EBEBEB" stroke="#D0D0D0" stroke-width="1"/>
<rect x="980" y="134" width="460" height="226" rx="8" fill="#F5F5F5" stroke="#D0D0D0" stroke-width="1" />
<text x="990" y="152" font-size="11" fill="#111111" font-weight="bold" text-anchor="start">자산분배</text>
<rect x="1388" y="140" width="46" height="16" rx="3" fill="#EBEBEB" stroke="#D0D0D0" stroke-width="1" />
<text x="1392" y="151" font-size="8" fill="#555555" font-weight="normal" text-anchor="start">9×9↓</text>
<text x="1432" y="150" font-size="9" fill="#999999" font-weight="normal" text-anchor="end">⤢</text>
<rect x="990" y="162" width="218" height="83" rx="4" fill="#EBEBEB" stroke="#D0D0D0" stroke-width="1" />
<text x="1099" y="207" font-size="9" fill="#555555" font-weight="normal" text-anchor="middle">주식60%</text>
<rect x="1212" y="162" width="218" height="83" rx="4" fill="#EBEBEB" stroke="#D0D0D0" stroke-width="1" />
<text x="1321" y="207" font-size="9" fill="#555555" font-weight="normal" text-anchor="middle">채권20%</text>
<rect x="990" y="249" width="218" height="83" rx="4" fill="#EBEBEB" stroke="#D0D0D0" stroke-width="1" />
<text x="1099" y="294" font-size="9" fill="#555555" font-weight="normal" text-anchor="middle">부동산</text>
<rect x="1212" y="249" width="218" height="83" rx="4" fill="#EBEBEB" stroke="#D0D0D0" stroke-width="1" />
<text x="1321" y="294" font-size="9" fill="#555555" font-weight="normal" text-anchor="middle">원자재</text>
<circle cx="990" cy="350" r="4" fill="#CC8800" stroke="#CC8800" stroke-width="1"/>
<circle cx="1000" cy="350" r="4" fill="#EBEBEB" stroke="#D0D0D0" stroke-width="1"/>
<rect x="44" y="368" width="460" height="226" rx="8" fill="#F5F5F5" stroke="#D0D0D0" stroke-width="1" />
<text x="54" y="386" font-size="11" fill="#111111" font-weight="bold" text-anchor="start">ETF</text>
<text x="494" y="386" font-size="10" fill="#999999" font-weight="normal" text-anchor="end">8장</text>
<text x="496" y="384" font-size="9" fill="#999999" font-weight="normal" text-anchor="end">⤢</text>
<rect x="54" y="396" width="218" height="83" rx="4" fill="#EBEBEB" stroke="#D0D0D0" stroke-width="1" />
<text x="163" y="441" font-size="9" fill="#555555" font-weight="normal" text-anchor="middle">SPY</text>
<rect x="276" y="396" width="218" height="83" rx="4" fill="#EBEBEB" stroke="#D0D0D0" stroke-width="1" />
<text x="385" y="441" font-size="9" fill="#555555" font-weight="normal" text-anchor="middle">QQQ</text>
<rect x="54" y="483" width="218" height="83" rx="4" fill="#EBEBEB" stroke="#D0D0D0" stroke-width="1" />
<text x="163" y="528" font-size="9" fill="#555555" font-weight="normal" text-anchor="middle">VTI</text>
<rect x="276" y="483" width="218" height="83" rx="4" fill="#DDDDDD" stroke="#D0D0D0" stroke-width="1" />
<text x="385" y="528" font-size="11" fill="#555555" font-weight="bold" text-anchor="middle">+5</text>
<circle cx="54" cy="584" r="4" fill="#338866" stroke="#338866" stroke-width="1"/>
<circle cx="64" cy="584" r="4" fill="#EBEBEB" stroke="#D0D0D0" stroke-width="1"/>
<rect x="512" y="368" width="460" height="226" rx="8" fill="#D0D8E8" stroke="#BBBBBB" stroke-width="1.5" />
<text x="742" y="471" font-size="28" fill="#111111" font-weight="normal" text-anchor="middle">🐱</text>
<rect x="980" y="368" width="460" height="226" rx="8" fill="#F5F5F5" stroke="#D0D0D0" stroke-width="1" />
<text x="990" y="386" font-size="11" fill="#111111" font-weight="bold" text-anchor="start">크립토</text>
<text x="1430" y="386" font-size="10" fill="#999999" font-weight="normal" text-anchor="end">2장</text>
<text x="1432" y="384" font-size="9" fill="#999999" font-weight="normal" text-anchor="end">⤢</text>
<rect x="990" y="396" width="218" height="83" rx="4" fill="#EBEBEB" stroke="#D0D0D0" stroke-width="1" />
<text x="1099" y="441" font-size="9" fill="#555555" font-weight="normal" text-anchor="middle">BTC</text>
<rect x="1212" y="396" width="218" height="83" rx="4" fill="#EBEBEB" stroke="#D0D0D0" stroke-width="1" />
<text x="1321" y="441" font-size="9" fill="#555555" font-weight="normal" text-anchor="middle">ETH</text>
<rect x="990" y="483" width="218" height="83" rx="4" fill="#FFFFFF" stroke="#D0D0D0" stroke-width="1" stroke-dasharray='5,3'/>
<rect x="1212" y="483" width="218" height="83" rx="4" fill="#FFFFFF" stroke="#D0D0D0" stroke-width="1" stroke-dasharray='5,3'/>
<circle cx="990" cy="584" r="4" fill="#EBEBEB" stroke="#D0D0D0" stroke-width="1"/>
<rect x="44" y="602" width="460" height="226" rx="8" fill="#FFFFFF" stroke="#D0D0D0" stroke-width="1" stroke-dasharray='5,3'/>
<text x="54" y="620" font-size="11" fill="#111111" font-weight="bold" text-anchor="start">은퇴설계</text>
<text x="494" y="620" font-size="10" fill="#999999" font-weight="normal" text-anchor="end">0장</text>
<text x="496" y="618" font-size="9" fill="#999999" font-weight="normal" text-anchor="end">⤢</text>
<rect x="512" y="602" width="460" height="226" rx="8" fill="#F5F5F5" stroke="#D0D0D0" stroke-width="1" />
<text x="522" y="620" font-size="11" fill="#111111" font-weight="bold" text-anchor="start">실물자산</text>
<text x="962" y="620" font-size="10" fill="#999999" font-weight="normal" text-anchor="end">1장</text>
<text x="964" y="618" font-size="9" fill="#999999" font-weight="normal" text-anchor="end">⤢</text>
<rect x="522" y="630" width="218" height="83" rx="4" fill="#EBEBEB" stroke="#D0D0D0" stroke-width="1" />
<text x="631" y="675" font-size="9" fill="#555555" font-weight="normal" text-anchor="middle">금 ETF</text>
<rect x="744" y="630" width="218" height="83" rx="4" fill="#FFFFFF" stroke="#D0D0D0" stroke-width="1" stroke-dasharray='5,3'/>
<rect x="522" y="717" width="218" height="83" rx="4" fill="#FFFFFF" stroke="#D0D0D0" stroke-width="1" stroke-dasharray='5,3'/>
<rect x="744" y="717" width="218" height="83" rx="4" fill="#FFFFFF" stroke="#D0D0D0" stroke-width="1" stroke-dasharray='5,3'/>
<circle cx="522" cy="818" r="4" fill="#EBEBEB" stroke="#D0D0D0" stroke-width="1"/>
<rect x="980" y="602" width="460" height="226" rx="8" fill="#F5F5F5" stroke="#D0D0D0" stroke-width="1" />
<text x="990" y="620" font-size="11" fill="#111111" font-weight="bold" text-anchor="start">시장전망</text>
<text x="1430" y="620" font-size="10" fill="#999999" font-weight="normal" text-anchor="end">4장</text>
<text x="1432" y="618" font-size="9" fill="#999999" font-weight="normal" text-anchor="end">⤢</text>
<rect x="990" y="630" width="218" height="83" rx="4" fill="#EBEBEB" stroke="#D0D0D0" stroke-width="1" />
<text x="1099" y="675" font-size="9" fill="#555555" font-weight="normal" text-anchor="middle">2025</text>
<rect x="1212" y="630" width="218" height="83" rx="4" fill="#EBEBEB" stroke="#D0D0D0" stroke-width="1" />
<text x="1321" y="675" font-size="9" fill="#555555" font-weight="normal" text-anchor="middle">금리</text>
<rect x="990" y="717" width="218" height="83" rx="4" fill="#EBEBEB" stroke="#D0D0D0" stroke-width="1" />
<text x="1099" y="762" font-size="9" fill="#555555" font-weight="normal" text-anchor="middle">달러</text>
<rect x="1212" y="717" width="218" height="83" rx="4" fill="#DDDDDD" stroke="#D0D0D0" stroke-width="1" />
<text x="1321" y="762" font-size="11" fill="#555555" font-weight="bold" text-anchor="middle">+1</text>
<circle cx="990" cy="818" r="4" fill="#CC8800" stroke="#CC8800" stroke-width="1"/>
<circle cx="1000" cy="818" r="4" fill="#EBEBEB" stroke="#D0D0D0" stroke-width="1"/>
<rect x="50" y="114" width="200" height="22" rx="4" fill="#FFFBE0" stroke="#DDBB00" stroke-width="1" />
<text x="54" y="129" font-size="9" fill="#886600" font-weight="normal" text-anchor="start">패널 닫힘 → 만다라 더 넓게</text>
<text x="12" y="888" font-size="9" fill="#999999">[ WF-31 ] Ideation 패널 닫힘 · 36px 얇은 strip · 세로 텍스트 · 만다라 전체 너비 확장</text>
</svg>