<svg width="390" height="844" viewBox="0 0 390 844" xmlns="http://www.w3.org/2000/svg" style="background:#FFFFFF;font-family:Arial,sans-serif">
<rect x="0" y="0" width="390" height="44" rx="0" fill="#F0F0F0" stroke="#D0D0D0" stroke-width="1" />
<text x="14" y="28" font-size="11" fill="#555555" font-weight="normal" text-anchor="start">← 뒤로</text>
<text x="195" y="28" font-size="12" fill="#111111" font-weight="bold" text-anchor="middle">주식투자</text>
<text x="374" y="28" font-size="14" fill="#555555" font-weight="normal" text-anchor="end">⋮</text>
<rect x="0" y="44" width="390" height="36" rx="0" fill="#EBEBEB" stroke="#D0D0D0" stroke-width="1" />
<text x="14" y="66" font-size="11" fill="#555555" font-weight="normal" text-anchor="start">12장</text>
<rect x="310" y="52" width="70" height="22" rx="6" fill="#FFFFFF" stroke="#4488CC" stroke-width="1" />
<text x="345" y="67" font-size="9" fill="#4488CC" font-weight="bold" text-anchor="middle">AI 분류</text>
<rect x="6" y="84" width="188" height="160" rx="8" fill="#F5F5F5" stroke="#D0D0D0" stroke-width="1" />
<rect x="6" y="84" width="188" height="88" rx="8" fill="#1a2a3a" stroke="none" stroke-width="1" />
<rect x="6" y="166" width="188" height="6" rx="0" fill="#1a2a3a" stroke="none" stroke-width="1" />
<rect x="164" y="88" width="26" height="12" rx="3" fill="#00000066" stroke="none" stroke-width="1" />
<text x="168" y="97" font-size="6" fill="#FFFFFF" font-weight="normal" text-anchor="start">YT</text>
<text x="12" y="184" font-size="9" fill="#111111" font-weight="bold" text-anchor="start">테슬라 차세대</text>
<rect x="198" y="84" width="188" height="160" rx="8" fill="#F5F5F5" stroke="#D0D0D0" stroke-width="1" />
<rect x="198" y="84" width="188" height="88" rx="8" fill="#2a1a3a" stroke="none" stroke-width="1" />
<rect x="198" y="166" width="188" height="6" rx="0" fill="#2a1a3a" stroke="none" stroke-width="1" />
<rect x="356" y="88" width="26" height="12" rx="3" fill="#00000066" stroke="none" stroke-width="1" />
<text x="360" y="97" font-size="6" fill="#FFFFFF" font-weight="normal" text-anchor="start">YT</text>
<text x="204" y="184" font-size="9" fill="#111111" font-weight="bold" text-anchor="start">엔비디아 양자</text>
<rect x="6" y="248" width="188" height="160" rx="8" fill="#F5F5F5" stroke="#D0D0D0" stroke-width="1" />
<rect x="6" y="248" width="188" height="88" rx="8" fill="#1a3a2a" stroke="none" stroke-width="1" />
<rect x="6" y="330" width="188" height="6" rx="0" fill="#1a3a2a" stroke="none" stroke-width="1" />
<rect x="164" y="252" width="26" height="12" rx="3" fill="#00000066" stroke="none" stroke-width="1" />
<text x="168" y="261" font-size="6" fill="#FFFFFF" font-weight="normal" text-anchor="start">YT</text>
<text x="12" y="348" font-size="9" fill="#111111" font-weight="bold" text-anchor="start">팔란티어 분석</text>
<rect x="198" y="248" width="188" height="160" rx="8" fill="#F5F5F5" stroke="#D0D0D0" stroke-width="1" />
<rect x="198" y="248" width="188" height="88" rx="8" fill="#3a2a1a" stroke="none" stroke-width="1" />
<rect x="198" y="330" width="188" height="6" rx="0" fill="#3a2a1a" stroke="none" stroke-width="1" />
<rect x="356" y="252" width="26" height="12" rx="3" fill="#00000066" stroke="none" stroke-width="1" />
<text x="360" y="261" font-size="6" fill="#FFFFFF" font-weight="normal" text-anchor="start">YT</text>
<text x="204" y="348" font-size="9" fill="#111111" font-weight="bold" text-anchor="start">아이온큐 전망</text>
<rect x="6" y="412" width="188" height="160" rx="8" fill="#F5F5F5" stroke="#D0D0D0" stroke-width="1" />
<rect x="6" y="412" width="188" height="88" rx="8" fill="#1a1a3a" stroke="none" stroke-width="1" />
<rect x="6" y="494" width="188" height="6" rx="0" fill="#1a1a3a" stroke="none" stroke-width="1" />
<rect x="164" y="416" width="26" height="12" rx="3" fill="#00000066" stroke="none" stroke-width="1" />
<text x="168" y="425" font-size="6" fill="#FFFFFF" font-weight="normal" text-anchor="start">YT</text>
<text x="12" y="512" font-size="9" fill="#111111" font-weight="bold" text-anchor="start">유상증자 CEO</text>
<rect x="198" y="412" width="188" height="160" rx="8" fill="#F5F5F5" stroke="#D0D0D0" stroke-width="1" />
<rect x="198" y="412" width="188" height="88" rx="8" fill="#2a3a1a" stroke="none" stroke-width="1" />
<rect x="198" y="494" width="188" height="6" rx="0" fill="#2a3a1a" stroke="none" stroke-width="1" />
<rect x="356" y="416" width="26" height="12" rx="3" fill="#00000066" stroke="none" stroke-width="1" />
<text x="360" y="425" font-size="6" fill="#FFFFFF" font-weight="normal" text-anchor="start">YT</text>
<text x="204" y="512" font-size="9" fill="#111111" font-weight="bold" text-anchor="start">딥시크 영향</text>
<rect x="0" y="744" width="390" height="36" rx="0" fill="#EBEBEB" stroke="#D0D0D0" stroke-width="1" />
<text x="39" y="766" font-size="7" fill="#999999" font-weight="normal" text-anchor="middle">기시경제</text>
<rect x="82" y="748" width="70" height="28" rx="6" fill="#CCCCCC" stroke="#BBBBBB" stroke-width="1" />
<text x="117" y="766" font-size="8" fill="#111111" font-weight="bold" text-anchor="middle">주식투자</text>
<text x="195" y="766" font-size="7" fill="#999999" font-weight="normal" text-anchor="middle">ETF</text>
<text x="273" y="766" font-size="7" fill="#999999" font-weight="normal" text-anchor="middle">크립토</text>
<text x="351" y="766" font-size="7" fill="#999999" font-weight="normal" text-anchor="middle">시장전망</text>
<circle cx="354" cy="724" r="22" fill="#111111" stroke="#FFFFFF" stroke-width="2"/>
<text x="354" y="731" font-size="16" fill="#FFFFFF" font-weight="bold" text-anchor="middle">+</text>
<rect x="0" y="788" width="390" height="56" rx="0" fill="#F0F0F0" stroke="#D0D0D0" stroke-width="1" />
<text x="48" y="812" font-size="16" fill="#111111" font-weight="normal" text-anchor="middle">⊞</text>
<text x="48" y="830" font-size="8" fill="#111111" font-weight="normal" text-anchor="middle">홈</text>
<text x="145" y="812" font-size="16" fill="#999999" font-weight="normal" text-anchor="middle">🔍</text>
<text x="145" y="830" font-size="8" fill="#999999" font-weight="normal" text-anchor="middle">탐색</text>
<text x="242" y="812" font-size="16" fill="#999999" font-weight="normal" text-anchor="middle">◈</text>
<text x="242" y="830" font-size="8" fill="#999999" font-weight="normal" text-anchor="middle">Ideation</text>
<text x="339" y="812" font-size="16" fill="#999999" font-weight="normal" text-anchor="middle">⚙</text>
<text x="339" y="830" font-size="8" fill="#999999" font-weight="normal" text-anchor="middle">설정</text>
<text x="6" y="842" font-size="7" fill="#999999" font-weight="normal" text-anchor="start">[ WF-34 ] 모바일 카드 전체화면 · 2열 그리드 · 하단 섹터 mini-nav · FAB · 하단 네비</text>
</svg>