<svg width="1440" height="900" viewBox="0 0 1440 900" xmlns="http://www.w3.org/2000/svg" style="background:#FFFFFF;font-family:Arial,sans-serif">
<rect x="0" y="0" width="1440" height="900" rx="0" fill="#F8F8F8" stroke="none" stroke-width="1" />
<rect x="500" y="190" width="440" height="520" rx="16" fill="#FFFFFF" stroke="#D0D0D0" stroke-width="1.5" />
<rect x="696" y="220" width="48" height="48" rx="10" fill="#CCCCCC" stroke="#D0D0D0" stroke-width="1" />
<text x="720" y="252" font-size="22" fill="#111111" font-weight="bold" text-anchor="middle">✦</text>
<text x="720" y="294" font-size="22" fill="#111111" font-weight="bold" text-anchor="middle">Insighta</text>
<text x="720" y="320" font-size="12" fill="#999999" font-weight="normal" text-anchor="middle">나를 조금씩 키워가는 곳</text>
<line x1="540" y1="340" x2="900" y2="340" stroke="#D0D0D0" stroke-width="1" />
<rect x="540" y="354" width="360" height="44" rx="8" fill="#F5F5F5" stroke="#D0D0D0" stroke-width="1" />
<text x="720" y="382" font-size="12" fill="#555555" font-weight="normal" text-anchor="middle">Google로 계속하기</text>
<rect x="540" y="406" width="360" height="44" rx="8" fill="#F5F5F5" stroke="#D0D0D0" stroke-width="1" />
<text x="720" y="434" font-size="12" fill="#555555" font-weight="normal" text-anchor="middle">Apple로 계속하기</text>
<line x1="640" y1="462" x2="696" y2="462" stroke="#D0D0D0" stroke-width="1" />
<text x="720" y="466" font-size="9" fill="#999999" font-weight="normal" text-anchor="middle">또는</text>
<line x1="744" y1="462" x2="800" y2="462" stroke="#D0D0D0" stroke-width="1" />
<rect x="540" y="474" width="360" height="40" rx="8" fill="#F5F5F5" stroke="#D0D0D0" stroke-width="1" />
<text x="552" y="499" font-size="11" fill="#999999" font-weight="normal" text-anchor="start">이메일로 시작하기</text>
<rect x="540" y="526" width="360" height="44" rx="8" fill="#111111" stroke="none" stroke-width="1" />
<text x="720" y="554" font-size="13" fill="#FFFFFF" font-weight="bold" text-anchor="middle">시작하기</text>
<text x="720" y="598" font-size="10" fill="#999999" font-weight="normal" text-anchor="middle">이미 계정이 있으신가요?</text>
<text x="720" y="616" font-size="10" fill="#4488CC" font-weight="normal" text-anchor="middle">로그인</text>
<text x="12" y="888" font-size="9" fill="#999999">[ WF-33 ] 로그인 · Google/Apple 소셜 · 이메일 · CTA · 로그인 링크</text>
</svg>