<svg width="1440" height="900" viewBox="0 0 1440 900" xmlns="http://www.w3.org/2000/svg" style="background:#FFFFFF;font-family:Arial,sans-serif">
<rect x="0" y="0" width="1440" height="900" rx="0" fill="#FFFFFF" stroke="none" stroke-width="1" />
<rect x="0" y="0" width="1440" height="50" rx="0" fill="#F0F0F0" stroke="#D0D0D0" stroke-width="1" />
<text x="16" y="31" font-size="14" fill="#111111" font-weight="bold" text-anchor="start">주식투자 — 전체 카드</text>
<rect x="200" y="12" width="60" height="28" rx="14" fill="#111111" stroke="none" stroke-width="1" />
<text x="230" y="30" font-size="9" fill="#FFFFFF" font-weight="bold" text-anchor="middle">3장 선택</text>
<rect x="270" y="12" width="66" height="28" rx="6" fill="#F5F5F5" stroke="#D0D0D0" stroke-width="1" />
<text x="286" y="30" font-size="10" fill="#555555" font-weight="normal" text-anchor="start">전체 선택</text>
<rect x="342" y="12" width="66" height="28" rx="6" fill="#F5F5F5" stroke="#D0D0D0" stroke-width="1" />
<text x="358" y="30" font-size="10" fill="#555555" font-weight="normal" text-anchor="start">선택 해제</text>
<rect x="1340" y="12" width="88" height="28" rx="6" fill="#F5F5F5" stroke="#D0D0D0" stroke-width="1" />
<text x="1384" y="30" font-size="11" fill="#555555" font-weight="normal" text-anchor="middle">✕ 닫기</text>
<rect x="0" y="50" width="1440" height="28" rx="0" fill="#FFFBE0" stroke="#DDBB00" stroke-width="1" />
<text x="12" y="68" font-size="11" fill="#886600" font-weight="normal" text-anchor="start">선택한 카드를 드래그하면 만다라 네비게이터가 나타납니다</text>
<rect x="16" y="84" width="268" height="180" rx="8" fill="#F5F5F5" stroke="#4488CC" stroke-width="2" />
<rect x="16" y="84" width="268" height="99" rx="8" fill="#1a2a3a" stroke="none" stroke-width="1" />
<rect x="16" y="175" width="268" height="8" rx="0" fill="#1a2a3a" stroke="none" stroke-width="1" />
<circle cx="30" cy="98" r="9" fill="#4488CC" stroke="#4488CC" stroke-width="1"/>
<text x="30" y="102" font-size="8" fill="#FFFFFF" font-weight="bold" text-anchor="middle">✓</text>
<text x="24" y="197" font-size="9" fill="#111111" font-weight="bold" text-anchor="start">테슬라, 차세대</text>
<rect x="296" y="84" width="268" height="180" rx="8" fill="#F5F5F5" stroke="#D0D0D0" stroke-width="1" />
<rect x="296" y="84" width="268" height="99" rx="8" fill="#2a1a3a" stroke="none" stroke-width="1" />
<rect x="296" y="175" width="268" height="8" rx="0" fill="#2a1a3a" stroke="none" stroke-width="1" />
<circle cx="310" cy="98" r="9" fill="#FFFFFF" stroke="#BBBBBB" stroke-width="1.5"/>
<text x="304" y="197" font-size="9" fill="#111111" font-weight="bold" text-anchor="start">엔비디아 양자</text>
<rect x="576" y="84" width="268" height="180" rx="8" fill="#F5F5F5" stroke="#4488CC" stroke-width="2" />
<rect x="576" y="84" width="268" height="99" rx="8" fill="#1a3a2a" stroke="none" stroke-width="1" />
<rect x="576" y="175" width="268" height="8" rx="0" fill="#1a3a2a" stroke="none" stroke-width="1" />
<circle cx="590" cy="98" r="9" fill="#4488CC" stroke="#4488CC" stroke-width="1"/>
<text x="590" y="102" font-size="8" fill="#FFFFFF" font-weight="bold" text-anchor="middle">✓</text>
<text x="584" y="197" font-size="9" fill="#111111" font-weight="bold" text-anchor="start">팔란티어 경쟁</text>
<rect x="856" y="84" width="268" height="180" rx="8" fill="#F5F5F5" stroke="#D0D0D0" stroke-width="1" />
<rect x="856" y="84" width="268" height="99" rx="8" fill="#3a2a1a" stroke="none" stroke-width="1" />
<rect x="856" y="175" width="268" height="8" rx="0" fill="#3a2a1a" stroke="none" stroke-width="1" />
<circle cx="870" cy="98" r="9" fill="#FFFFFF" stroke="#BBBBBB" stroke-width="1.5"/>
<text x="864" y="197" font-size="9" fill="#111111" font-weight="bold" text-anchor="start">아이온큐 전망</text>
<rect x="1136" y="84" width="268" height="180" rx="8" fill="#F5F5F5" stroke="#4488CC" stroke-width="2" />
<rect x="1136" y="84" width="268" height="99" rx="8" fill="#1a1a3a" stroke="none" stroke-width="1" />
<rect x="1136" y="175" width="268" height="8" rx="0" fill="#1a1a3a" stroke="none" stroke-width="1" />
<circle cx="1150" cy="98" r="9" fill="#4488CC" stroke="#4488CC" stroke-width="1"/>
<text x="1150" y="102" font-size="8" fill="#FFFFFF" font-weight="bold" text-anchor="middle">✓</text>
<text x="1144" y="197" font-size="9" fill="#111111" font-weight="bold" text-anchor="start">유상증자 CEO</text>
<rect x="16" y="276" width="268" height="180" rx="8" fill="#F5F5F5" stroke="#D0D0D0" stroke-width="1" />
<rect x="16" y="276" width="268" height="99" rx="8" fill="#2a3a1a" stroke="none" stroke-width="1" />
<rect x="16" y="367" width="268" height="8" rx="0" fill="#2a3a1a" stroke="none" stroke-width="1" />
<circle cx="30" cy="290" r="9" fill="#FFFFFF" stroke="#BBBBBB" stroke-width="1.5"/>
<text x="24" y="389" font-size="9" fill="#111111" font-weight="bold" text-anchor="start">엔비디아 실적</text>
<rect x="296" y="276" width="268" height="180" rx="8" fill="#F5F5F5" stroke="#D0D0D0" stroke-width="1" />
<rect x="296" y="276" width="268" height="99" rx="8" fill="#3a1a1a" stroke="none" stroke-width="1" />
<rect x="296" y="367" width="268" height="8" rx="0" fill="#3a1a1a" stroke="none" stroke-width="1" />
<circle cx="310" cy="290" r="9" fill="#FFFFFF" stroke="#BBBBBB" stroke-width="1.5"/>
<text x="304" y="389" font-size="9" fill="#111111" font-weight="bold" text-anchor="start">팔란티어 CEO</text>
<rect x="576" y="276" width="268" height="180" rx="8" fill="#F5F5F5" stroke="#D0D0D0" stroke-width="1" />
<rect x="576" y="276" width="268" height="99" rx="8" fill="#1a2a3a" stroke="none" stroke-width="1" />
<rect x="576" y="367" width="268" height="8" rx="0" fill="#1a2a3a" stroke="none" stroke-width="1" />
<circle cx="590" cy="290" r="9" fill="#FFFFFF" stroke="#BBBBBB" stroke-width="1.5"/>
<text x="584" y="389" font-size="9" fill="#111111" font-weight="bold" text-anchor="start">테슬라 로봇</text>
<rect x="856" y="276" width="268" height="180" rx="8" fill="#F5F5F5" stroke="#D0D0D0" stroke-width="1" />
<rect x="856" y="276" width="268" height="99" rx="8" fill="#2a1a3a" stroke="none" stroke-width="1" />
<rect x="856" y="367" width="268" height="8" rx="0" fill="#2a1a3a" stroke="none" stroke-width="1" />
<circle cx="870" cy="290" r="9" fill="#FFFFFF" stroke="#BBBBBB" stroke-width="1.5"/>
<text x="864" y="389" font-size="9" fill="#111111" font-weight="bold" text-anchor="start">2030 반도체</text>
<rect x="1136" y="276" width="268" height="180" rx="8" fill="#F5F5F5" stroke="#D0D0D0" stroke-width="1" />
<rect x="1136" y="276" width="268" height="99" rx="8" fill="#1a3a1a" stroke="none" stroke-width="1" />
<rect x="1136" y="367" width="268" height="8" rx="0" fill="#1a3a1a" stroke="none" stroke-width="1" />
<circle cx="1150" cy="290" r="9" fill="#FFFFFF" stroke="#BBBBBB" stroke-width="1.5"/>
<text x="1144" y="389" font-size="9" fill="#111111" font-weight="bold" text-anchor="start">미국 주식 2025</text>
<text x="12" y="888" font-size="9" fill="#999999">[ WF-32 ] 전체화면 다중선택 · 3장 선택 (파란 체크) · 선택배지 · 드래그 힌트 · 전체선택/해제</text>
</svg>